<?xml version="1.0" encoding="utf-8" standalone="no"?>
<!DOCTYPE svg PUBLIC "-//W3C//DTD SVG 1.1//EN"
  "http://www.w3.org/Graphics/SVG/1.1/DTD/svg11.dtd">
<svg xmlns:xlink="http://www.w3.org/1999/xlink" width="720pt" height="360pt" viewBox="0 0 720 360" xmlns="http://www.w3.org/2000/svg" version="1.1">
 <metadata>
  <rdf:RDF xmlns:dc="http://purl.org/dc/elements/1.1/" xmlns:cc="http://creativecommons.org/ns#" xmlns:rdf="http://www.w3.org/1999/02/22-rdf-syntax-ns#">
   <cc:Work>
    <dc:type rdf:resource="http://purl.org/dc/dcmitype/StillImage"/>
    <dc:date>2025-09-18T10:36:45.661361</dc:date>
    <dc:format>image/svg+xml</dc:format>
    <dc:creator>
     <cc:Agent>
      <dc:title>Matplotlib v3.10.5, https://matplotlib.org/</dc:title>
     </cc:Agent>
    </dc:creator>
   </cc:Work>
  </rdf:RDF>
 </metadata>
 <defs>
  <style type="text/css">*{stroke-linejoin: round; stroke-linecap: butt}</style>
 </defs>
 <g id="figure_1">
  <g id="patch_1">
   <path d="M 0 360 
L 720 360 
L 720 0 
L 0 0 
z
" style="fill: #ffffff"/>
  </g>
  <g id="axes_1">
   <g id="patch_2">
    <path d="M 57.44 294.712 
L 665.8 294.712 
L 665.8 25.44 
L 57.44 25.44 
z
" style="fill: #ffffff"/>
   </g>
   <g id="matplotlib.axis_1">
    <g id="xtick_1">
     <g id="line2d_1">
      <defs>
       <path id="m507de3b6e6" d="M 0 0 
L 0 3.5 
" style="stroke: #000000; stroke-width: 0.8"/>
      </defs>
      <g>
       <use xlink:href="#m507de3b6e6" x="57.44" y="294.712" style="stroke: #000000; stroke-width: 0.8"/>
      </g>
     </g>
     <g id="text_1">
      <!-- 01 -->
      <g transform="translate(51.0775 309.310438) scale(0.1 -0.1)">
       <defs>
        <path id="DejaVuSans-30" d="M 2034 4250 
Q 1547 4250 1301 3770 
Q 1056 3291 1056 2328 
Q 1056 1369 1301 889 
Q 1547 409 2034 409 
Q 2525 409 2770 889 
Q 3016 1369 3016 2328 
Q 3016 3291 2770 3770 
Q 2525 4250 2034 4250 
z
M 2034 4750 
Q 2819 4750 3233 4129 
Q 3647 3509 3647 2328 
Q 3647 1150 3233 529 
Q 2819 -91 2034 -91 
Q 1250 -91 836 529 
Q 422 1150 422 2328 
Q 422 3509 836 4129 
Q 1250 4750 2034 4750 
z
" transform="scale(0.015625)"/>
        <path id="DejaVuSans-31" d="M 794 531 
L 1825 531 
L 1825 4091 
L 703 3866 
L 703 4441 
L 1819 4666 
L 2450 4666 
L 2450 531 
L 3481 531 
L 3481 0 
L 794 0 
L 794 531 
z
" transform="scale(0.015625)"/>
       </defs>
       <use xlink:href="#DejaVuSans-30"/>
       <use xlink:href="#DejaVuSans-31" transform="translate(63.623047 0)"/>
      </g>
      <!-- Sep -->
      <g transform="translate(48.015 320.50825) scale(0.1 -0.1)">
       <defs>
        <path id="DejaVuSans-53" d="M 3425 4513 
L 3425 3897 
Q 3066 4069 2747 4153 
Q 2428 4238 2131 4238 
Q 1616 4238 1336 4038 
Q 1056 3838 1056 3469 
Q 1056 3159 1242 3001 
Q 1428 2844 1947 2747 
L 2328 2669 
Q 3034 2534 3370 2195 
Q 3706 1856 3706 1288 
Q 3706 609 3251 259 
Q 2797 -91 1919 -91 
Q 1588 -91 1214 -16 
Q 841 59 441 206 
L 441 856 
Q 825 641 1194 531 
Q 1563 422 1919 422 
Q 2459 422 2753 634 
Q 3047 847 3047 1241 
Q 3047 1584 2836 1778 
Q 2625 1972 2144 2069 
L 1759 2144 
Q 1053 2284 737 2584 
Q 422 2884 422 3419 
Q 422 4038 858 4394 
Q 1294 4750 2059 4750 
Q 2388 4750 2728 4690 
Q 3069 4631 3425 4513 
z
" transform="scale(0.015625)"/>
        <path id="DejaVuSans-65" d="M 3597 1894 
L 3597 1613 
L 953 1613 
Q 991 1019 1311 708 
Q 1631 397 2203 397 
Q 2534 397 2845 478 
Q 3156 559 3463 722 
L 3463 178 
Q 3153 47 2828 -22 
Q 2503 -91 2169 -91 
Q 1331 -91 842 396 
Q 353 884 353 1716 
Q 353 2575 817 3079 
Q 1281 3584 2069 3584 
Q 2775 3584 3186 3129 
Q 3597 2675 3597 1894 
z
M 3022 2063 
Q 3016 2534 2758 2815 
Q 2500 3097 2075 3097 
Q 1594 3097 1305 2825 
Q 1016 2553 972 2059 
L 3022 2063 
z
" transform="scale(0.015625)"/>
        <path id="DejaVuSans-70" d="M 1159 525 
L 1159 -1331 
L 581 -1331 
L 581 3500 
L 1159 3500 
L 1159 2969 
Q 1341 3281 1617 3432 
Q 1894 3584 2278 3584 
Q 2916 3584 3314 3078 
Q 3713 2572 3713 1747 
Q 3713 922 3314 415 
Q 2916 -91 2278 -91 
Q 1894 -91 1617 61 
Q 1341 213 1159 525 
z
M 3116 1747 
Q 3116 2381 2855 2742 
Q 2594 3103 2138 3103 
Q 1681 3103 1420 2742 
Q 1159 2381 1159 1747 
Q 1159 1113 1420 752 
Q 1681 391 2138 391 
Q 2594 391 2855 752 
Q 3116 1113 3116 1747 
z
" transform="scale(0.015625)"/>
       </defs>
       <use xlink:href="#DejaVuSans-53"/>
       <use xlink:href="#DejaVuSans-65" transform="translate(63.476562 0)"/>
       <use xlink:href="#DejaVuSans-70" transform="translate(125 0)"/>
      </g>
      <!-- 2025 -->
      <g transform="translate(44.715 331.706063) scale(0.1 -0.1)">
       <defs>
        <path id="DejaVuSans-32" d="M 1228 531 
L 3431 531 
L 3431 0 
L 469 0 
L 469 531 
Q 828 903 1448 1529 
Q 2069 2156 2228 2338 
Q 2531 2678 2651 2914 
Q 2772 3150 2772 3378 
Q 2772 3750 2511 3984 
Q 2250 4219 1831 4219 
Q 1534 4219 1204 4116 
Q 875 4013 500 3803 
L 500 4441 
Q 881 4594 1212 4672 
Q 1544 4750 1819 4750 
Q 2544 4750 2975 4387 
Q 3406 4025 3406 3419 
Q 3406 3131 3298 2873 
Q 3191 2616 2906 2266 
Q 2828 2175 2409 1742 
Q 1991 1309 1228 531 
z
" transform="scale(0.015625)"/>
        <path id="DejaVuSans-35" d="M 691 4666 
L 3169 4666 
L 3169 4134 
L 1269 4134 
L 1269 2991 
Q 1406 3038 1543 3061 
Q 1681 3084 1819 3084 
Q 2600 3084 3056 2656 
Q 3513 2228 3513 1497 
Q 3513 744 3044 326 
Q 2575 -91 1722 -91 
Q 1428 -91 1123 -41 
Q 819 9 494 109 
L 494 744 
Q 775 591 1075 516 
Q 1375 441 1709 441 
Q 2250 441 2565 725 
Q 2881 1009 2881 1497 
Q 2881 1984 2565 2268 
Q 2250 2553 1709 2553 
Q 1456 2553 1204 2497 
Q 953 2441 691 2322 
L 691 4666 
z
" transform="scale(0.015625)"/>
       </defs>
       <use xlink:href="#DejaVuSans-32"/>
       <use xlink:href="#DejaVuSans-30" transform="translate(63.623047 0)"/>
       <use xlink:href="#DejaVuSans-32" transform="translate(127.246094 0)"/>
       <use xlink:href="#DejaVuSans-35" transform="translate(190.869141 0)"/>
      </g>
     </g>
    </g>
    <g id="xtick_2">
     <g id="line2d_2">
      <g>
       <use xlink:href="#m507de3b6e6" x="665.8" y="294.712" style="stroke: #000000; stroke-width: 0.8"/>
      </g>
     </g>
    </g>
    <g id="xtick_3">
     <g id="line2d_3">
      <defs>
       <path id="m539a95c9f3" d="M 0 0 
L 0 2 
" style="stroke: #000000; stroke-width: 0.6"/>
      </defs>
      <g>
       <use xlink:href="#m539a95c9f3" x="98.919091" y="294.712" style="stroke: #000000; stroke-width: 0.6"/>
      </g>
     </g>
     <g id="text_2">
      <!-- 02 -->
      <g transform="translate(92.556591 307.710438) scale(0.1 -0.1)">
       <use xlink:href="#DejaVuSans-30"/>
       <use xlink:href="#DejaVuSans-32" transform="translate(63.623047 0)"/>
      </g>
     </g>
    </g>
    <g id="xtick_4">
     <g id="line2d_4">
      <g>
       <use xlink:href="#m539a95c9f3" x="140.398182" y="294.712" style="stroke: #000000; stroke-width: 0.6"/>
      </g>
     </g>
     <g id="text_3">
      <!-- 03 -->
      <g transform="translate(134.035682 307.710438) scale(0.1 -0.1)">
       <defs>
        <path id="DejaVuSans-33" d="M 2597 2516 
Q 3050 2419 3304 2112 
Q 3559 1806 3559 1356 
Q 3559 666 3084 287 
Q 2609 -91 1734 -91 
Q 1441 -91 1130 -33 
Q 819 25 488 141 
L 488 750 
Q 750 597 1062 519 
Q 1375 441 1716 441 
Q 2309 441 2620 675 
Q 2931 909 2931 1356 
Q 2931 1769 2642 2001 
Q 2353 2234 1838 2234 
L 1294 2234 
L 1294 2753 
L 1863 2753 
Q 2328 2753 2575 2939 
Q 2822 3125 2822 3475 
Q 2822 3834 2567 4026 
Q 2313 4219 1838 4219 
Q 1578 4219 1281 4162 
Q 984 4106 628 3988 
L 628 4550 
Q 988 4650 1302 4700 
Q 1616 4750 1894 4750 
Q 2613 4750 3031 4423 
Q 3450 4097 3450 3541 
Q 3450 3153 3228 2886 
Q 3006 2619 2597 2516 
z
" transform="scale(0.015625)"/>
       </defs>
       <use xlink:href="#DejaVuSans-30"/>
       <use xlink:href="#DejaVuSans-33" transform="translate(63.623047 0)"/>
      </g>
     </g>
    </g>
    <g id="xtick_5">
     <g id="line2d_5">
      <g>
       <use xlink:href="#m539a95c9f3" x="181.877273" y="294.712" style="stroke: #000000; stroke-width: 0.6"/>
      </g>
     </g>
     <g id="text_4">
      <!-- 04 -->
      <g transform="translate(175.514773 307.710438) scale(0.1 -0.1)">
       <defs>
        <path id="DejaVuSans-34" d="M 2419 4116 
L 825 1625 
L 2419 1625 
L 2419 4116 
z
M 2253 4666 
L 3047 4666 
L 3047 1625 
L 3713 1625 
L 3713 1100 
L 3047 1100 
L 3047 0 
L 2419 0 
L 2419 1100 
L 313 1100 
L 313 1709 
L 2253 4666 
z
" transform="scale(0.015625)"/>
       </defs>
       <use xlink:href="#DejaVuSans-30"/>
       <use xlink:href="#DejaVuSans-34" transform="translate(63.623047 0)"/>
      </g>
     </g>
    </g>
    <g id="xtick_6">
     <g id="line2d_6">
      <g>
       <use xlink:href="#m539a95c9f3" x="223.356364" y="294.712" style="stroke: #000000; stroke-width: 0.6"/>
      </g>
     </g>
     <g id="text_5">
      <!-- 05 -->
      <g transform="translate(216.993864 307.710438) scale(0.1 -0.1)">
       <use xlink:href="#DejaVuSans-30"/>
       <use xlink:href="#DejaVuSans-35" transform="translate(63.623047 0)"/>
      </g>
     </g>
    </g>
    <g id="xtick_7">
     <g id="line2d_7">
      <g>
       <use xlink:href="#m539a95c9f3" x="264.835455" y="294.712" style="stroke: #000000; stroke-width: 0.6"/>
      </g>
     </g>
     <g id="text_6">
      <!-- 06 -->
      <g transform="translate(258.472955 307.710438) scale(0.1 -0.1)">
       <defs>
        <path id="DejaVuSans-36" d="M 2113 2584 
Q 1688 2584 1439 2293 
Q 1191 2003 1191 1497 
Q 1191 994 1439 701 
Q 1688 409 2113 409 
Q 2538 409 2786 701 
Q 3034 994 3034 1497 
Q 3034 2003 2786 2293 
Q 2538 2584 2113 2584 
z
M 3366 4563 
L 3366 3988 
Q 3128 4100 2886 4159 
Q 2644 4219 2406 4219 
Q 1781 4219 1451 3797 
Q 1122 3375 1075 2522 
Q 1259 2794 1537 2939 
Q 1816 3084 2150 3084 
Q 2853 3084 3261 2657 
Q 3669 2231 3669 1497 
Q 3669 778 3244 343 
Q 2819 -91 2113 -91 
Q 1303 -91 875 529 
Q 447 1150 447 2328 
Q 447 3434 972 4092 
Q 1497 4750 2381 4750 
Q 2619 4750 2861 4703 
Q 3103 4656 3366 4563 
z
" transform="scale(0.015625)"/>
       </defs>
       <use xlink:href="#DejaVuSans-30"/>
       <use xlink:href="#DejaVuSans-36" transform="translate(63.623047 0)"/>
      </g>
     </g>
    </g>
    <g id="xtick_8">
     <g id="line2d_8">
      <g>
       <use xlink:href="#m539a95c9f3" x="306.314545" y="294.712" style="stroke: #000000; stroke-width: 0.6"/>
      </g>
     </g>
     <g id="text_7">
      <!-- 07 -->
      <g transform="translate(299.952045 307.710438) scale(0.1 -0.1)">
       <defs>
        <path id="DejaVuSans-37" d="M 525 4666 
L 3525 4666 
L 3525 4397 
L 1831 0 
L 1172 0 
L 2766 4134 
L 525 4134 
L 525 4666 
z
" transform="scale(0.015625)"/>
       </defs>
       <use xlink:href="#DejaVuSans-30"/>
       <use xlink:href="#DejaVuSans-37" transform="translate(63.623047 0)"/>
      </g>
     </g>
    </g>
    <g id="xtick_9">
     <g id="line2d_9">
      <g>
       <use xlink:href="#m539a95c9f3" x="347.793636" y="294.712" style="stroke: #000000; stroke-width: 0.6"/>
      </g>
     </g>
     <g id="text_8">
      <!-- 08 -->
      <g transform="translate(341.431136 307.710438) scale(0.1 -0.1)">
       <defs>
        <path id="DejaVuSans-38" d="M 2034 2216 
Q 1584 2216 1326 1975 
Q 1069 1734 1069 1313 
Q 1069 891 1326 650 
Q 1584 409 2034 409 
Q 2484 409 2743 651 
Q 3003 894 3003 1313 
Q 3003 1734 2745 1975 
Q 2488 2216 2034 2216 
z
M 1403 2484 
Q 997 2584 770 2862 
Q 544 3141 544 3541 
Q 544 4100 942 4425 
Q 1341 4750 2034 4750 
Q 2731 4750 3128 4425 
Q 3525 4100 3525 3541 
Q 3525 3141 3298 2862 
Q 3072 2584 2669 2484 
Q 3125 2378 3379 2068 
Q 3634 1759 3634 1313 
Q 3634 634 3220 271 
Q 2806 -91 2034 -91 
Q 1263 -91 848 271 
Q 434 634 434 1313 
Q 434 1759 690 2068 
Q 947 2378 1403 2484 
z
M 1172 3481 
Q 1172 3119 1398 2916 
Q 1625 2713 2034 2713 
Q 2441 2713 2670 2916 
Q 2900 3119 2900 3481 
Q 2900 3844 2670 4047 
Q 2441 4250 2034 4250 
Q 1625 4250 1398 4047 
Q 1172 3844 1172 3481 
z
" transform="scale(0.015625)"/>
       </defs>
       <use xlink:href="#DejaVuSans-30"/>
       <use xlink:href="#DejaVuSans-38" transform="translate(63.623047 0)"/>
      </g>
     </g>
    </g>
    <g id="xtick_10">
     <g id="line2d_10">
      <g>
       <use xlink:href="#m539a95c9f3" x="389.272727" y="294.712" style="stroke: #000000; stroke-width: 0.6"/>
      </g>
     </g>
     <g id="text_9">
      <!-- 09 -->
      <g transform="translate(382.910227 307.710438) scale(0.1 -0.1)">
       <defs>
        <path id="DejaVuSans-39" d="M 703 97 
L 703 672 
Q 941 559 1184 500 
Q 1428 441 1663 441 
Q 2288 441 2617 861 
Q 2947 1281 2994 2138 
Q 2813 1869 2534 1725 
Q 2256 1581 1919 1581 
Q 1219 1581 811 2004 
Q 403 2428 403 3163 
Q 403 3881 828 4315 
Q 1253 4750 1959 4750 
Q 2769 4750 3195 4129 
Q 3622 3509 3622 2328 
Q 3622 1225 3098 567 
Q 2575 -91 1691 -91 
Q 1453 -91 1209 -44 
Q 966 3 703 97 
z
M 1959 2075 
Q 2384 2075 2632 2365 
Q 2881 2656 2881 3163 
Q 2881 3666 2632 3958 
Q 2384 4250 1959 4250 
Q 1534 4250 1286 3958 
Q 1038 3666 1038 3163 
Q 1038 2656 1286 2365 
Q 1534 2075 1959 2075 
z
" transform="scale(0.015625)"/>
       </defs>
       <use xlink:href="#DejaVuSans-30"/>
       <use xlink:href="#DejaVuSans-39" transform="translate(63.623047 0)"/>
      </g>
     </g>
    </g>
    <g id="xtick_11">
     <g id="line2d_11">
      <g>
       <use xlink:href="#m539a95c9f3" x="430.751818" y="294.712" style="stroke: #000000; stroke-width: 0.6"/>
      </g>
     </g>
     <g id="text_10">
      <!-- 10 -->
      <g transform="translate(424.389318 307.710438) scale(0.1 -0.1)">
       <use xlink:href="#DejaVuSans-31"/>
       <use xlink:href="#DejaVuSans-30" transform="translate(63.623047 0)"/>
      </g>
     </g>
    </g>
    <g id="xtick_12">
     <g id="line2d_12">
      <g>
       <use xlink:href="#m539a95c9f3" x="472.230909" y="294.712" style="stroke: #000000; stroke-width: 0.6"/>
      </g>
     </g>
     <g id="text_11">
      <!-- 11 -->
      <g transform="translate(465.868409 307.710438) scale(0.1 -0.1)">
       <use xlink:href="#DejaVuSans-31"/>
       <use xlink:href="#DejaVuSans-31" transform="translate(63.623047 0)"/>
      </g>
     </g>
    </g>
    <g id="xtick_13">
     <g id="line2d_13">
      <g>
       <use xlink:href="#m539a95c9f3" x="513.71" y="294.712" style="stroke: #000000; stroke-width: 0.6"/>
      </g>
     </g>
     <g id="text_12">
      <!-- 12 -->
      <g transform="translate(507.3475 307.710438) scale(0.1 -0.1)">
       <use xlink:href="#DejaVuSans-31"/>
       <use xlink:href="#DejaVuSans-32" transform="translate(63.623047 0)"/>
      </g>
     </g>
    </g>
    <g id="xtick_14">
     <g id="line2d_14">
      <g>
       <use xlink:href="#m539a95c9f3" x="555.189091" y="294.712" style="stroke: #000000; stroke-width: 0.6"/>
      </g>
     </g>
     <g id="text_13">
      <!-- 13 -->
      <g transform="translate(548.826591 307.710438) scale(0.1 -0.1)">
       <use xlink:href="#DejaVuSans-31"/>
       <use xlink:href="#DejaVuSans-33" transform="translate(63.623047 0)"/>
      </g>
     </g>
    </g>
    <g id="xtick_15">
     <g id="line2d_15">
      <g>
       <use xlink:href="#m539a95c9f3" x="596.668182" y="294.712" style="stroke: #000000; stroke-width: 0.6"/>
      </g>
     </g>
     <g id="text_14">
      <!-- 14 -->
      <g transform="translate(590.305682 307.710438) scale(0.1 -0.1)">
       <use xlink:href="#DejaVuSans-31"/>
       <use xlink:href="#DejaVuSans-34" transform="translate(63.623047 0)"/>
      </g>
     </g>
    </g>
    <g id="xtick_16">
     <g id="line2d_16">
      <g>
       <use xlink:href="#m539a95c9f3" x="638.147273" y="294.712" style="stroke: #000000; stroke-width: 0.6"/>
      </g>
     </g>
     <g id="text_15">
      <!-- 15 -->
      <g transform="translate(631.784773 307.710438) scale(0.1 -0.1)">
       <use xlink:href="#DejaVuSans-31"/>
       <use xlink:href="#DejaVuSans-35" transform="translate(63.623047 0)"/>
      </g>
     </g>
    </g>
    <g id="text_16">
     <!-- Time (UTC) -->
     <g transform="translate(333.984844 345.384187) scale(0.1 -0.1)">
      <defs>
       <path id="DejaVuSans-54" d="M -19 4666 
L 3928 4666 
L 3928 4134 
L 2272 4134 
L 2272 0 
L 1638 0 
L 1638 4134 
L -19 4134 
L -19 4666 
z
" transform="scale(0.015625)"/>
       <path id="DejaVuSans-69" d="M 603 3500 
L 1178 3500 
L 1178 0 
L 603 0 
L 603 3500 
z
M 603 4863 
L 1178 4863 
L 1178 4134 
L 603 4134 
L 603 4863 
z
" transform="scale(0.015625)"/>
       <path id="DejaVuSans-6d" d="M 3328 2828 
Q 3544 3216 3844 3400 
Q 4144 3584 4550 3584 
Q 5097 3584 5394 3201 
Q 5691 2819 5691 2113 
L 5691 0 
L 5113 0 
L 5113 2094 
Q 5113 2597 4934 2840 
Q 4756 3084 4391 3084 
Q 3944 3084 3684 2787 
Q 3425 2491 3425 1978 
L 3425 0 
L 2847 0 
L 2847 2094 
Q 2847 2600 2669 2842 
Q 2491 3084 2119 3084 
Q 1678 3084 1418 2786 
Q 1159 2488 1159 1978 
L 1159 0 
L 581 0 
L 581 3500 
L 1159 3500 
L 1159 2956 
Q 1356 3278 1631 3431 
Q 1906 3584 2284 3584 
Q 2666 3584 2933 3390 
Q 3200 3197 3328 2828 
z
" transform="scale(0.015625)"/>
       <path id="DejaVuSans-20" transform="scale(0.015625)"/>
       <path id="DejaVuSans-28" d="M 1984 4856 
Q 1566 4138 1362 3434 
Q 1159 2731 1159 2009 
Q 1159 1288 1364 580 
Q 1569 -128 1984 -844 
L 1484 -844 
Q 1016 -109 783 600 
Q 550 1309 550 2009 
Q 550 2706 781 3412 
Q 1013 4119 1484 4856 
L 1984 4856 
z
" transform="scale(0.015625)"/>
       <path id="DejaVuSans-55" d="M 556 4666 
L 1191 4666 
L 1191 1831 
Q 1191 1081 1462 751 
Q 1734 422 2344 422 
Q 2950 422 3222 751 
Q 3494 1081 3494 1831 
L 3494 4666 
L 4128 4666 
L 4128 1753 
Q 4128 841 3676 375 
Q 3225 -91 2344 -91 
Q 1459 -91 1007 375 
Q 556 841 556 1753 
L 556 4666 
z
" transform="scale(0.015625)"/>
       <path id="DejaVuSans-43" d="M 4122 4306 
L 4122 3641 
Q 3803 3938 3442 4084 
Q 3081 4231 2675 4231 
Q 1875 4231 1450 3742 
Q 1025 3253 1025 2328 
Q 1025 1406 1450 917 
Q 1875 428 2675 428 
Q 3081 428 3442 575 
Q 3803 722 4122 1019 
L 4122 359 
Q 3791 134 3420 21 
Q 3050 -91 2638 -91 
Q 1578 -91 968 557 
Q 359 1206 359 2328 
Q 359 3453 968 4101 
Q 1578 4750 2638 4750 
Q 3056 4750 3426 4639 
Q 3797 4528 4122 4306 
z
" transform="scale(0.015625)"/>
       <path id="DejaVuSans-29" d="M 513 4856 
L 1013 4856 
Q 1481 4119 1714 3412 
Q 1947 2706 1947 2009 
Q 1947 1309 1714 600 
Q 1481 -109 1013 -844 
L 513 -844 
Q 928 -128 1133 580 
Q 1338 1288 1338 2009 
Q 1338 2731 1133 3434 
Q 928 4138 513 4856 
z
" transform="scale(0.015625)"/>
      </defs>
      <use xlink:href="#DejaVuSans-54"/>
      <use xlink:href="#DejaVuSans-69" transform="translate(57.958984 0)"/>
      <use xlink:href="#DejaVuSans-6d" transform="translate(85.742188 0)"/>
      <use xlink:href="#DejaVuSans-65" transform="translate(183.154297 0)"/>
      <use xlink:href="#DejaVuSans-20" transform="translate(244.677734 0)"/>
      <use xlink:href="#DejaVuSans-28" transform="translate(276.464844 0)"/>
      <use xlink:href="#DejaVuSans-55" transform="translate(315.478516 0)"/>
      <use xlink:href="#DejaVuSans-54" transform="translate(388.671875 0)"/>
      <use xlink:href="#DejaVuSans-43" transform="translate(443.880859 0)"/>
      <use xlink:href="#DejaVuSans-29" transform="translate(513.705078 0)"/>
     </g>
    </g>
   </g>
   <g id="matplotlib.axis_2">
    <g id="ytick_1">
     <g id="line2d_17">
      <defs>
       <path id="m85cd7dbe06" d="M 0 0 
L -3.5 0 
" style="stroke: #000000; stroke-width: 0.8"/>
      </defs>
      <g>
       <use xlink:href="#m85cd7dbe06" x="57.44" y="253.402754" style="stroke: #000000; stroke-width: 0.8"/>
      </g>
     </g>
     <g id="text_17">
      <!-- 4300 -->
      <g transform="translate(24.99 257.201972) scale(0.1 -0.1)">
       <use xlink:href="#DejaVuSans-34"/>
       <use xlink:href="#DejaVuSans-33" transform="translate(63.623047 0)"/>
       <use xlink:href="#DejaVuSans-30" transform="translate(127.246094 0)"/>
       <use xlink:href="#DejaVuSans-30" transform="translate(190.869141 0)"/>
      </g>
     </g>
    </g>
    <g id="ytick_2">
     <g id="line2d_18">
      <g>
       <use xlink:href="#m85cd7dbe06" x="57.44" y="206.0504" style="stroke: #000000; stroke-width: 0.8"/>
      </g>
     </g>
     <g id="text_18">
      <!-- 4400 -->
      <g transform="translate(24.99 209.849619) scale(0.1 -0.1)">
       <use xlink:href="#DejaVuSans-34"/>
       <use xlink:href="#DejaVuSans-34" transform="translate(63.623047 0)"/>
       <use xlink:href="#DejaVuSans-30" transform="translate(127.246094 0)"/>
       <use xlink:href="#DejaVuSans-30" transform="translate(190.869141 0)"/>
      </g>
     </g>
    </g>
    <g id="ytick_3">
     <g id="line2d_19">
      <g>
       <use xlink:href="#m85cd7dbe06" x="57.44" y="158.698047" style="stroke: #000000; stroke-width: 0.8"/>
      </g>
     </g>
     <g id="text_19">
      <!-- 4500 -->
      <g transform="translate(24.99 162.497265) scale(0.1 -0.1)">
       <use xlink:href="#DejaVuSans-34"/>
       <use xlink:href="#DejaVuSans-35" transform="translate(63.623047 0)"/>
       <use xlink:href="#DejaVuSans-30" transform="translate(127.246094 0)"/>
       <use xlink:href="#DejaVuSans-30" transform="translate(190.869141 0)"/>
      </g>
     </g>
    </g>
    <g id="ytick_4">
     <g id="line2d_20">
      <g>
       <use xlink:href="#m85cd7dbe06" x="57.44" y="111.345693" style="stroke: #000000; stroke-width: 0.8"/>
      </g>
     </g>
     <g id="text_20">
      <!-- 4600 -->
      <g transform="translate(24.99 115.144912) scale(0.1 -0.1)">
       <use xlink:href="#DejaVuSans-34"/>
       <use xlink:href="#DejaVuSans-36" transform="translate(63.623047 0)"/>
       <use xlink:href="#DejaVuSans-30" transform="translate(127.246094 0)"/>
       <use xlink:href="#DejaVuSans-30" transform="translate(190.869141 0)"/>
      </g>
     </g>
    </g>
    <g id="ytick_5">
     <g id="line2d_21">
      <g>
       <use xlink:href="#m85cd7dbe06" x="57.44" y="63.993339" style="stroke: #000000; stroke-width: 0.8"/>
      </g>
     </g>
     <g id="text_21">
      <!-- 4700 -->
      <g transform="translate(24.99 67.792558) scale(0.1 -0.1)">
       <use xlink:href="#DejaVuSans-34"/>
       <use xlink:href="#DejaVuSans-37" transform="translate(63.623047 0)"/>
       <use xlink:href="#DejaVuSans-30" transform="translate(127.246094 0)"/>
       <use xlink:href="#DejaVuSans-30" transform="translate(190.869141 0)"/>
      </g>
     </g>
    </g>
    <g id="text_22">
     <!-- Price -->
     <g transform="translate(18.910313 172.273656) rotate(-90) scale(0.1 -0.1)">
      <defs>
       <path id="DejaVuSans-50" d="M 1259 4147 
L 1259 2394 
L 2053 2394 
Q 2494 2394 2734 2622 
Q 2975 2850 2975 3272 
Q 2975 3691 2734 3919 
Q 2494 4147 2053 4147 
L 1259 4147 
z
M 628 4666 
L 2053 4666 
Q 2838 4666 3239 4311 
Q 3641 3956 3641 3272 
Q 3641 2581 3239 2228 
Q 2838 1875 2053 1875 
L 1259 1875 
L 1259 0 
L 628 0 
L 628 4666 
z
" transform="scale(0.015625)"/>
       <path id="DejaVuSans-72" d="M 2631 2963 
Q 2534 3019 2420 3045 
Q 2306 3072 2169 3072 
Q 1681 3072 1420 2755 
Q 1159 2438 1159 1844 
L 1159 0 
L 581 0 
L 581 3500 
L 1159 3500 
L 1159 2956 
Q 1341 3275 1631 3429 
Q 1922 3584 2338 3584 
Q 2397 3584 2469 3576 
Q 2541 3569 2628 3553 
L 2631 2963 
z
" transform="scale(0.015625)"/>
       <path id="DejaVuSans-63" d="M 3122 3366 
L 3122 2828 
Q 2878 2963 2633 3030 
Q 2388 3097 2138 3097 
Q 1578 3097 1268 2742 
Q 959 2388 959 1747 
Q 959 1106 1268 751 
Q 1578 397 2138 397 
Q 2388 397 2633 464 
Q 2878 531 3122 666 
L 3122 134 
Q 2881 22 2623 -34 
Q 2366 -91 2075 -91 
Q 1284 -91 818 406 
Q 353 903 353 1747 
Q 353 2603 823 3093 
Q 1294 3584 2113 3584 
Q 2378 3584 2631 3529 
Q 2884 3475 3122 3366 
z
" transform="scale(0.015625)"/>
      </defs>
      <use xlink:href="#DejaVuSans-50"/>
      <use xlink:href="#DejaVuSans-72" transform="translate(58.552734 0)"/>
      <use xlink:href="#DejaVuSans-69" transform="translate(99.666016 0)"/>
      <use xlink:href="#DejaVuSans-63" transform="translate(127.449219 0)"/>
      <use xlink:href="#DejaVuSans-65" transform="translate(182.429688 0)"/>
     </g>
    </g>
   </g>
   <g id="line2d_22">
    <path d="M 57.44 213.153253 
L 57.872074 219.138591 
L 58.304148 208.891541 
L 58.736222 208.777896 
L 59.168295 209.956969 
L 60.032443 195.273004 
L 60.464517 199.160633 
L 60.896591 208.418018 
L 61.328665 210.728813 
L 61.760739 217.168733 
L 62.192812 213.157988 
L 62.624886 217.055087 
L 63.05696 214.668528 
L 63.489034 210.804576 
L 63.921108 205.392202 
L 64.353182 204.407273 
L 64.785256 212.29144 
L 65.21733 217.017205 
L 65.649403 213.962978 
L 66.081477 219.148061 
L 66.513551 210.217407 
L 66.945625 204.677182 
L 67.377699 209.45977 
L 67.809773 212.064149 
L 68.67392 204.426214 
L 69.105994 208.342254 
L 69.538068 215.965983 
L 69.970142 197.029777 
L 70.402216 196.5894 
L 70.83429 177.307521 
L 71.266364 171.781502 
L 71.698437 175.020403 
L 72.562585 171.151716 
L 72.994659 168.362662 
L 73.426733 170.824984 
L 73.858807 177.705281 
L 74.290881 187.232575 
L 74.722955 186.455996 
L 75.155028 191.844694 
L 75.587102 205.969901 
L 76.019176 202.716794 
L 76.45125 205.671581 
L 76.883324 206.055135 
L 77.315398 214.711146 
L 77.747472 209.980645 
L 78.179545 206.760685 
L 78.611619 204.582477 
L 79.043693 207.944494 
L 80.339915 199.440012 
L 80.771989 213.068019 
L 81.204062 213.607836 
L 81.636136 207.84979 
L 82.06821 207.669851 
L 82.500284 210.88034 
L 82.932358 208.683191 
L 83.796506 220.535485 
L 84.22858 222.254376 
L 84.660653 225.128663 
L 85.092727 223.097247 
L 85.524801 224.991342 
L 85.956875 224.5557 
L 86.388949 227.77566 
L 86.821023 241.564665 
L 87.253097 245.404941 
L 87.68517 242.86212 
L 88.117244 243.506112 
L 88.549318 235.172098 
L 88.981392 233.832026 
L 89.413466 233.874643 
L 89.84554 232.094195 
L 90.277614 229.622402 
L 90.709687 230.692565 
L 91.141761 223.168276 
L 91.573835 222.154936 
L 92.005909 225.725303 
L 92.437983 230.673624 
L 92.870057 267.935191 
L 93.302131 259.904232 
L 93.734205 265.198225 
L 94.166278 267.499549 
L 94.598352 282.472364 
L 95.030426 272.73672 
L 95.4625 265.927451 
L 95.894574 267.139672 
L 96.326648 272.34843 
L 97.190795 252.31365 
L 97.622869 255.415229 
L 98.054943 254.297713 
L 98.487017 247.625767 
L 98.919091 252.981318 
L 99.351165 252.834526 
L 99.783239 257.744965 
L 100.215312 252.51253 
L 100.647386 253.0192 
L 101.07946 249.40148 
L 101.511534 239.197048 
L 101.943608 243.217262 
L 102.375682 241.290022 
L 102.807756 237.165632 
L 103.23983 237.402393 
L 104.103977 215.213081 
L 104.536051 221.203153 
L 104.968125 220.592308 
L 105.400199 222.803663 
L 105.832273 218.054222 
L 106.264347 217.216085 
L 106.69642 215.890219 
L 107.128494 213.153253 
L 107.560568 216.709415 
L 107.992642 216.183804 
L 108.424716 214.857938 
L 108.85679 214.195005 
L 109.288864 209.365065 
L 109.720937 210.468375 
L 110.153011 203.067202 
L 110.585085 201.163637 
L 111.017159 209.971175 
L 111.449233 208.616898 
L 112.313381 217.542816 
L 112.745455 220.649131 
L 113.177528 208.882071 
L 113.609602 205.216999 
L 114.041676 210.591491 
L 114.47375 206.036194 
L 114.905824 210.084821 
L 115.337898 208.05814 
L 115.769972 206.931154 
L 116.202045 208.588486 
L 116.634119 213.835127 
L 117.066193 214.105035 
L 117.498267 210.68146 
L 117.930341 217.50967 
L 118.362415 220.885893 
L 118.794489 219.114914 
L 119.658636 241.271081 
L 120.09071 236.602139 
L 120.522784 252.957642 
L 120.954858 264.866759 
L 121.819006 251.106165 
L 122.683153 216.955647 
L 123.115227 228.386505 
L 123.547301 220.355546 
L 123.979375 227.505752 
L 124.411449 231.473879 
L 124.843523 233.240122 
L 125.275597 237.416599 
L 125.70767 249.751887 
L 126.139744 256.617979 
L 126.571818 254.93697 
L 127.003892 262.38076 
L 127.435966 257.105708 
L 127.86804 255.936105 
L 128.300114 258.043284 
L 128.732187 249.496185 
L 129.164261 250.608965 
L 129.596335 244.874595 
L 130.028409 256.153925 
L 130.460483 258.46472 
L 130.892557 261.732033 
L 131.324631 255.973987 
L 131.756705 267.134936 
L 132.188778 268.569713 
L 132.620852 265.231372 
L 133.052926 266.429386 
L 133.485 256.111308 
L 133.917074 251.821185 
L 134.349148 245.826377 
L 134.781222 248.193995 
L 135.213295 243.307232 
L 135.645369 249.354128 
L 136.077443 240.925409 
L 136.509517 240.773881 
L 136.941591 242.251274 
L 137.373665 246.617161 
L 137.805739 241.195317 
L 138.237812 240.470826 
L 138.669886 238.927139 
L 139.10196 245.040328 
L 139.534034 245.807436 
L 139.966108 241.886661 
L 140.398182 245.158709 
L 140.830256 241.417873 
L 141.694403 249.704535 
L 142.126477 257.517673 
L 142.558551 260.614517 
L 142.990625 258.947714 
L 143.422699 242.251274 
L 143.854773 245.679585 
L 144.286847 228.561709 
L 144.71892 233.533706 
L 145.150994 236.067057 
L 145.583068 241.564665 
L 146.015142 239.670571 
L 146.447216 240.977496 
L 146.87929 237.587068 
L 147.311364 244.221132 
L 147.743437 240.238799 
L 148.607585 235.214715 
L 149.039659 237.516039 
L 149.471733 242.251274 
L 149.903807 243.297761 
L 150.335881 246.816041 
L 150.767955 251.503924 
L 151.200028 245.958964 
L 151.632102 248.610696 
L 152.064176 250.528466 
L 152.49625 251.101429 
L 152.928324 253.222815 
L 153.360398 248.757488 
L 153.792472 249.273629 
L 154.224545 242.97103 
L 154.656619 243.709727 
L 155.088693 241.962425 
L 155.520767 245.603821 
L 155.952841 251.698069 
L 156.384915 244.599951 
L 156.816989 235.31889 
L 157.681136 225.464865 
L 158.11321 221.728764 
L 158.545284 223.973266 
L 158.977358 220.317664 
L 159.409432 217.82693 
L 159.841506 219.645261 
L 160.27358 215.520871 
L 160.705653 220.445516 
L 161.137727 223.528154 
L 161.569801 222.671076 
L 162.001875 229.878104 
L 162.433949 228.675355 
L 162.866023 217.703814 
L 163.298097 218.144191 
L 163.73017 197.238127 
L 164.162244 198.0005 
L 164.594318 197.399125 
L 165.026392 188.089652 
L 165.458466 170.067347 
L 165.89054 175.309252 
L 166.754687 180.428042 
L 167.186761 173.396217 
L 167.618835 169.560676 
L 168.050909 173.121573 
L 168.482983 180.077634 
L 168.915057 180.603245 
L 169.347131 175.27137 
L 169.779205 167.837051 
L 170.211278 169.115564 
L 170.643352 173.8508 
L 171.075426 172.681197 
L 171.5075 171.151716 
L 171.939574 173.902887 
L 172.371648 177.823662 
L 172.803722 174.144384 
L 173.235795 176.360474 
L 173.667869 177.67687 
L 174.099943 175.716482 
L 174.532017 171.251155 
L 175.396165 174.622643 
L 175.828239 175.257165 
L 176.260312 176.516737 
L 176.692386 175.06302 
L 177.12446 172.984252 
L 177.556534 180.252838 
L 177.988608 178.112511 
L 178.420682 174.423763 
L 178.852756 177.402226 
L 179.716903 174.040209 
L 180.148977 178.268774 
L 180.581051 177.1702 
L 181.013125 184.140466 
L 181.445199 183.179213 
L 182.309347 172.34026 
L 182.74142 174.224883 
L 183.173494 174.580026 
L 183.605568 180.953653 
L 184.469716 176.540413 
L 184.90179 174.561085 
L 185.333864 178.207216 
L 185.765937 187.5451 
L 186.198011 193.497291 
L 186.630085 196.584665 
L 187.062159 202.257477 
L 187.494233 201.537721 
L 187.926307 207.470971 
L 188.358381 207.518323 
L 188.790455 205.330644 
L 189.222528 206.523924 
L 189.654602 204.000043 
L 190.51875 217.036146 
L 190.950824 218.347806 
L 191.382898 222.476932 
L 191.814972 218.073163 
L 192.247045 217.329731 
L 193.111193 225.46013 
L 193.543267 222.993072 
L 193.975341 216.572093 
L 194.407415 221.790322 
L 194.839489 222.694752 
L 195.271562 220.412369 
L 195.703636 214.981054 
L 196.13571 211.548008 
L 196.567784 218.077898 
L 196.999858 221.231565 
L 197.431932 214.602235 
L 197.864006 215.804985 
L 198.29608 212.840728 
L 198.728153 209.090421 
L 199.160227 202.191183 
L 199.592301 202.252741 
L 200.024375 196.584665 
L 200.456449 203.559666 
L 200.888523 194.57219 
L 201.320597 199.989299 
L 201.75267 197.465418 
L 202.184744 203.678047 
L 202.616818 198.767608 
L 203.048892 199.989299 
L 203.480966 211.727947 
L 203.91304 199.283749 
L 204.345114 207.944494 
L 204.777187 206.197192 
L 205.209261 214.857938 
L 205.641335 217.239761 
L 206.073409 236.010234 
L 206.505483 229.726577 
L 206.937557 227.519957 
L 207.369631 234.409725 
L 207.801705 248.246082 
L 208.233778 251.347662 
L 208.665852 252.450971 
L 209.097926 252.185798 
L 209.53 250.481114 
L 209.962074 259.506472 
L 210.394148 252.152652 
L 210.826222 255.860341 
L 211.690369 245.58488 
L 212.122443 252.858202 
L 212.554517 251.788038 
L 212.986591 249.590889 
L 213.418665 263.720832 
L 213.850739 254.477652 
L 214.282812 266.722971 
L 214.714886 262.328672 
L 215.14696 262.967929 
L 215.579034 265.051433 
L 216.011108 265.614926 
L 216.443182 256.04975 
L 216.875256 251.878008 
L 217.30733 254.03254 
L 217.739403 251.721745 
L 218.171477 252.687733 
L 218.603551 248.563343 
L 219.035625 246.29043 
L 219.899773 244.405807 
L 220.331847 241.375256 
L 220.76392 245.840583 
L 221.195994 234.850102 
L 222.060142 239.102343 
L 222.492216 245.963699 
L 222.92429 255.723019 
L 223.356364 253.781573 
L 224.220511 251.158252 
L 224.652585 253.753161 
L 225.084659 251.622305 
L 225.516733 243.932283 
L 225.948807 238.983962 
L 226.380881 241.730399 
L 226.812955 242.15657 
L 227.245028 242.852649 
L 227.677102 249.387274 
L 228.109176 242.847914 
L 228.54125 251.503924 
L 228.973324 253.601634 
L 229.837472 240.617618 
L 230.269545 245.89267 
L 230.701619 244.37266 
L 231.133693 241.375256 
L 231.565767 239.845775 
L 231.997841 237.345571 
L 232.429915 238.283147 
L 232.861989 236.23279 
L 233.294062 236.199644 
L 233.726136 237.203514 
L 234.15821 241.701987 
L 234.590284 239.069196 
L 235.022358 238.766141 
L 235.454432 227.770925 
L 235.886506 219.773112 
L 236.750653 199.00437 
L 237.182727 207.281561 
L 237.614801 208.725808 
L 238.046875 207.66038 
L 238.478949 204.071072 
L 238.911023 208.418018 
L 239.343097 217.088234 
L 239.77517 208.418018 
L 240.207244 208.200197 
L 241.503466 199.984564 
L 241.93554 202.172242 
L 242.367614 200.917405 
L 242.799687 197.995765 
L 243.231761 196.679369 
L 243.663835 198.630286 
L 244.095909 198.00997 
L 244.527983 182.961393 
L 244.960057 190.712973 
L 245.392131 173.140514 
L 245.824205 178.912766 
L 246.256278 176.535678 
L 246.688352 177.98466 
L 247.120426 186.380232 
L 247.5525 205.889402 
L 247.984574 243.56767 
L 248.416648 258.469456 
L 248.848722 266.846087 
L 249.280795 260.481931 
L 250.144943 252.450971 
L 250.577017 262.399701 
L 251.009091 256.821594 
L 251.441165 260.268845 
L 251.873239 254.520269 
L 252.305312 255.580962 
L 253.601534 264.052298 
L 254.033608 258.995067 
L 254.465682 260.647664 
L 254.897756 255.296848 
L 255.761903 248.378669 
L 256.193977 245.352854 
L 256.626051 240.849645 
L 257.058125 244.983505 
L 257.490199 239.646895 
L 257.922273 240.295622 
L 258.354347 241.990837 
L 258.78642 235.711914 
L 259.218494 236.261202 
L 259.650568 238.818229 
L 260.082642 252.834526 
L 260.514716 248.866398 
L 260.94679 255.846135 
L 261.378864 253.398019 
L 261.810937 253.402754 
L 262.243011 246.375664 
L 262.675085 248.193995 
L 263.107159 249.027396 
L 263.539233 248.667518 
L 263.971307 249.420421 
L 264.835455 251.967977 
L 265.267528 246.574544 
L 265.699602 242.720063 
L 266.131676 243.553464 
L 266.56375 243.411407 
L 266.995824 246.768689 
L 267.427898 244.68045 
L 267.859972 245.608556 
L 268.292045 249.515126 
L 268.724119 249.661918 
L 269.156193 248.369199 
L 269.588267 243.4777 
L 270.020341 245.78376 
L 270.452415 244.187986 
L 271.316562 244.784625 
L 271.748636 248.946897 
L 272.18071 250.362733 
L 272.612784 251.371338 
L 273.044858 249.728211 
L 273.476932 249.141042 
L 273.909006 255.296848 
L 274.34108 256.035545 
L 274.773153 256.513803 
L 275.205227 253.748426 
L 275.637301 253.222815 
L 276.069375 252.92923 
L 276.501449 253.213344 
L 276.933523 250.561613 
L 277.365597 251.982183 
L 277.79767 249.619301 
L 278.229744 248.539667 
L 278.661818 251.001989 
L 279.093892 250.902549 
L 279.525966 248.752753 
L 279.95804 249.377804 
L 280.390114 255.377347 
L 280.822187 257.579231 
L 281.254261 254.903823 
L 281.686335 257.522409 
L 282.118409 256.670066 
L 282.550483 257.015738 
L 282.982557 252.739821 
L 283.414631 253.568487 
L 283.846705 256.206013 
L 284.278778 255.917164 
L 284.710852 256.243895 
L 285.142926 254.212479 
L 285.575 252.92923 
L 286.439148 255.737225 
L 286.871222 254.349801 
L 287.303295 254.548681 
L 287.735369 254.397153 
L 288.167443 257.157795 
L 288.599517 257.006268 
L 289.031591 256.035545 
L 289.463665 255.358406 
L 289.895739 254.174597 
L 290.327812 256.026074 
L 290.759886 267.267523 
L 291.19196 264.18962 
L 291.624034 265.477604 
L 292.056108 268.555507 
L 292.488182 268.10566 
L 292.920256 273.290742 
L 293.784403 259.317063 
L 294.216477 260.415637 
L 295.080625 269.535701 
L 295.512699 267.134936 
L 295.944773 262.456524 
L 296.80892 267.864163 
L 297.240994 264.459528 
L 297.673068 267.082849 
L 298.105142 271.628675 
L 298.537216 273.072921 
L 298.96929 275.222718 
L 299.401364 272.277402 
L 299.833437 270.923125 
L 300.697585 264.066504 
L 301.129659 266.424651 
L 301.561733 266.472003 
L 301.993807 267.215435 
L 302.425881 262.546493 
L 302.857955 264.364824 
L 303.290028 265.236107 
L 303.722102 266.453062 
L 304.154176 264.862023 
L 305.018324 263.725567 
L 305.450398 265.936922 
L 305.882472 266.850822 
L 306.314545 264.450058 
L 306.746619 266.348887 
L 307.178693 261.26798 
L 307.610767 261.713092 
L 308.042841 258.137989 
L 308.474915 257.546085 
L 308.906989 255.580962 
L 309.771136 257.290382 
L 310.20321 256.352805 
L 310.635284 256.807388 
L 311.067358 254.506064 
L 311.499432 256.343335 
L 311.931506 252.735086 
L 312.36358 255.495728 
L 312.795653 255.528874 
L 313.227727 257.536614 
L 313.659801 256.243895 
L 314.091875 256.717419 
L 314.523949 253.828925 
L 314.956023 254.468182 
L 315.388097 253.331725 
L 315.82017 256.722154 
L 316.252244 256.902093 
L 316.684318 258.649395 
L 317.116392 258.706217 
L 317.548466 260.742369 
L 317.98054 261.926177 
L 318.412614 261.16854 
L 319.276761 254.72862 
L 319.708835 256.717419 
L 320.572983 250.088089 
L 321.005057 252.450971 
L 321.437131 253.705809 
L 321.869205 251.267163 
L 322.301278 253.776837 
L 322.733352 257.001533 
L 323.5975 251.82592 
L 324.029574 254.468182 
L 324.893722 252.072153 
L 325.325795 251.314515 
L 325.757869 252.682998 
L 326.189943 251.769098 
L 326.622017 249.40148 
L 327.054091 254.297713 
L 327.486165 255.983457 
L 327.918239 255.386817 
L 328.350312 253.9331 
L 328.782386 256.021339 
L 329.21446 255.202143 
L 330.078608 252.029535 
L 330.942756 254.051481 
L 331.37483 249.235747 
L 331.806903 254.387683 
L 332.238977 255.708813 
L 332.671051 254.387683 
L 333.103125 252.299444 
L 333.967273 256.921034 
L 334.399347 258.706217 
L 334.83142 258.422103 
L 335.695568 264.918846 
L 336.127642 266.609325 
L 336.559716 262.08244 
L 336.99179 266.026891 
L 337.423864 263.810801 
L 337.855937 265.804335 
L 338.288011 265.027757 
L 338.720085 263.067369 
L 339.152159 264.79573 
L 339.584233 262.873224 
L 340.016307 256.073426 
L 340.448381 257.309323 
L 340.880455 262.967929 
L 341.312528 261.073835 
L 341.744602 260.221493 
L 342.176676 254.089363 
L 342.60875 255.372612 
L 343.040824 259.804792 
L 343.472898 258.620983 
L 343.904972 259.894761 
L 344.769119 252.327855 
L 345.201193 253.33646 
L 346.065341 246.773424 
L 346.497415 240.84491 
L 346.929489 242.682181 
L 347.361562 251.461307 
L 347.793636 252.275768 
L 348.22571 246.247813 
L 348.657784 248.624901 
L 349.089858 254.657591 
L 349.954006 260.17414 
L 350.38608 258.137989 
L 350.818153 257.65973 
L 351.250227 257.953315 
L 351.682301 260.311462 
L 352.114375 252.834526 
L 352.546449 249.946032 
L 352.978523 250.30591 
L 353.410597 249.685594 
L 353.84267 246.048933 
L 354.274744 248.667518 
L 354.706818 251.982183 
L 355.138892 251.532336 
L 355.570966 252.555147 
L 356.00304 255.258966 
L 356.435114 255.566756 
L 356.867187 255.401023 
L 357.299261 259.009272 
L 357.731335 255.562021 
L 358.163409 256.95418 
L 358.595483 253.322255 
L 359.027557 254.23142 
L 359.459631 258.029079 
L 360.323778 251.50866 
L 360.755852 256.267571 
L 361.187926 257.806523 
L 361.62 257.726024 
L 362.052074 256.603773 
L 362.484148 253.061817 
L 362.916222 253.180198 
L 363.348295 246.077345 
L 363.780369 244.505247 
L 364.212443 248.023526 
L 364.644517 244.860389 
L 365.076591 242.753209 
L 365.508665 238.84664 
L 365.940739 237.828565 
L 366.372812 240.617618 
L 366.804886 244.675715 
L 367.23696 252.095829 
L 367.669034 251.035136 
L 368.101108 248.444962 
L 368.533182 250.30591 
L 369.39733 244.131163 
L 369.829403 244.642568 
L 370.261477 226.113592 
L 370.693551 235.172098 
L 371.125625 238.53885 
L 371.557699 244.765684 
L 371.989773 241.327904 
L 372.421847 233.860437 
L 372.85392 233.533706 
L 373.285994 230.285335 
L 373.718068 224.427849 
L 374.150142 215.71028 
L 374.582216 220.260841 
L 375.01429 220.256106 
L 375.446364 226.681821 
L 375.878437 223.016748 
L 376.310511 231.776934 
L 377.174659 239.599543 
L 377.606733 234.878513 
L 378.470881 248.856928 
L 378.902955 245.419147 
L 379.335028 240.532384 
L 379.767102 241.266346 
L 380.199176 239.964156 
L 380.63125 247.218536 
L 381.063324 248.738547 
L 381.495398 257.285647 
L 381.927472 257.190942 
L 382.791619 260.249904 
L 383.223693 259.421238 
L 383.655767 254.543945 
L 384.087841 252.645116 
L 384.519915 250.135441 
L 384.951989 249.373068 
L 385.384062 243.520318 
L 385.816136 242.568535 
L 386.24821 245.06874 
L 386.680284 246.574544 
L 387.112358 248.648577 
L 387.544432 247.010186 
L 387.976506 252.218945 
L 388.40858 253.828925 
L 388.840653 250.959372 
L 389.272727 249.893944 
L 389.704801 253.73422 
L 390.136875 253.881013 
L 390.568949 252.825055 
L 391.001023 254.472917 
L 391.433097 258.137989 
L 391.86517 256.243895 
L 392.297244 259.781116 
L 392.729318 261.926177 
L 393.161392 260.642929 
L 393.593466 258.6636 
L 394.02554 258.081166 
L 394.889687 253.099699 
L 395.321761 253.161257 
L 395.753835 250.798374 
L 396.185909 252.147916 
L 396.617983 248.463903 
L 397.050057 249.169453 
L 397.482131 247.48371 
L 397.914205 250.859932 
L 398.346278 250.466908 
L 398.778352 248.672254 
L 399.210426 245.08768 
L 399.6425 234.035641 
L 400.074574 232.340427 
L 400.506648 225.237574 
L 400.938722 223.035689 
L 401.370795 218.840271 
L 401.802869 219.882023 
L 402.234943 227.643073 
L 402.667017 224.86349 
L 403.099091 226.885436 
L 403.963239 224.920313 
L 404.395312 225.753714 
L 404.827386 227.311607 
L 405.25946 222.633194 
L 406.123608 226.904377 
L 406.555682 226.184621 
L 406.987756 231.933197 
L 407.41983 226.132533 
L 407.851903 230.929327 
L 408.283977 229.887575 
L 408.716051 228.021892 
L 409.148125 229.025762 
L 409.580199 231.312881 
L 410.444347 222.434314 
L 410.87642 230.957738 
L 411.308494 232.335692 
L 411.740568 234.883248 
L 412.172642 233.969348 
L 412.604716 226.67235 
L 413.468864 236.772607 
L 413.900937 243.042059 
L 414.333011 257.314058 
L 414.765085 251.144046 
L 415.197159 257.583967 
L 415.629233 258.095372 
L 416.061307 263.550363 
L 416.493381 260.737633 
L 416.925455 256.24863 
L 417.357528 259.852144 
L 417.789602 261.921442 
L 418.221676 259.416503 
L 418.65375 257.972256 
L 419.085824 261.17801 
L 419.517898 260.079436 
L 419.949972 260.401432 
L 420.382045 260.510342 
L 420.814119 258.341604 
L 421.246193 261.769915 
L 422.110341 257.995932 
L 422.542415 255.8414 
L 422.974489 257.380351 
L 423.406562 256.300718 
L 423.838636 259.615383 
L 424.27071 261.16854 
L 424.702784 259.852144 
L 425.134858 251.305044 
L 425.566932 246.920217 
L 425.999006 254.13198 
L 426.43108 252.474648 
L 426.863153 252.503059 
L 427.295227 246.972304 
L 427.727301 249.496185 
L 428.159375 246.636102 
L 428.591449 244.789361 
L 429.023523 247.720471 
L 429.455597 249.889209 
L 429.88767 246.304636 
L 430.319744 248.875869 
L 430.751818 248.667518 
L 431.183892 254.671797 
L 431.615966 253.994658 
L 432.04804 260.37302 
L 432.480114 257.446645 
L 432.912187 252.886613 
L 433.344261 251.911155 
L 433.776335 252.308914 
L 434.208409 247.550003 
L 434.640483 244.926682 
L 435.072557 243.439819 
L 435.504631 245.390736 
L 435.936705 244.704126 
L 436.368778 248.478109 
L 436.800852 247.966704 
L 437.232926 243.951224 
L 437.665 245.206061 
L 438.097074 245.963699 
L 438.529148 248.568078 
L 438.961222 247.819911 
L 439.393295 248.667518 
L 440.257443 245.632233 
L 441.121591 254.042011 
L 441.553665 249.169453 
L 441.985739 246.820777 
L 442.417812 247.616296 
L 442.849886 244.940888 
L 443.28196 239.012373 
L 443.714034 242.05713 
L 444.146108 240.030449 
L 444.578182 238.628819 
L 445.010256 240.25774 
L 445.44233 240.243535 
L 445.874403 239.14496 
L 446.306477 245.116092 
L 446.738551 243.922813 
L 447.170625 243.506112 
L 447.602699 242.383861 
L 448.034773 243.065735 
L 448.466847 240.1583 
L 448.89892 239.874186 
L 449.330994 241.318433 
L 449.763068 238.780347 
L 450.627216 242.208657 
L 451.05929 239.211253 
L 451.491364 238.235795 
L 451.923437 232.965478 
L 452.355511 216.396889 
L 452.787585 220.279782 
L 453.219659 214.147653 
L 453.651733 220.256106 
L 454.083807 212.447703 
L 454.515881 198.033647 
L 454.947955 189.9506 
L 455.380028 194.998361 
L 455.812102 197.062923 
L 456.244176 206.14984 
L 456.67625 195.850703 
L 457.108324 203.7254 
L 457.540398 202.304829 
L 457.972472 204.317304 
L 458.404545 214.569089 
L 458.836619 219.067562 
L 459.268693 218.764507 
L 459.700767 213.446838 
L 460.132841 210.255289 
L 460.564915 231.052443 
L 461.429062 222.628459 
L 461.861136 225.606922 
L 462.29321 236.93834 
L 462.725284 234.229786 
L 463.157358 234.395519 
L 464.021506 249.704535 
L 464.45358 247.171184 
L 465.317727 238.775612 
L 465.749801 239.575866 
L 466.181875 240.04939 
L 466.613949 239.798423 
L 467.046023 235.361507 
L 467.478097 238.297353 
L 467.91017 230.943532 
L 468.774318 229.380905 
L 469.638466 234.736456 
L 470.07054 232.236252 
L 470.502614 231.559113 
L 470.934687 232.884979 
L 471.366761 232.316751 
L 471.798835 230.678359 
L 472.230909 235.408859 
L 472.662983 231.625406 
L 473.095057 231.653818 
L 473.527131 225.933653 
L 473.959205 216.136451 
L 474.391278 220.251371 
L 474.823352 222.618989 
L 475.255426 223.25351 
L 475.6875 218.62245 
L 476.119574 220.23243 
L 476.551648 215.31252 
L 476.983722 217.727491 
L 477.415795 216.71415 
L 477.847869 209.137774 
L 478.279943 211.566949 
L 478.712017 204.762416 
L 479.144091 205.576877 
L 479.576165 200.150297 
L 480.008239 199.335836 
L 480.440312 201.182578 
L 480.872386 204.525654 
L 481.30446 203.531255 
L 481.736534 199.075398 
L 482.168608 197.768473 
L 482.600682 197.740062 
L 483.032756 193.966079 
L 483.46483 188.9562 
L 483.896903 187.838685 
L 484.328977 185.575242 
L 484.761051 189.240315 
L 485.193125 187.251516 
L 485.625199 187.786597 
L 486.057273 191.016028 
L 486.489347 193.175295 
L 486.92142 189.183492 
L 487.353494 191.991486 
L 487.785568 197.517506 
L 488.217642 198.942812 
L 488.649716 201.315165 
L 489.08179 198.743932 
L 489.513864 193.847699 
L 489.945937 195.495561 
L 490.378011 196.650958 
L 491.242159 190.56618 
L 491.674233 193.738788 
L 492.106307 189.917453 
L 492.538381 192.550244 
L 493.402528 171.824119 
L 493.834602 199.904065 
L 494.266676 194.387515 
L 494.69875 210.312112 
L 495.130824 203.441285 
L 495.562898 206.978506 
L 495.994972 189.022494 
L 496.427045 201.424075 
L 496.859119 202.626825 
L 497.291193 192.678095 
L 497.723267 194.207576 
L 498.155341 197.110276 
L 499.019489 201.381458 
L 499.451562 200.91267 
L 499.883636 197.167099 
L 500.31571 201.315165 
L 500.747784 198.260938 
L 501.179858 198.365113 
L 501.611932 192.105132 
L 502.044006 193.705642 
L 502.47608 189.623869 
L 502.908153 190.973411 
L 503.772301 198.819696 
L 504.204375 195.609206 
L 504.636449 197.261803 
L 505.068523 199.894594 
L 505.500597 195.808086 
L 505.93267 194.387515 
L 506.364744 195.434002 
L 506.796818 199.350042 
L 507.228892 197.635887 
L 507.660966 199.046987 
L 508.09304 198.474024 
L 508.525114 197.025042 
L 508.957187 197.512771 
L 509.389261 195.774939 
L 509.821335 192.933798 
L 510.253409 193.738788 
L 510.685483 185.949326 
L 511.549631 181.61185 
L 511.981705 175.730688 
L 512.413778 177.714752 
L 513.71 180.011341 
L 514.142074 176.691941 
L 514.574148 155.151355 
L 515.006222 153.42773 
L 515.438295 144.497076 
L 516.302443 153.015764 
L 516.734517 160.255939 
L 517.166591 154.909858 
L 517.598665 152.149216 
L 518.030739 152.210774 
L 518.894886 158.224523 
L 519.32696 158.328698 
L 519.759034 160.5732 
L 520.191108 156.429869 
L 520.623182 154.654156 
L 521.055256 150.657617 
L 521.919403 149.360162 
L 522.351477 151.244786 
L 522.783551 149.81948 
L 523.215625 145.524622 
L 523.647699 131.816115 
L 524.079773 136.754966 
L 524.511847 137.569426 
L 525.375994 140.614183 
L 525.808068 137.304253 
L 526.240142 140.585771 
L 526.672216 145.150538 
L 527.10429 146.556903 
L 527.536364 146.855223 
L 527.968437 148.81561 
L 528.400511 149.952067 
L 528.832585 150.349827 
L 529.264659 147.807005 
L 529.696733 150.454002 
L 530.128807 150.184093 
L 530.560881 151.434195 
L 530.992955 150.648146 
L 531.425028 153.318819 
L 531.857102 153.058381 
L 532.72125 148.990814 
L 533.153324 142.451454 
L 533.585398 146.703695 
L 534.017472 149.047637 
L 534.449545 153.13888 
L 534.881619 149.966273 
L 535.313693 150.245651 
L 535.745767 146.646873 
L 536.609915 150.288269 
L 537.041989 151.831955 
L 537.474062 140.325333 
L 537.906136 137.394223 
L 538.33821 131.285769 
L 538.770284 146.983074 
L 539.202358 136.920699 
L 539.634432 143.308532 
L 540.066506 143.895701 
L 540.49858 139.76184 
L 540.930653 139.283582 
L 541.362727 136.423499 
L 541.794801 126.342183 
L 542.226875 131.162653 
L 542.658949 123.586276 
L 543.091023 122.932814 
L 543.523097 117.032711 
L 543.95517 103.584642 
L 544.387244 105.890702 
L 544.819318 106.35002 
L 545.251392 104.512748 
L 545.683466 104.815803 
L 546.11554 100.175273 
L 546.547614 102.557096 
L 546.979687 98.091769 
L 547.843835 84.392733 
L 548.275909 91.490851 
L 548.707983 90.543804 
L 549.140057 80.661368 
L 549.572131 78.042783 
L 550.004205 78.521041 
L 550.868352 87.626899 
L 551.300426 87.669516 
L 551.7325 81.101745 
L 552.164574 56.445374 
L 552.596648 64.983003 
L 553.028722 66.171548 
L 553.460795 73.67216 
L 553.892869 60.673939 
L 554.324943 66.072108 
L 554.757017 58.401026 
L 555.189091 64.41951 
L 555.621165 64.495274 
L 556.053239 63.491404 
L 556.485312 61.270579 
L 556.917386 53.75576 
L 557.34946 57.6718 
L 557.781534 58.225823 
L 558.213608 63.945987 
L 558.645682 59.670069 
L 559.077756 60.029947 
L 559.50983 61.876689 
L 559.941903 62.30286 
L 560.806051 51.998988 
L 561.238125 42.116552 
L 561.670199 37.679636 
L 562.102273 45.611156 
L 562.534347 47.363193 
L 562.96642 41.827703 
L 563.398494 44.171644 
L 564.262642 53.481117 
L 564.694716 52.202603 
L 565.12679 52.770831 
L 565.558864 50.256421 
L 565.990937 56.393287 
L 566.423011 57.150924 
L 566.855085 58.500466 
L 567.719233 54.821188 
L 568.583381 58.495731 
L 569.015455 55.119508 
L 569.447528 55.526738 
L 570.311676 49.257287 
L 570.74375 50.564212 
L 571.175824 53.840995 
L 571.607898 51.558611 
L 572.039972 48.367063 
L 572.472045 47.311105 
L 572.904119 54.063551 
L 573.336193 54.522869 
L 573.768267 55.398887 
L 574.200341 58.614112 
L 574.632415 57.179336 
L 575.064489 52.150516 
L 575.928636 55.900822 
L 576.36071 55.053215 
L 576.792784 52.799243 
L 577.224858 54.371341 
L 577.656932 54.286107 
L 578.089006 52.392013 
L 578.52108 58.121647 
L 578.953153 70.684227 
L 579.385227 71.162486 
L 579.817301 63.30673 
L 580.249375 65.470733 
L 580.681449 69.197363 
L 581.113523 66.247311 
L 581.545597 72.55938 
L 581.97767 84.42588 
L 582.409744 85.145636 
L 582.841818 94.867074 
L 583.273892 92.149049 
L 583.705966 93.517532 
L 584.13804 99.52181 
L 584.570114 107.159745 
L 585.434261 94.743958 
L 585.866335 94.658723 
L 586.298409 90.321248 
L 586.730483 87.84472 
L 587.594631 90.302307 
L 588.026705 92.054344 
L 588.458778 90.591156 
L 588.890852 89.667785 
L 589.322926 92.641513 
L 589.755 83.298894 
L 590.187074 84.255411 
L 590.619148 86.414679 
L 591.051222 83.497774 
L 591.483295 82.654902 
L 591.915369 80.936011 
L 592.347443 82.342376 
L 592.779517 80.632956 
L 593.211591 81.381124 
L 593.643665 83.635096 
L 594.075739 84.402204 
L 594.507812 82.787488 
L 594.939886 79.70485 
L 595.37196 82.30923 
L 595.804034 82.569668 
L 596.236108 79.146092 
L 596.668182 74.410857 
L 597.100256 75.391051 
L 597.53233 78.582599 
L 597.964403 77.678169 
L 598.396477 84.567937 
L 599.260625 79.543852 
L 599.692699 76.096601 
L 600.124773 68.255051 
L 600.556847 72.227914 
L 600.98892 73.46381 
L 601.420994 71.432394 
L 601.853068 74.922262 
L 602.285142 75.892986 
L 602.717216 75.88825 
L 603.14929 80.571398 
L 603.581364 83.82924 
L 604.013437 82.882193 
L 604.445511 79.146092 
L 604.877585 82.460757 
L 605.741733 74.216712 
L 606.173807 75.575725 
L 606.605881 74.619207 
L 607.037955 77.384585 
L 607.470028 77.057854 
L 607.902102 81.030716 
L 608.334176 78.871449 
L 608.76625 81.580003 
L 609.198324 79.221856 
L 609.630398 82.181378 
L 610.062472 86.24421 
L 610.494545 84.482703 
L 610.926619 83.303629 
L 611.358693 80.595074 
L 611.790767 83.980768 
L 612.222841 81.665238 
L 612.654915 78.516306 
L 613.086989 77.725522 
L 614.38321 82.934281 
L 615.247358 82.029851 
L 615.679432 80.79869 
L 616.111506 91.220943 
L 616.54358 95.264834 
L 616.975653 93.740088 
L 617.407727 93.749558 
L 617.839801 90.250219 
L 618.271875 97.139987 
L 618.703949 94.862339 
L 619.568097 102.822269 
L 620.00017 100.175273 
L 620.432244 104.432249 
L 620.864318 95.103836 
L 621.296392 103.366821 
L 621.728466 114.196305 
L 622.16054 109.712037 
L 622.592614 116.21825 
L 623.024687 115.948342 
L 623.456761 116.890653 
L 623.888835 118.888923 
L 624.320909 115.782608 
L 624.752983 107.036629 
L 625.185057 106.804602 
L 625.617131 111.847628 
L 626.049205 107.652209 
L 626.481278 102.13566 
L 626.913352 98.773643 
L 627.345426 100.847676 
L 627.7775 101.922575 
L 628.209574 104.943655 
L 629.073722 108.433523 
L 629.937869 100.549356 
L 630.369943 100.071097 
L 630.802017 102.789123 
L 631.234091 98.025476 
L 631.666165 100.198949 
L 632.098239 99.034081 
L 632.530312 102.192483 
L 632.962386 102.083573 
L 633.39446 103.182147 
L 633.826534 93.901086 
L 634.258608 95.99406 
L 634.690682 101.108114 
L 635.122756 100.880823 
L 635.55483 95.709946 
L 635.986903 96.761168 
L 636.418977 104.266516 
L 636.851051 105.393502 
L 637.283125 107.529093 
L 637.715199 108.452464 
L 638.147273 111.369369 
L 638.579347 103.560966 
L 639.01142 109.607862 
L 639.443494 109.854094 
L 639.875568 117.804554 
L 640.307642 109.077515 
L 640.739716 102.798593 
L 641.17179 102.201953 
L 641.603864 100.099509 
L 642.035937 102.609184 
L 642.468011 100.928175 
L 642.900085 100.956587 
L 643.332159 95.553683 
L 643.764233 96.666463 
L 644.196307 96.789579 
L 645.492528 88.332449 
L 645.924602 89.757755 
L 646.356676 90.737949 
L 646.78875 87.342785 
L 647.220824 82.673843 
L 647.652898 84.165442 
L 648.084972 81.575268 
L 648.517045 80.10261 
L 649.381193 92.163254 
L 649.813267 96.775374 
L 650.245341 92.87354 
L 650.677415 98.768908 
L 651.109489 107.642739 
L 651.541562 112.008626 
L 651.973636 127.407611 
L 652.40571 129.557408 
L 652.837784 132.905219 
L 653.269858 153.541375 
L 653.701932 150.184093 
L 654.134006 144.98007 
L 654.56608 145.98394 
L 654.998153 146.386435 
L 655.430227 154.346365 
L 655.862301 149.606395 
L 657.158523 142.228898 
L 657.590597 145.093715 
L 658.02267 143.37009 
L 658.454744 144.624927 
L 658.886818 144.478135 
L 659.318892 151.92666 
L 659.750966 145.58618 
L 660.18304 151.680428 
L 660.615114 147.082514 
L 661.047187 145.571974 
L 661.479261 160.118617 
L 661.911335 151.533635 
L 662.343409 153.887047 
L 662.775483 145.912911 
L 663.207557 146.651608 
L 663.639631 153.915459 
L 664.935852 168.613629 
L 665.367926 159.218922 
L 665.8 156.661895 
L 665.8 156.661895 
" clip-path="url(#p3ffb141fd1)" style="fill: none; stroke: #1f77b4; stroke-width: 1.5; stroke-linecap: square"/>
   </g>
   <g id="patch_3">
    <path d="M 57.44 294.712 
L 57.44 25.44 
" style="fill: none; stroke: #000000; stroke-width: 0.8; stroke-linejoin: miter; stroke-linecap: square"/>
   </g>
   <g id="patch_4">
    <path d="M 665.8 294.712 
L 665.8 25.44 
" style="fill: none; stroke: #000000; stroke-width: 0.8; stroke-linejoin: miter; stroke-linecap: square"/>
   </g>
   <g id="patch_5">
    <path d="M 57.44 294.712 
L 665.8 294.712 
" style="fill: none; stroke: #000000; stroke-width: 0.8; stroke-linejoin: miter; stroke-linecap: square"/>
   </g>
   <g id="patch_6">
    <path d="M 57.44 25.44 
L 665.8 25.44 
" style="fill: none; stroke: #000000; stroke-width: 0.8; stroke-linejoin: miter; stroke-linecap: square"/>
   </g>
   <g id="text_23">
    <!-- MA+Breakout Backtest -->
    <g transform="translate(292.415625 19.44) scale(0.12 -0.12)">
     <defs>
      <path id="DejaVuSans-4d" d="M 628 4666 
L 1569 4666 
L 2759 1491 
L 3956 4666 
L 4897 4666 
L 4897 0 
L 4281 0 
L 4281 4097 
L 3078 897 
L 2444 897 
L 1241 4097 
L 1241 0 
L 628 0 
L 628 4666 
z
" transform="scale(0.015625)"/>
      <path id="DejaVuSans-41" d="M 2188 4044 
L 1331 1722 
L 3047 1722 
L 2188 4044 
z
M 1831 4666 
L 2547 4666 
L 4325 0 
L 3669 0 
L 3244 1197 
L 1141 1197 
L 716 0 
L 50 0 
L 1831 4666 
z
" transform="scale(0.015625)"/>
      <path id="DejaVuSans-2b" d="M 2944 4013 
L 2944 2272 
L 4684 2272 
L 4684 1741 
L 2944 1741 
L 2944 0 
L 2419 0 
L 2419 1741 
L 678 1741 
L 678 2272 
L 2419 2272 
L 2419 4013 
L 2944 4013 
z
" transform="scale(0.015625)"/>
      <path id="DejaVuSans-42" d="M 1259 2228 
L 1259 519 
L 2272 519 
Q 2781 519 3026 730 
Q 3272 941 3272 1375 
Q 3272 1813 3026 2020 
Q 2781 2228 2272 2228 
L 1259 2228 
z
M 1259 4147 
L 1259 2741 
L 2194 2741 
Q 2656 2741 2882 2914 
Q 3109 3088 3109 3444 
Q 3109 3797 2882 3972 
Q 2656 4147 2194 4147 
L 1259 4147 
z
M 628 4666 
L 2241 4666 
Q 2963 4666 3353 4366 
Q 3744 4066 3744 3513 
Q 3744 3084 3544 2831 
Q 3344 2578 2956 2516 
Q 3422 2416 3680 2098 
Q 3938 1781 3938 1306 
Q 3938 681 3513 340 
Q 3088 0 2303 0 
L 628 0 
L 628 4666 
z
" transform="scale(0.015625)"/>
      <path id="DejaVuSans-61" d="M 2194 1759 
Q 1497 1759 1228 1600 
Q 959 1441 959 1056 
Q 959 750 1161 570 
Q 1363 391 1709 391 
Q 2188 391 2477 730 
Q 2766 1069 2766 1631 
L 2766 1759 
L 2194 1759 
z
M 3341 1997 
L 3341 0 
L 2766 0 
L 2766 531 
Q 2569 213 2275 61 
Q 1981 -91 1556 -91 
Q 1019 -91 701 211 
Q 384 513 384 1019 
Q 384 1609 779 1909 
Q 1175 2209 1959 2209 
L 2766 2209 
L 2766 2266 
Q 2766 2663 2505 2880 
Q 2244 3097 1772 3097 
Q 1472 3097 1187 3025 
Q 903 2953 641 2809 
L 641 3341 
Q 956 3463 1253 3523 
Q 1550 3584 1831 3584 
Q 2591 3584 2966 3190 
Q 3341 2797 3341 1997 
z
" transform="scale(0.015625)"/>
      <path id="DejaVuSans-6b" d="M 581 4863 
L 1159 4863 
L 1159 1991 
L 2875 3500 
L 3609 3500 
L 1753 1863 
L 3688 0 
L 2938 0 
L 1159 1709 
L 1159 0 
L 581 0 
L 581 4863 
z
" transform="scale(0.015625)"/>
      <path id="DejaVuSans-6f" d="M 1959 3097 
Q 1497 3097 1228 2736 
Q 959 2375 959 1747 
Q 959 1119 1226 758 
Q 1494 397 1959 397 
Q 2419 397 2687 759 
Q 2956 1122 2956 1747 
Q 2956 2369 2687 2733 
Q 2419 3097 1959 3097 
z
M 1959 3584 
Q 2709 3584 3137 3096 
Q 3566 2609 3566 1747 
Q 3566 888 3137 398 
Q 2709 -91 1959 -91 
Q 1206 -91 779 398 
Q 353 888 353 1747 
Q 353 2609 779 3096 
Q 1206 3584 1959 3584 
z
" transform="scale(0.015625)"/>
      <path id="DejaVuSans-75" d="M 544 1381 
L 544 3500 
L 1119 3500 
L 1119 1403 
Q 1119 906 1312 657 
Q 1506 409 1894 409 
Q 2359 409 2629 706 
Q 2900 1003 2900 1516 
L 2900 3500 
L 3475 3500 
L 3475 0 
L 2900 0 
L 2900 538 
Q 2691 219 2414 64 
Q 2138 -91 1772 -91 
Q 1169 -91 856 284 
Q 544 659 544 1381 
z
M 1991 3584 
L 1991 3584 
z
" transform="scale(0.015625)"/>
      <path id="DejaVuSans-74" d="M 1172 4494 
L 1172 3500 
L 2356 3500 
L 2356 3053 
L 1172 3053 
L 1172 1153 
Q 1172 725 1289 603 
Q 1406 481 1766 481 
L 2356 481 
L 2356 0 
L 1766 0 
Q 1100 0 847 248 
Q 594 497 594 1153 
L 594 3053 
L 172 3053 
L 172 3500 
L 594 3500 
L 594 4494 
L 1172 4494 
z
" transform="scale(0.015625)"/>
      <path id="DejaVuSans-73" d="M 2834 3397 
L 2834 2853 
Q 2591 2978 2328 3040 
Q 2066 3103 1784 3103 
Q 1356 3103 1142 2972 
Q 928 2841 928 2578 
Q 928 2378 1081 2264 
Q 1234 2150 1697 2047 
L 1894 2003 
Q 2506 1872 2764 1633 
Q 3022 1394 3022 966 
Q 3022 478 2636 193 
Q 2250 -91 1575 -91 
Q 1294 -91 989 -36 
Q 684 19 347 128 
L 347 722 
Q 666 556 975 473 
Q 1284 391 1588 391 
Q 1994 391 2212 530 
Q 2431 669 2431 922 
Q 2431 1156 2273 1281 
Q 2116 1406 1581 1522 
L 1381 1569 
Q 847 1681 609 1914 
Q 372 2147 372 2553 
Q 372 3047 722 3315 
Q 1072 3584 1716 3584 
Q 2034 3584 2315 3537 
Q 2597 3491 2834 3397 
z
" transform="scale(0.015625)"/>
     </defs>
     <use xlink:href="#DejaVuSans-4d"/>
     <use xlink:href="#DejaVuSans-41" transform="translate(86.279297 0)"/>
     <use xlink:href="#DejaVuSans-2b" transform="translate(154.6875 0)"/>
     <use xlink:href="#DejaVuSans-42" transform="translate(238.476562 0)"/>
     <use xlink:href="#DejaVuSans-72" transform="translate(307.080078 0)"/>
     <use xlink:href="#DejaVuSans-65" transform="translate(345.943359 0)"/>
     <use xlink:href="#DejaVuSans-61" transform="translate(407.466797 0)"/>
     <use xlink:href="#DejaVuSans-6b" transform="translate(468.746094 0)"/>
     <use xlink:href="#DejaVuSans-6f" transform="translate(523.03125 0)"/>
     <use xlink:href="#DejaVuSans-75" transform="translate(584.212891 0)"/>
     <use xlink:href="#DejaVuSans-74" transform="translate(647.591797 0)"/>
     <use xlink:href="#DejaVuSans-20" transform="translate(686.800781 0)"/>
     <use xlink:href="#DejaVuSans-42" transform="translate(718.587891 0)"/>
     <use xlink:href="#DejaVuSans-61" transform="translate(787.191406 0)"/>
     <use xlink:href="#DejaVuSans-63" transform="translate(848.470703 0)"/>
     <use xlink:href="#DejaVuSans-6b" transform="translate(903.451172 0)"/>
     <use xlink:href="#DejaVuSans-74" transform="translate(961.361328 0)"/>
     <use xlink:href="#DejaVuSans-65" transform="translate(1000.570312 0)"/>
     <use xlink:href="#DejaVuSans-73" transform="translate(1062.09375 0)"/>
     <use xlink:href="#DejaVuSans-74" transform="translate(1114.193359 0)"/>
    </g>
   </g>
   <g id="legend_1">
    <g id="patch_7">
     <path d="M 601.042187 48.118125 
L 658.8 48.118125 
Q 660.8 48.118125 660.8 46.118125 
L 660.8 32.44 
Q 660.8 30.44 658.8 30.44 
L 601.042187 30.44 
Q 599.042187 30.44 599.042187 32.44 
L 599.042187 46.118125 
Q 599.042187 48.118125 601.042187 48.118125 
z
" style="fill: #ffffff; opacity: 0.8; stroke: #cccccc; stroke-linejoin: miter"/>
    </g>
    <g id="line2d_23">
     <path d="M 603.042187 38.538437 
L 613.042187 38.538437 
L 623.042187 38.538437 
" style="fill: none; stroke: #1f77b4; stroke-width: 1.5; stroke-linecap: square"/>
    </g>
    <g id="text_24">
     <!-- close -->
     <g transform="translate(631.042187 42.038437) scale(0.1 -0.1)">
      <defs>
       <path id="DejaVuSans-6c" d="M 603 4863 
L 1178 4863 
L 1178 0 
L 603 0 
L 603 4863 
z
" transform="scale(0.015625)"/>
      </defs>
      <use xlink:href="#DejaVuSans-63"/>
      <use xlink:href="#DejaVuSans-6c" transform="translate(54.980469 0)"/>
      <use xlink:href="#DejaVuSans-6f" transform="translate(82.763672 0)"/>
      <use xlink:href="#DejaVuSans-73" transform="translate(143.945312 0)"/>
      <use xlink:href="#DejaVuSans-65" transform="translate(196.044922 0)"/>
     </g>
    </g>
   </g>
  </g>
  <g id="axes_2">
   <g id="matplotlib.axis_3">
    <g id="ytick_6">
     <g id="line2d_24">
      <defs>
       <path id="mc6fefaec7c" d="M 0 0 
L 3.5 0 
" style="stroke: #000000; stroke-width: 0.8"/>
      </defs>
      <g>
       <use xlink:href="#mc6fefaec7c" x="665.8" y="266.694426" style="stroke: #000000; stroke-width: 0.8"/>
      </g>
     </g>
     <g id="text_25">
      <!-- 0.97 -->
      <g transform="translate(672.8 270.493645) scale(0.1 -0.1)">
       <defs>
        <path id="DejaVuSans-2e" d="M 684 794 
L 1344 794 
L 1344 0 
L 684 0 
L 684 794 
z
" transform="scale(0.015625)"/>
       </defs>
       <use xlink:href="#DejaVuSans-30"/>
       <use xlink:href="#DejaVuSans-2e" transform="translate(63.623047 0)"/>
       <use xlink:href="#DejaVuSans-39" transform="translate(95.410156 0)"/>
       <use xlink:href="#DejaVuSans-37" transform="translate(159.033203 0)"/>
      </g>
     </g>
    </g>
    <g id="ytick_7">
     <g id="line2d_25">
      <g>
       <use xlink:href="#mc6fefaec7c" x="665.8" y="223.712257" style="stroke: #000000; stroke-width: 0.8"/>
      </g>
     </g>
     <g id="text_26">
      <!-- 0.98 -->
      <g transform="translate(672.8 227.511476) scale(0.1 -0.1)">
       <use xlink:href="#DejaVuSans-30"/>
       <use xlink:href="#DejaVuSans-2e" transform="translate(63.623047 0)"/>
       <use xlink:href="#DejaVuSans-39" transform="translate(95.410156 0)"/>
       <use xlink:href="#DejaVuSans-38" transform="translate(159.033203 0)"/>
      </g>
     </g>
    </g>
    <g id="ytick_8">
     <g id="line2d_26">
      <g>
       <use xlink:href="#mc6fefaec7c" x="665.8" y="180.730088" style="stroke: #000000; stroke-width: 0.8"/>
      </g>
     </g>
     <g id="text_27">
      <!-- 0.99 -->
      <g transform="translate(672.8 184.529307) scale(0.1 -0.1)">
       <use xlink:href="#DejaVuSans-30"/>
       <use xlink:href="#DejaVuSans-2e" transform="translate(63.623047 0)"/>
       <use xlink:href="#DejaVuSans-39" transform="translate(95.410156 0)"/>
       <use xlink:href="#DejaVuSans-39" transform="translate(159.033203 0)"/>
      </g>
     </g>
    </g>
    <g id="ytick_9">
     <g id="line2d_27">
      <g>
       <use xlink:href="#mc6fefaec7c" x="665.8" y="137.74792" style="stroke: #000000; stroke-width: 0.8"/>
      </g>
     </g>
     <g id="text_28">
      <!-- 1.00 -->
      <g transform="translate(672.8 141.547138) scale(0.1 -0.1)">
       <use xlink:href="#DejaVuSans-31"/>
       <use xlink:href="#DejaVuSans-2e" transform="translate(63.623047 0)"/>
       <use xlink:href="#DejaVuSans-30" transform="translate(95.410156 0)"/>
       <use xlink:href="#DejaVuSans-30" transform="translate(159.033203 0)"/>
      </g>
     </g>
    </g>
    <g id="ytick_10">
     <g id="line2d_28">
      <g>
       <use xlink:href="#mc6fefaec7c" x="665.8" y="94.765751" style="stroke: #000000; stroke-width: 0.8"/>
      </g>
     </g>
     <g id="text_29">
      <!-- 1.01 -->
      <g transform="translate(672.8 98.56497) scale(0.1 -0.1)">
       <use xlink:href="#DejaVuSans-31"/>
       <use xlink:href="#DejaVuSans-2e" transform="translate(63.623047 0)"/>
       <use xlink:href="#DejaVuSans-30" transform="translate(95.410156 0)"/>
       <use xlink:href="#DejaVuSans-31" transform="translate(159.033203 0)"/>
      </g>
     </g>
    </g>
    <g id="ytick_11">
     <g id="line2d_29">
      <g>
       <use xlink:href="#mc6fefaec7c" x="665.8" y="51.783582" style="stroke: #000000; stroke-width: 0.8"/>
      </g>
     </g>
     <g id="text_30">
      <!-- 1.02 -->
      <g transform="translate(672.8 55.582801) scale(0.1 -0.1)">
       <use xlink:href="#DejaVuSans-31"/>
       <use xlink:href="#DejaVuSans-2e" transform="translate(63.623047 0)"/>
       <use xlink:href="#DejaVuSans-30" transform="translate(95.410156 0)"/>
       <use xlink:href="#DejaVuSans-32" transform="translate(159.033203 0)"/>
      </g>
     </g>
    </g>
    <g id="text_31">
     <!-- Equity -->
     <g transform="translate(706.664062 175.886937) rotate(-90) scale(0.1 -0.1)">
      <defs>
       <path id="DejaVuSans-45" d="M 628 4666 
L 3578 4666 
L 3578 4134 
L 1259 4134 
L 1259 2753 
L 3481 2753 
L 3481 2222 
L 1259 2222 
L 1259 531 
L 3634 531 
L 3634 0 
L 628 0 
L 628 4666 
z
" transform="scale(0.015625)"/>
       <path id="DejaVuSans-71" d="M 947 1747 
Q 947 1113 1208 752 
Q 1469 391 1925 391 
Q 2381 391 2643 752 
Q 2906 1113 2906 1747 
Q 2906 2381 2643 2742 
Q 2381 3103 1925 3103 
Q 1469 3103 1208 2742 
Q 947 2381 947 1747 
z
M 2906 525 
Q 2725 213 2448 61 
Q 2172 -91 1784 -91 
Q 1150 -91 751 415 
Q 353 922 353 1747 
Q 353 2572 751 3078 
Q 1150 3584 1784 3584 
Q 2172 3584 2448 3432 
Q 2725 3281 2906 2969 
L 2906 3500 
L 3481 3500 
L 3481 -1331 
L 2906 -1331 
L 2906 525 
z
" transform="scale(0.015625)"/>
       <path id="DejaVuSans-79" d="M 2059 -325 
Q 1816 -950 1584 -1140 
Q 1353 -1331 966 -1331 
L 506 -1331 
L 506 -850 
L 844 -850 
Q 1081 -850 1212 -737 
Q 1344 -625 1503 -206 
L 1606 56 
L 191 3500 
L 800 3500 
L 1894 763 
L 2988 3500 
L 3597 3500 
L 2059 -325 
z
" transform="scale(0.015625)"/>
      </defs>
      <use xlink:href="#DejaVuSans-45"/>
      <use xlink:href="#DejaVuSans-71" transform="translate(63.183594 0)"/>
      <use xlink:href="#DejaVuSans-75" transform="translate(126.660156 0)"/>
      <use xlink:href="#DejaVuSans-69" transform="translate(190.039062 0)"/>
      <use xlink:href="#DejaVuSans-74" transform="translate(217.822266 0)"/>
      <use xlink:href="#DejaVuSans-79" transform="translate(257.03125 0)"/>
     </g>
    </g>
   </g>
   <g id="line2d_30">
    <path d="M 57.44 137.74792 
L 103.23983 137.74792 
L 103.671903 113.042389 
L 104.103977 97.80351 
L 104.536051 102.814432 
L 104.968125 102.302549 
L 105.400199 104.155317 
L 105.832273 104.155317 
L 106.264347 102.40265 
L 106.69642 99.63007 
L 107.128494 93.906673 
L 107.560568 101.343129 
L 107.992642 100.243999 
L 108.424716 97.471419 
L 108.85679 96.085129 
L 109.288864 85.985016 
L 109.720937 88.292199 
L 110.153011 72.815262 
L 110.585085 70.028819 
L 111.017159 82.91779 
L 111.449233 82.91779 
L 111.881307 93.477043 
L 136.509517 93.477043 
L 136.941591 96.608449 
L 137.373665 105.862157 
L 137.805739 94.370297 
L 138.237812 92.834703 
L 138.669886 89.562785 
L 139.10196 102.519982 
L 139.534034 104.145905 
L 144.286847 104.145905 
L 144.71892 114.59611 
L 145.150994 119.920738 
L 145.583068 131.475679 
L 157.249062 131.475679 
L 158.11321 114.752453 
L 158.545284 118.035746 
L 158.977358 112.686529 
L 159.409432 109.043787 
L 159.841506 111.702168 
L 160.27358 105.670761 
L 160.705653 112.868145 
L 161.137727 117.376647 
L 161.569801 117.376647 
L 162.001875 132.435162 
L 163.73017 132.435162 
L 164.162244 134.00323 
L 164.594318 132.766307 
L 165.026392 113.618341 
L 165.458466 76.549594 
L 165.89054 84.096775 
L 166.754687 88.312823 
L 167.186761 88.312823 
L 167.618835 80.432694 
L 168.050909 87.748566 
L 168.482983 102.039813 
L 168.915057 102.039813 
L 169.347131 91.08273 
L 199.160227 91.08273 
L 199.592301 91.210865 
L 200.024375 79.412664 
L 200.456449 93.931252 
L 200.888523 93.931252 
L 201.320597 105.158686 
L 201.75267 99.927722 
L 202.184744 112.803941 
L 202.616818 112.803941 
L 203.048892 115.330055 
L 203.480966 139.602294 
L 221.195994 139.602294 
L 222.060142 148.493682 
L 222.492216 162.8407 
L 232.429915 162.8407 
L 232.861989 158.56948 
L 233.294062 158.50043 
L 233.726136 160.591651 
L 234.15821 169.962689 
L 235.454432 169.962689 
L 236.31858 136.337328 
L 236.750653 128.919455 
L 237.182727 135.740674 
L 237.614801 135.740674 
L 238.046875 133.538868 
L 238.478949 126.12123 
L 238.911023 135.104597 
L 239.343097 153.022401 
L 239.77517 153.022401 
L 240.207244 152.574129 
L 241.503466 135.666496 
L 241.93554 140.168701 
L 242.367614 137.586267 
L 242.799687 131.573581 
L 243.231761 128.864462 
L 243.663835 132.879416 
L 244.527983 132.879416 
L 244.960057 148.71338 
L 245.392131 148.71338 
L 245.824205 160.40632 
L 246.256278 155.591016 
L 246.688352 158.526241 
L 247.120426 175.533282 
L 307.178693 175.533282 
L 307.610767 176.468243 
L 308.042841 168.958711 
L 308.474915 167.71541 
L 308.906989 164.825981 
L 309.771136 167.338866 
L 310.20321 165.960347 
L 310.635284 166.628627 
L 311.067358 163.24523 
L 311.499432 165.945462 
L 311.931506 160.640992 
L 312.36358 162.958849 
L 314.091875 162.986702 
L 320.572983 162.986702 
L 321.005057 167.937285 
L 321.437131 170.566352 
L 321.869205 170.566352 
L 322.301278 175.818195 
L 322.733352 182.566318 
L 323.5975 182.566318 
L 324.029574 188.081573 
L 326.622017 188.081573 
L 327.054091 198.276217 
L 331.37483 198.276217 
L 331.806903 208.976656 
L 344.769119 208.976656 
L 345.201193 211.069385 
L 346.065341 197.45191 
L 346.497415 185.150987 
L 346.929489 187.819462 
L 347.361562 200.573804 
L 348.22571 200.573804 
L 348.657784 205.501063 
L 349.089858 218.005699 
L 363.348295 218.005699 
L 363.780369 214.760717 
L 364.212443 222.022831 
L 364.644517 215.49377 
L 365.076591 211.144321 
L 365.508665 203.080735 
L 365.940739 201.609741 
L 366.372812 205.638979 
L 366.804886 211.503949 
L 370.261477 211.503949 
L 370.693551 230.049337 
L 371.125625 230.049337 
L 371.557699 242.818399 
L 372.421847 242.818399 
L 372.85392 242.151941 
L 373.285994 235.526004 
L 373.718068 223.578067 
L 374.150142 205.796214 
L 374.582216 212.293689 
L 375.01429 212.286924 
L 375.446364 221.467866 
L 375.878437 221.467866 
L 376.310511 239.333392 
L 398.778352 239.333392 
L 399.210426 231.962493 
L 399.6425 216.054205 
L 400.074574 214.662117 
L 400.506648 208.832233 
L 400.938722 207.0287 
L 401.370795 203.594487 
L 401.802869 204.020338 
L 402.234943 207.194207 
L 402.667017 207.194207 
L 403.099091 211.33543 
L 403.963239 207.310588 
L 404.395312 209.017509 
L 404.827386 212.208288 
L 425.566932 212.208288 
L 425.999006 227.120767 
L 427.295227 227.120767 
L 427.727301 232.321351 
L 428.159375 226.428006 
L 428.591449 222.6227 
L 429.023523 228.662403 
L 429.455597 233.131199 
L 429.88767 233.131199 
L 430.319744 238.42006 
L 430.751818 237.991497 
L 431.183892 250.341915 
L 435.072557 250.341915 
L 435.504631 254.332798 
L 435.936705 252.92824 
L 436.368778 260.648468 
L 437.232926 260.648468 
L 437.665 263.209739 
L 438.097074 264.756167 
L 438.529148 270.072012 
L 443.28196 270.072012 
L 443.714034 276.257758 
L 444.146108 272.140341 
L 444.578182 269.292781 
L 445.010256 272.602107 
L 445.44233 272.573247 
L 445.874403 270.341376 
L 446.306477 282.472364 
L 451.491364 282.472364 
L 451.923437 271.801068 
L 452.355511 248.317508 
L 452.787585 251.454788 
L 453.219659 246.494602 
L 453.651733 251.426877 
L 454.083807 251.426877 
L 454.515881 222.388321 
L 454.947955 210.989448 
L 455.380028 215.052437 
L 455.812102 216.716626 
L 456.244176 224.045681 
L 456.67625 224.045681 
L 457.108324 239.887269 
L 457.540398 237.029496 
L 457.972472 241.078008 
L 473.527131 241.078008 
L 473.959205 221.162448 
L 474.391278 227.017758 
L 474.823352 227.017758 
L 475.255426 228.309848 
L 475.6875 218.879514 
L 476.119574 222.157954 
L 476.551648 212.139429 
L 476.983722 215.58179 
L 477.415795 214.136843 
L 477.847869 203.335087 
L 478.279943 205.311961 
L 478.712017 199.770518 
L 479.144091 200.432495 
L 479.576165 196.020843 
L 480.008239 195.359742 
L 480.440312 196.8584 
L 480.872386 199.572794 
L 481.30446 199.572794 
L 481.736534 190.523633 
L 482.168608 187.869469 
L 482.600682 187.81177 
L 483.46483 173.025383 
L 483.896903 172.118232 
L 484.328977 170.281452 
L 484.761051 173.253732 
L 485.193125 171.639178 
L 485.625199 172.073324 
L 486.057273 174.693964 
L 492.970455 174.693964 
L 493.402528 155.667357 
L 493.834602 195.395448 
L 510.685483 195.395448 
L 511.549631 186.651711 
L 511.981705 174.79612 
L 512.413778 177.595834 
L 513.277926 178.871623 
L 513.71 178.871623 
L 514.142074 172.173017 
L 514.574148 128.703746 
L 515.006222 126.268932 
L 515.438295 119.061792 
L 516.302443 122.493273 
L 516.734517 122.493273 
L 517.166591 111.663334 
L 517.598665 106.070904 
L 518.030739 106.195606 
L 518.894886 118.378088 
L 523.647699 118.378088 
L 524.079773 128.260621 
L 524.511847 128.260621 
L 525.375994 134.355418 
L 525.808068 127.729814 
L 526.240142 134.298546 
L 537.474062 134.298546 
L 537.906136 128.431948 
L 538.33821 116.205921 
L 538.770284 138.198554 
L 539.202358 138.198554 
L 539.634432 150.951963 
L 540.066506 152.124255 
L 540.49858 143.870938 
L 540.930653 142.916086 
L 541.362727 137.205887 
L 541.794801 117.078381 
L 542.226875 123.815281 
L 542.658949 113.219738 
L 543.091023 112.306832 
L 543.523097 104.064957 
L 543.95517 93.339044 
L 544.387244 95.171522 
L 544.819318 95.536744 
L 545.251392 94.075672 
L 545.683466 94.316552 
L 546.11554 90.627771 
L 546.547614 92.518687 
L 546.979687 88.971374 
L 547.843835 78.112111 
L 548.275909 83.723048 
L 548.707983 83.723048 
L 549.140057 64.163907 
L 549.572131 60.536047 
L 550.004205 61.198404 
L 550.868352 73.814151 
L 552.164574 73.814151 
L 552.596648 90.491542 
L 553.028722 92.813242 
L 553.460795 92.813242 
L 553.892869 67.336592 
L 554.324943 74.742919 
L 554.757017 64.210473 
L 555.189091 72.465369 
L 560.806051 72.465369 
L 561.238125 53.193438 
L 561.670199 47.136677 
L 562.102273 53.319984 
L 562.534347 53.319984 
L 562.96642 42.50017 
L 563.398494 47.0817 
L 596.236108 47.0817 
L 596.668182 37.679636 
L 597.100256 39.041995 
L 597.53233 43.478478 
L 597.964403 43.478478 
L 598.396477 57.160625 
L 599.692699 57.160625 
L 600.124773 41.647965 
L 600.556847 47.149526 
L 600.98892 48.861897 
L 601.420994 48.861897 
L 601.853068 55.764319 
L 602.285142 57.68426 
L 607.470028 57.674895 
L 633.826534 57.674895 
L 634.258608 61.848436 
L 634.690682 72.046228 
L 635.55483 72.046228 
L 635.986903 74.137283 
L 636.418977 89.066661 
L 644.628381 89.066661 
L 645.060455 82.682588 
L 645.492528 78.107803 
L 645.924602 80.929545 
L 646.356676 82.870079 
L 646.78875 76.148521 
L 647.220824 66.905207 
L 647.652898 68.972297 
L 648.084972 65.38205 
L 648.517045 63.341513 
L 648.949119 68.600679 
L 665.8 68.600679 
L 665.8 68.600679 
" clip-path="url(#p3ffb141fd1)" style="fill: none; stroke: #2ca02c; stroke-width: 1.5; stroke-linecap: square"/>
   </g>
   <g id="patch_8">
    <path d="M 57.44 294.712 
L 57.44 25.44 
" style="fill: none; stroke: #000000; stroke-width: 0.8; stroke-linejoin: miter; stroke-linecap: square"/>
   </g>
   <g id="patch_9">
    <path d="M 665.8 294.712 
L 665.8 25.44 
" style="fill: none; stroke: #000000; stroke-width: 0.8; stroke-linejoin: miter; stroke-linecap: square"/>
   </g>
   <g id="patch_10">
    <path d="M 57.44 294.712 
L 665.8 294.712 
" style="fill: none; stroke: #000000; stroke-width: 0.8; stroke-linejoin: miter; stroke-linecap: square"/>
   </g>
   <g id="patch_11">
    <path d="M 57.44 25.44 
L 665.8 25.44 
" style="fill: none; stroke: #000000; stroke-width: 0.8; stroke-linejoin: miter; stroke-linecap: square"/>
   </g>
   <g id="legend_2">
    <g id="patch_12">
     <path d="M 64.44 48.118125 
L 127.89625 48.118125 
Q 129.89625 48.118125 129.89625 46.118125 
L 129.89625 32.44 
Q 129.89625 30.44 127.89625 30.44 
L 64.44 30.44 
Q 62.44 30.44 62.44 32.44 
L 62.44 46.118125 
Q 62.44 48.118125 64.44 48.118125 
z
" style="fill: #ffffff; opacity: 0.8; stroke: #cccccc; stroke-linejoin: miter"/>
    </g>
    <g id="line2d_31">
     <path d="M 66.44 38.538437 
L 76.44 38.538437 
L 86.44 38.538437 
" style="fill: none; stroke: #2ca02c; stroke-width: 1.5; stroke-linecap: square"/>
    </g>
    <g id="text_32">
     <!-- equity -->
     <g transform="translate(94.44 42.038437) scale(0.1 -0.1)">
      <use xlink:href="#DejaVuSans-65"/>
      <use xlink:href="#DejaVuSans-71" transform="translate(61.523438 0)"/>
      <use xlink:href="#DejaVuSans-75" transform="translate(125 0)"/>
      <use xlink:href="#DejaVuSans-69" transform="translate(188.378906 0)"/>
      <use xlink:href="#DejaVuSans-74" transform="translate(216.162109 0)"/>
      <use xlink:href="#DejaVuSans-79" transform="translate(255.371094 0)"/>
     </g>
    </g>
   </g>
  </g>
 </g>
 <defs>
  <clipPath id="p3ffb141fd1">
   <rect x="57.44" y="25.44" width="608.36" height="269.272"/>
  </clipPath>
 </defs>
</svg>
