<?xml version="1.0" encoding="utf-8" standalone="no"?>
<!DOCTYPE svg PUBLIC "-//W3C//DTD SVG 1.1//EN"
  "http://www.w3.org/Graphics/SVG/1.1/DTD/svg11.dtd">
<svg xmlns:xlink="http://www.w3.org/1999/xlink" width="720pt" height="360pt" viewBox="0 0 720 360" xmlns="http://www.w3.org/2000/svg" version="1.1">
 <metadata>
  <rdf:RDF xmlns:dc="http://purl.org/dc/elements/1.1/" xmlns:cc="http://creativecommons.org/ns#" xmlns:rdf="http://www.w3.org/1999/02/22-rdf-syntax-ns#">
   <cc:Work>
    <dc:type rdf:resource="http://purl.org/dc/dcmitype/StillImage"/>
    <dc:date>2025-09-18T11:52:28.294391</dc:date>
    <dc:format>image/svg+xml</dc:format>
    <dc:creator>
     <cc:Agent>
      <dc:title>Matplotlib v3.10.5, https://matplotlib.org/</dc:title>
     </cc:Agent>
    </dc:creator>
   </cc:Work>
  </rdf:RDF>
 </metadata>
 <defs>
  <style type="text/css">*{stroke-linejoin: round; stroke-linecap: butt}</style>
 </defs>
 <g id="figure_1">
  <g id="patch_1">
   <path d="M 0 360 
L 720 360 
L 720 0 
L 0 0 
z
" style="fill: #ffffff"/>
  </g>
  <g id="axes_1">
   <g id="patch_2">
    <path d="M 54.2 294.712 
L 665.8 294.712 
L 665.8 25.44 
L 54.2 25.44 
z
" style="fill: #ffffff"/>
   </g>
   <g id="matplotlib.axis_1">
    <g id="xtick_1">
     <g id="line2d_1">
      <defs>
       <path id="m46b8793adb" d="M 0 0 
L 0 3.5 
" style="stroke: #000000; stroke-width: 0.8"/>
      </defs>
      <g>
       <use xlink:href="#m46b8793adb" x="54.2" y="294.712" style="stroke: #000000; stroke-width: 0.8"/>
      </g>
     </g>
     <g id="text_1">
      <!-- 01 -->
      <g transform="translate(47.8375 309.310438) scale(0.1 -0.1)">
       <defs>
        <path id="DejaVuSans-30" d="M 2034 4250 
Q 1547 4250 1301 3770 
Q 1056 3291 1056 2328 
Q 1056 1369 1301 889 
Q 1547 409 2034 409 
Q 2525 409 2770 889 
Q 3016 1369 3016 2328 
Q 3016 3291 2770 3770 
Q 2525 4250 2034 4250 
z
M 2034 4750 
Q 2819 4750 3233 4129 
Q 3647 3509 3647 2328 
Q 3647 1150 3233 529 
Q 2819 -91 2034 -91 
Q 1250 -91 836 529 
Q 422 1150 422 2328 
Q 422 3509 836 4129 
Q 1250 4750 2034 4750 
z
" transform="scale(0.015625)"/>
        <path id="DejaVuSans-31" d="M 794 531 
L 1825 531 
L 1825 4091 
L 703 3866 
L 703 4441 
L 1819 4666 
L 2450 4666 
L 2450 531 
L 3481 531 
L 3481 0 
L 794 0 
L 794 531 
z
" transform="scale(0.015625)"/>
       </defs>
       <use xlink:href="#DejaVuSans-30"/>
       <use xlink:href="#DejaVuSans-31" transform="translate(63.623047 0)"/>
      </g>
      <!-- Sep -->
      <g transform="translate(44.775 320.50825) scale(0.1 -0.1)">
       <defs>
        <path id="DejaVuSans-53" d="M 3425 4513 
L 3425 3897 
Q 3066 4069 2747 4153 
Q 2428 4238 2131 4238 
Q 1616 4238 1336 4038 
Q 1056 3838 1056 3469 
Q 1056 3159 1242 3001 
Q 1428 2844 1947 2747 
L 2328 2669 
Q 3034 2534 3370 2195 
Q 3706 1856 3706 1288 
Q 3706 609 3251 259 
Q 2797 -91 1919 -91 
Q 1588 -91 1214 -16 
Q 841 59 441 206 
L 441 856 
Q 825 641 1194 531 
Q 1563 422 1919 422 
Q 2459 422 2753 634 
Q 3047 847 3047 1241 
Q 3047 1584 2836 1778 
Q 2625 1972 2144 2069 
L 1759 2144 
Q 1053 2284 737 2584 
Q 422 2884 422 3419 
Q 422 4038 858 4394 
Q 1294 4750 2059 4750 
Q 2388 4750 2728 4690 
Q 3069 4631 3425 4513 
z
" transform="scale(0.015625)"/>
        <path id="DejaVuSans-65" d="M 3597 1894 
L 3597 1613 
L 953 1613 
Q 991 1019 1311 708 
Q 1631 397 2203 397 
Q 2534 397 2845 478 
Q 3156 559 3463 722 
L 3463 178 
Q 3153 47 2828 -22 
Q 2503 -91 2169 -91 
Q 1331 -91 842 396 
Q 353 884 353 1716 
Q 353 2575 817 3079 
Q 1281 3584 2069 3584 
Q 2775 3584 3186 3129 
Q 3597 2675 3597 1894 
z
M 3022 2063 
Q 3016 2534 2758 2815 
Q 2500 3097 2075 3097 
Q 1594 3097 1305 2825 
Q 1016 2553 972 2059 
L 3022 2063 
z
" transform="scale(0.015625)"/>
        <path id="DejaVuSans-70" d="M 1159 525 
L 1159 -1331 
L 581 -1331 
L 581 3500 
L 1159 3500 
L 1159 2969 
Q 1341 3281 1617 3432 
Q 1894 3584 2278 3584 
Q 2916 3584 3314 3078 
Q 3713 2572 3713 1747 
Q 3713 922 3314 415 
Q 2916 -91 2278 -91 
Q 1894 -91 1617 61 
Q 1341 213 1159 525 
z
M 3116 1747 
Q 3116 2381 2855 2742 
Q 2594 3103 2138 3103 
Q 1681 3103 1420 2742 
Q 1159 2381 1159 1747 
Q 1159 1113 1420 752 
Q 1681 391 2138 391 
Q 2594 391 2855 752 
Q 3116 1113 3116 1747 
z
" transform="scale(0.015625)"/>
       </defs>
       <use xlink:href="#DejaVuSans-53"/>
       <use xlink:href="#DejaVuSans-65" transform="translate(63.476562 0)"/>
       <use xlink:href="#DejaVuSans-70" transform="translate(125 0)"/>
      </g>
      <!-- 2025 -->
      <g transform="translate(41.475 331.706063) scale(0.1 -0.1)">
       <defs>
        <path id="DejaVuSans-32" d="M 1228 531 
L 3431 531 
L 3431 0 
L 469 0 
L 469 531 
Q 828 903 1448 1529 
Q 2069 2156 2228 2338 
Q 2531 2678 2651 2914 
Q 2772 3150 2772 3378 
Q 2772 3750 2511 3984 
Q 2250 4219 1831 4219 
Q 1534 4219 1204 4116 
Q 875 4013 500 3803 
L 500 4441 
Q 881 4594 1212 4672 
Q 1544 4750 1819 4750 
Q 2544 4750 2975 4387 
Q 3406 4025 3406 3419 
Q 3406 3131 3298 2873 
Q 3191 2616 2906 2266 
Q 2828 2175 2409 1742 
Q 1991 1309 1228 531 
z
" transform="scale(0.015625)"/>
        <path id="DejaVuSans-35" d="M 691 4666 
L 3169 4666 
L 3169 4134 
L 1269 4134 
L 1269 2991 
Q 1406 3038 1543 3061 
Q 1681 3084 1819 3084 
Q 2600 3084 3056 2656 
Q 3513 2228 3513 1497 
Q 3513 744 3044 326 
Q 2575 -91 1722 -91 
Q 1428 -91 1123 -41 
Q 819 9 494 109 
L 494 744 
Q 775 591 1075 516 
Q 1375 441 1709 441 
Q 2250 441 2565 725 
Q 2881 1009 2881 1497 
Q 2881 1984 2565 2268 
Q 2250 2553 1709 2553 
Q 1456 2553 1204 2497 
Q 953 2441 691 2322 
L 691 4666 
z
" transform="scale(0.015625)"/>
       </defs>
       <use xlink:href="#DejaVuSans-32"/>
       <use xlink:href="#DejaVuSans-30" transform="translate(63.623047 0)"/>
       <use xlink:href="#DejaVuSans-32" transform="translate(127.246094 0)"/>
       <use xlink:href="#DejaVuSans-35" transform="translate(190.869141 0)"/>
      </g>
     </g>
    </g>
    <g id="xtick_2">
     <g id="line2d_2">
      <g>
       <use xlink:href="#m46b8793adb" x="665.8" y="294.712" style="stroke: #000000; stroke-width: 0.8"/>
      </g>
     </g>
    </g>
    <g id="xtick_3">
     <g id="line2d_3">
      <defs>
       <path id="mfec20c1d24" d="M 0 0 
L 0 2 
" style="stroke: #000000; stroke-width: 0.6"/>
      </defs>
      <g>
       <use xlink:href="#mfec20c1d24" x="95.9" y="294.712" style="stroke: #000000; stroke-width: 0.6"/>
      </g>
     </g>
     <g id="text_2">
      <!-- 02 -->
      <g transform="translate(89.5375 307.710438) scale(0.1 -0.1)">
       <use xlink:href="#DejaVuSans-30"/>
       <use xlink:href="#DejaVuSans-32" transform="translate(63.623047 0)"/>
      </g>
     </g>
    </g>
    <g id="xtick_4">
     <g id="line2d_4">
      <g>
       <use xlink:href="#mfec20c1d24" x="137.6" y="294.712" style="stroke: #000000; stroke-width: 0.6"/>
      </g>
     </g>
     <g id="text_3">
      <!-- 03 -->
      <g transform="translate(131.2375 307.710438) scale(0.1 -0.1)">
       <defs>
        <path id="DejaVuSans-33" d="M 2597 2516 
Q 3050 2419 3304 2112 
Q 3559 1806 3559 1356 
Q 3559 666 3084 287 
Q 2609 -91 1734 -91 
Q 1441 -91 1130 -33 
Q 819 25 488 141 
L 488 750 
Q 750 597 1062 519 
Q 1375 441 1716 441 
Q 2309 441 2620 675 
Q 2931 909 2931 1356 
Q 2931 1769 2642 2001 
Q 2353 2234 1838 2234 
L 1294 2234 
L 1294 2753 
L 1863 2753 
Q 2328 2753 2575 2939 
Q 2822 3125 2822 3475 
Q 2822 3834 2567 4026 
Q 2313 4219 1838 4219 
Q 1578 4219 1281 4162 
Q 984 4106 628 3988 
L 628 4550 
Q 988 4650 1302 4700 
Q 1616 4750 1894 4750 
Q 2613 4750 3031 4423 
Q 3450 4097 3450 3541 
Q 3450 3153 3228 2886 
Q 3006 2619 2597 2516 
z
" transform="scale(0.015625)"/>
       </defs>
       <use xlink:href="#DejaVuSans-30"/>
       <use xlink:href="#DejaVuSans-33" transform="translate(63.623047 0)"/>
      </g>
     </g>
    </g>
    <g id="xtick_5">
     <g id="line2d_5">
      <g>
       <use xlink:href="#mfec20c1d24" x="179.3" y="294.712" style="stroke: #000000; stroke-width: 0.6"/>
      </g>
     </g>
     <g id="text_4">
      <!-- 04 -->
      <g transform="translate(172.9375 307.710438) scale(0.1 -0.1)">
       <defs>
        <path id="DejaVuSans-34" d="M 2419 4116 
L 825 1625 
L 2419 1625 
L 2419 4116 
z
M 2253 4666 
L 3047 4666 
L 3047 1625 
L 3713 1625 
L 3713 1100 
L 3047 1100 
L 3047 0 
L 2419 0 
L 2419 1100 
L 313 1100 
L 313 1709 
L 2253 4666 
z
" transform="scale(0.015625)"/>
       </defs>
       <use xlink:href="#DejaVuSans-30"/>
       <use xlink:href="#DejaVuSans-34" transform="translate(63.623047 0)"/>
      </g>
     </g>
    </g>
    <g id="xtick_6">
     <g id="line2d_6">
      <g>
       <use xlink:href="#mfec20c1d24" x="221" y="294.712" style="stroke: #000000; stroke-width: 0.6"/>
      </g>
     </g>
     <g id="text_5">
      <!-- 05 -->
      <g transform="translate(214.6375 307.710438) scale(0.1 -0.1)">
       <use xlink:href="#DejaVuSans-30"/>
       <use xlink:href="#DejaVuSans-35" transform="translate(63.623047 0)"/>
      </g>
     </g>
    </g>
    <g id="xtick_7">
     <g id="line2d_7">
      <g>
       <use xlink:href="#mfec20c1d24" x="262.7" y="294.712" style="stroke: #000000; stroke-width: 0.6"/>
      </g>
     </g>
     <g id="text_6">
      <!-- 06 -->
      <g transform="translate(256.3375 307.710438) scale(0.1 -0.1)">
       <defs>
        <path id="DejaVuSans-36" d="M 2113 2584 
Q 1688 2584 1439 2293 
Q 1191 2003 1191 1497 
Q 1191 994 1439 701 
Q 1688 409 2113 409 
Q 2538 409 2786 701 
Q 3034 994 3034 1497 
Q 3034 2003 2786 2293 
Q 2538 2584 2113 2584 
z
M 3366 4563 
L 3366 3988 
Q 3128 4100 2886 4159 
Q 2644 4219 2406 4219 
Q 1781 4219 1451 3797 
Q 1122 3375 1075 2522 
Q 1259 2794 1537 2939 
Q 1816 3084 2150 3084 
Q 2853 3084 3261 2657 
Q 3669 2231 3669 1497 
Q 3669 778 3244 343 
Q 2819 -91 2113 -91 
Q 1303 -91 875 529 
Q 447 1150 447 2328 
Q 447 3434 972 4092 
Q 1497 4750 2381 4750 
Q 2619 4750 2861 4703 
Q 3103 4656 3366 4563 
z
" transform="scale(0.015625)"/>
       </defs>
       <use xlink:href="#DejaVuSans-30"/>
       <use xlink:href="#DejaVuSans-36" transform="translate(63.623047 0)"/>
      </g>
     </g>
    </g>
    <g id="xtick_8">
     <g id="line2d_8">
      <g>
       <use xlink:href="#mfec20c1d24" x="304.4" y="294.712" style="stroke: #000000; stroke-width: 0.6"/>
      </g>
     </g>
     <g id="text_7">
      <!-- 07 -->
      <g transform="translate(298.0375 307.710438) scale(0.1 -0.1)">
       <defs>
        <path id="DejaVuSans-37" d="M 525 4666 
L 3525 4666 
L 3525 4397 
L 1831 0 
L 1172 0 
L 2766 4134 
L 525 4134 
L 525 4666 
z
" transform="scale(0.015625)"/>
       </defs>
       <use xlink:href="#DejaVuSans-30"/>
       <use xlink:href="#DejaVuSans-37" transform="translate(63.623047 0)"/>
      </g>
     </g>
    </g>
    <g id="xtick_9">
     <g id="line2d_9">
      <g>
       <use xlink:href="#mfec20c1d24" x="346.1" y="294.712" style="stroke: #000000; stroke-width: 0.6"/>
      </g>
     </g>
     <g id="text_8">
      <!-- 08 -->
      <g transform="translate(339.7375 307.710438) scale(0.1 -0.1)">
       <defs>
        <path id="DejaVuSans-38" d="M 2034 2216 
Q 1584 2216 1326 1975 
Q 1069 1734 1069 1313 
Q 1069 891 1326 650 
Q 1584 409 2034 409 
Q 2484 409 2743 651 
Q 3003 894 3003 1313 
Q 3003 1734 2745 1975 
Q 2488 2216 2034 2216 
z
M 1403 2484 
Q 997 2584 770 2862 
Q 544 3141 544 3541 
Q 544 4100 942 4425 
Q 1341 4750 2034 4750 
Q 2731 4750 3128 4425 
Q 3525 4100 3525 3541 
Q 3525 3141 3298 2862 
Q 3072 2584 2669 2484 
Q 3125 2378 3379 2068 
Q 3634 1759 3634 1313 
Q 3634 634 3220 271 
Q 2806 -91 2034 -91 
Q 1263 -91 848 271 
Q 434 634 434 1313 
Q 434 1759 690 2068 
Q 947 2378 1403 2484 
z
M 1172 3481 
Q 1172 3119 1398 2916 
Q 1625 2713 2034 2713 
Q 2441 2713 2670 2916 
Q 2900 3119 2900 3481 
Q 2900 3844 2670 4047 
Q 2441 4250 2034 4250 
Q 1625 4250 1398 4047 
Q 1172 3844 1172 3481 
z
" transform="scale(0.015625)"/>
       </defs>
       <use xlink:href="#DejaVuSans-30"/>
       <use xlink:href="#DejaVuSans-38" transform="translate(63.623047 0)"/>
      </g>
     </g>
    </g>
    <g id="xtick_10">
     <g id="line2d_10">
      <g>
       <use xlink:href="#mfec20c1d24" x="387.8" y="294.712" style="stroke: #000000; stroke-width: 0.6"/>
      </g>
     </g>
     <g id="text_9">
      <!-- 09 -->
      <g transform="translate(381.4375 307.710438) scale(0.1 -0.1)">
       <defs>
        <path id="DejaVuSans-39" d="M 703 97 
L 703 672 
Q 941 559 1184 500 
Q 1428 441 1663 441 
Q 2288 441 2617 861 
Q 2947 1281 2994 2138 
Q 2813 1869 2534 1725 
Q 2256 1581 1919 1581 
Q 1219 1581 811 2004 
Q 403 2428 403 3163 
Q 403 3881 828 4315 
Q 1253 4750 1959 4750 
Q 2769 4750 3195 4129 
Q 3622 3509 3622 2328 
Q 3622 1225 3098 567 
Q 2575 -91 1691 -91 
Q 1453 -91 1209 -44 
Q 966 3 703 97 
z
M 1959 2075 
Q 2384 2075 2632 2365 
Q 2881 2656 2881 3163 
Q 2881 3666 2632 3958 
Q 2384 4250 1959 4250 
Q 1534 4250 1286 3958 
Q 1038 3666 1038 3163 
Q 1038 2656 1286 2365 
Q 1534 2075 1959 2075 
z
" transform="scale(0.015625)"/>
       </defs>
       <use xlink:href="#DejaVuSans-30"/>
       <use xlink:href="#DejaVuSans-39" transform="translate(63.623047 0)"/>
      </g>
     </g>
    </g>
    <g id="xtick_11">
     <g id="line2d_11">
      <g>
       <use xlink:href="#mfec20c1d24" x="429.5" y="294.712" style="stroke: #000000; stroke-width: 0.6"/>
      </g>
     </g>
     <g id="text_10">
      <!-- 10 -->
      <g transform="translate(423.1375 307.710438) scale(0.1 -0.1)">
       <use xlink:href="#DejaVuSans-31"/>
       <use xlink:href="#DejaVuSans-30" transform="translate(63.623047 0)"/>
      </g>
     </g>
    </g>
    <g id="xtick_12">
     <g id="line2d_12">
      <g>
       <use xlink:href="#mfec20c1d24" x="471.2" y="294.712" style="stroke: #000000; stroke-width: 0.6"/>
      </g>
     </g>
     <g id="text_11">
      <!-- 11 -->
      <g transform="translate(464.8375 307.710438) scale(0.1 -0.1)">
       <use xlink:href="#DejaVuSans-31"/>
       <use xlink:href="#DejaVuSans-31" transform="translate(63.623047 0)"/>
      </g>
     </g>
    </g>
    <g id="xtick_13">
     <g id="line2d_13">
      <g>
       <use xlink:href="#mfec20c1d24" x="512.9" y="294.712" style="stroke: #000000; stroke-width: 0.6"/>
      </g>
     </g>
     <g id="text_12">
      <!-- 12 -->
      <g transform="translate(506.5375 307.710438) scale(0.1 -0.1)">
       <use xlink:href="#DejaVuSans-31"/>
       <use xlink:href="#DejaVuSans-32" transform="translate(63.623047 0)"/>
      </g>
     </g>
    </g>
    <g id="xtick_14">
     <g id="line2d_14">
      <g>
       <use xlink:href="#mfec20c1d24" x="554.6" y="294.712" style="stroke: #000000; stroke-width: 0.6"/>
      </g>
     </g>
     <g id="text_13">
      <!-- 13 -->
      <g transform="translate(548.2375 307.710438) scale(0.1 -0.1)">
       <use xlink:href="#DejaVuSans-31"/>
       <use xlink:href="#DejaVuSans-33" transform="translate(63.623047 0)"/>
      </g>
     </g>
    </g>
    <g id="xtick_15">
     <g id="line2d_15">
      <g>
       <use xlink:href="#mfec20c1d24" x="596.3" y="294.712" style="stroke: #000000; stroke-width: 0.6"/>
      </g>
     </g>
     <g id="text_14">
      <!-- 14 -->
      <g transform="translate(589.9375 307.710438) scale(0.1 -0.1)">
       <use xlink:href="#DejaVuSans-31"/>
       <use xlink:href="#DejaVuSans-34" transform="translate(63.623047 0)"/>
      </g>
     </g>
    </g>
    <g id="xtick_16">
     <g id="line2d_16">
      <g>
       <use xlink:href="#mfec20c1d24" x="638" y="294.712" style="stroke: #000000; stroke-width: 0.6"/>
      </g>
     </g>
     <g id="text_15">
      <!-- 15 -->
      <g transform="translate(631.6375 307.710438) scale(0.1 -0.1)">
       <use xlink:href="#DejaVuSans-31"/>
       <use xlink:href="#DejaVuSans-35" transform="translate(63.623047 0)"/>
      </g>
     </g>
    </g>
    <g id="text_16">
     <!-- Time (UTC) -->
     <g transform="translate(332.364844 345.384187) scale(0.1 -0.1)">
      <defs>
       <path id="DejaVuSans-54" d="M -19 4666 
L 3928 4666 
L 3928 4134 
L 2272 4134 
L 2272 0 
L 1638 0 
L 1638 4134 
L -19 4134 
L -19 4666 
z
" transform="scale(0.015625)"/>
       <path id="DejaVuSans-69" d="M 603 3500 
L 1178 3500 
L 1178 0 
L 603 0 
L 603 3500 
z
M 603 4863 
L 1178 4863 
L 1178 4134 
L 603 4134 
L 603 4863 
z
" transform="scale(0.015625)"/>
       <path id="DejaVuSans-6d" d="M 3328 2828 
Q 3544 3216 3844 3400 
Q 4144 3584 4550 3584 
Q 5097 3584 5394 3201 
Q 5691 2819 5691 2113 
L 5691 0 
L 5113 0 
L 5113 2094 
Q 5113 2597 4934 2840 
Q 4756 3084 4391 3084 
Q 3944 3084 3684 2787 
Q 3425 2491 3425 1978 
L 3425 0 
L 2847 0 
L 2847 2094 
Q 2847 2600 2669 2842 
Q 2491 3084 2119 3084 
Q 1678 3084 1418 2786 
Q 1159 2488 1159 1978 
L 1159 0 
L 581 0 
L 581 3500 
L 1159 3500 
L 1159 2956 
Q 1356 3278 1631 3431 
Q 1906 3584 2284 3584 
Q 2666 3584 2933 3390 
Q 3200 3197 3328 2828 
z
" transform="scale(0.015625)"/>
       <path id="DejaVuSans-20" transform="scale(0.015625)"/>
       <path id="DejaVuSans-28" d="M 1984 4856 
Q 1566 4138 1362 3434 
Q 1159 2731 1159 2009 
Q 1159 1288 1364 580 
Q 1569 -128 1984 -844 
L 1484 -844 
Q 1016 -109 783 600 
Q 550 1309 550 2009 
Q 550 2706 781 3412 
Q 1013 4119 1484 4856 
L 1984 4856 
z
" transform="scale(0.015625)"/>
       <path id="DejaVuSans-55" d="M 556 4666 
L 1191 4666 
L 1191 1831 
Q 1191 1081 1462 751 
Q 1734 422 2344 422 
Q 2950 422 3222 751 
Q 3494 1081 3494 1831 
L 3494 4666 
L 4128 4666 
L 4128 1753 
Q 4128 841 3676 375 
Q 3225 -91 2344 -91 
Q 1459 -91 1007 375 
Q 556 841 556 1753 
L 556 4666 
z
" transform="scale(0.015625)"/>
       <path id="DejaVuSans-43" d="M 4122 4306 
L 4122 3641 
Q 3803 3938 3442 4084 
Q 3081 4231 2675 4231 
Q 1875 4231 1450 3742 
Q 1025 3253 1025 2328 
Q 1025 1406 1450 917 
Q 1875 428 2675 428 
Q 3081 428 3442 575 
Q 3803 722 4122 1019 
L 4122 359 
Q 3791 134 3420 21 
Q 3050 -91 2638 -91 
Q 1578 -91 968 557 
Q 359 1206 359 2328 
Q 359 3453 968 4101 
Q 1578 4750 2638 4750 
Q 3056 4750 3426 4639 
Q 3797 4528 4122 4306 
z
" transform="scale(0.015625)"/>
       <path id="DejaVuSans-29" d="M 513 4856 
L 1013 4856 
Q 1481 4119 1714 3412 
Q 1947 2706 1947 2009 
Q 1947 1309 1714 600 
Q 1481 -109 1013 -844 
L 513 -844 
Q 928 -128 1133 580 
Q 1338 1288 1338 2009 
Q 1338 2731 1133 3434 
Q 928 4138 513 4856 
z
" transform="scale(0.015625)"/>
      </defs>
      <use xlink:href="#DejaVuSans-54"/>
      <use xlink:href="#DejaVuSans-69" transform="translate(57.958984 0)"/>
      <use xlink:href="#DejaVuSans-6d" transform="translate(85.742188 0)"/>
      <use xlink:href="#DejaVuSans-65" transform="translate(183.154297 0)"/>
      <use xlink:href="#DejaVuSans-20" transform="translate(244.677734 0)"/>
      <use xlink:href="#DejaVuSans-28" transform="translate(276.464844 0)"/>
      <use xlink:href="#DejaVuSans-55" transform="translate(315.478516 0)"/>
      <use xlink:href="#DejaVuSans-54" transform="translate(388.671875 0)"/>
      <use xlink:href="#DejaVuSans-43" transform="translate(443.880859 0)"/>
      <use xlink:href="#DejaVuSans-29" transform="translate(513.705078 0)"/>
     </g>
    </g>
   </g>
   <g id="matplotlib.axis_2">
    <g id="ytick_1">
     <g id="line2d_17">
      <defs>
       <path id="m2b3f5e782f" d="M 0 0 
L -3.5 0 
" style="stroke: #000000; stroke-width: 0.8"/>
      </defs>
      <g>
       <use xlink:href="#m2b3f5e782f" x="54.2" y="246.308962" style="stroke: #000000; stroke-width: 0.8"/>
      </g>
     </g>
     <g id="text_17">
      <!-- 0.22 -->
      <g transform="translate(24.934375 250.108181) scale(0.1 -0.1)">
       <defs>
        <path id="DejaVuSans-2e" d="M 684 794 
L 1344 794 
L 1344 0 
L 684 0 
L 684 794 
z
" transform="scale(0.015625)"/>
       </defs>
       <use xlink:href="#DejaVuSans-30"/>
       <use xlink:href="#DejaVuSans-2e" transform="translate(63.623047 0)"/>
       <use xlink:href="#DejaVuSans-32" transform="translate(95.410156 0)"/>
       <use xlink:href="#DejaVuSans-32" transform="translate(159.033203 0)"/>
      </g>
     </g>
    </g>
    <g id="ytick_2">
     <g id="line2d_18">
      <g>
       <use xlink:href="#m2b3f5e782f" x="54.2" y="197.040022" style="stroke: #000000; stroke-width: 0.8"/>
      </g>
     </g>
     <g id="text_18">
      <!-- 0.24 -->
      <g transform="translate(24.934375 200.839241) scale(0.1 -0.1)">
       <use xlink:href="#DejaVuSans-30"/>
       <use xlink:href="#DejaVuSans-2e" transform="translate(63.623047 0)"/>
       <use xlink:href="#DejaVuSans-32" transform="translate(95.410156 0)"/>
       <use xlink:href="#DejaVuSans-34" transform="translate(159.033203 0)"/>
      </g>
     </g>
    </g>
    <g id="ytick_3">
     <g id="line2d_19">
      <g>
       <use xlink:href="#m2b3f5e782f" x="54.2" y="147.771082" style="stroke: #000000; stroke-width: 0.8"/>
      </g>
     </g>
     <g id="text_19">
      <!-- 0.26 -->
      <g transform="translate(24.934375 151.570301) scale(0.1 -0.1)">
       <use xlink:href="#DejaVuSans-30"/>
       <use xlink:href="#DejaVuSans-2e" transform="translate(63.623047 0)"/>
       <use xlink:href="#DejaVuSans-32" transform="translate(95.410156 0)"/>
       <use xlink:href="#DejaVuSans-36" transform="translate(159.033203 0)"/>
      </g>
     </g>
    </g>
    <g id="ytick_4">
     <g id="line2d_20">
      <g>
       <use xlink:href="#m2b3f5e782f" x="54.2" y="98.502143" style="stroke: #000000; stroke-width: 0.8"/>
      </g>
     </g>
     <g id="text_20">
      <!-- 0.28 -->
      <g transform="translate(24.934375 102.301361) scale(0.1 -0.1)">
       <use xlink:href="#DejaVuSans-30"/>
       <use xlink:href="#DejaVuSans-2e" transform="translate(63.623047 0)"/>
       <use xlink:href="#DejaVuSans-32" transform="translate(95.410156 0)"/>
       <use xlink:href="#DejaVuSans-38" transform="translate(159.033203 0)"/>
      </g>
     </g>
    </g>
    <g id="ytick_5">
     <g id="line2d_21">
      <g>
       <use xlink:href="#m2b3f5e782f" x="54.2" y="49.233203" style="stroke: #000000; stroke-width: 0.8"/>
      </g>
     </g>
     <g id="text_21">
      <!-- 0.30 -->
      <g transform="translate(24.934375 53.032421) scale(0.1 -0.1)">
       <use xlink:href="#DejaVuSans-30"/>
       <use xlink:href="#DejaVuSans-2e" transform="translate(63.623047 0)"/>
       <use xlink:href="#DejaVuSans-33" transform="translate(95.410156 0)"/>
       <use xlink:href="#DejaVuSans-30" transform="translate(159.033203 0)"/>
      </g>
     </g>
    </g>
    <g id="text_22">
     <!-- Price -->
     <g transform="translate(18.854688 172.273656) rotate(-90) scale(0.1 -0.1)">
      <defs>
       <path id="DejaVuSans-50" d="M 1259 4147 
L 1259 2394 
L 2053 2394 
Q 2494 2394 2734 2622 
Q 2975 2850 2975 3272 
Q 2975 3691 2734 3919 
Q 2494 4147 2053 4147 
L 1259 4147 
z
M 628 4666 
L 2053 4666 
Q 2838 4666 3239 4311 
Q 3641 3956 3641 3272 
Q 3641 2581 3239 2228 
Q 2838 1875 2053 1875 
L 1259 1875 
L 1259 0 
L 628 0 
L 628 4666 
z
" transform="scale(0.015625)"/>
       <path id="DejaVuSans-72" d="M 2631 2963 
Q 2534 3019 2420 3045 
Q 2306 3072 2169 3072 
Q 1681 3072 1420 2755 
Q 1159 2438 1159 1844 
L 1159 0 
L 581 0 
L 581 3500 
L 1159 3500 
L 1159 2956 
Q 1341 3275 1631 3429 
Q 1922 3584 2338 3584 
Q 2397 3584 2469 3576 
Q 2541 3569 2628 3553 
L 2631 2963 
z
" transform="scale(0.015625)"/>
       <path id="DejaVuSans-63" d="M 3122 3366 
L 3122 2828 
Q 2878 2963 2633 3030 
Q 2388 3097 2138 3097 
Q 1578 3097 1268 2742 
Q 959 2388 959 1747 
Q 959 1106 1268 751 
Q 1578 397 2138 397 
Q 2388 397 2633 464 
Q 2878 531 3122 666 
L 3122 134 
Q 2881 22 2623 -34 
Q 2366 -91 2075 -91 
Q 1284 -91 818 406 
Q 353 903 353 1747 
Q 353 2603 823 3093 
Q 1294 3584 2113 3584 
Q 2378 3584 2631 3529 
Q 2884 3475 3122 3366 
z
" transform="scale(0.015625)"/>
      </defs>
      <use xlink:href="#DejaVuSans-50"/>
      <use xlink:href="#DejaVuSans-72" transform="translate(58.552734 0)"/>
      <use xlink:href="#DejaVuSans-69" transform="translate(99.666016 0)"/>
      <use xlink:href="#DejaVuSans-63" transform="translate(127.449219 0)"/>
      <use xlink:href="#DejaVuSans-65" transform="translate(182.429688 0)"/>
     </g>
    </g>
   </g>
   <g id="line2d_22">
    <path d="M 54.2 263.553091 
L 54.634375 266.287517 
L 55.06875 264.070415 
L 55.503125 264.218221 
L 55.9375 265.647021 
L 56.80625 262.17356 
L 58.109375 268.750964 
L 58.54375 270.278301 
L 58.978125 271.214411 
L 59.4125 273.308341 
L 59.846875 271.953445 
L 60.28125 271.214411 
L 60.715625 270.081225 
L 61.15 270.155129 
L 62.01875 273.505417 
L 62.453125 273.061996 
L 62.8875 273.776396 
L 63.75625 269.760977 
L 64.190625 270.475377 
L 64.625 272.175155 
L 65.49375 267.864123 
L 65.928125 269.071212 
L 66.3625 271.460756 
L 66.796875 265.031159 
L 67.23125 262.469174 
L 67.665625 251.605373 
L 68.1 254.389068 
L 68.534375 255.990309 
L 69.403125 249.289733 
L 69.8375 248.107278 
L 70.271875 250.053401 
L 70.70625 249.782422 
L 71.140625 251.506835 
L 71.575 250.546091 
L 72.44375 255.719329 
L 72.878125 255.078833 
L 73.3125 254.733951 
L 73.746875 255.423716 
L 74.18125 257.936432 
L 74.615625 256.482998 
L 75.05 254.536875 
L 75.484375 254.610778 
L 75.91875 255.793233 
L 76.353125 255.94104 
L 76.7875 256.778612 
L 77.221875 255.374447 
L 78.090625 259.85792 
L 78.525 256.409094 
L 78.959375 257.911797 
L 79.39375 258.576928 
L 79.828125 257.936432 
L 80.2625 258.355218 
L 80.696875 260.424513 
L 81.565625 262.814057 
L 82 263.454553 
L 83.303125 267.272896 
L 83.7375 267.691682 
L 84.171875 269.219019 
L 84.60625 268.553888 
L 85.040625 269.366826 
L 85.909375 265.967269 
L 86.778125 264.415297 
L 87.2125 264.637007 
L 87.646875 266.804841 
L 88.08125 265.178966 
L 88.95 265.449945 
L 89.384375 266.090441 
L 89.81875 278.087428 
L 90.253125 273.431513 
L 90.6875 276.042767 
L 91.121875 277.791814 
L 91.55625 282.472364 
L 91.990625 279.787206 
L 92.425 279.787206 
L 92.859375 279.14671 
L 93.29375 280.329165 
L 94.1625 274.219816 
L 94.596875 273.825665 
L 95.03125 270.721721 
L 95.465625 269.366826 
L 95.9 269.268288 
L 96.334375 269.489998 
L 96.76875 271.830273 
L 97.203125 271.386852 
L 97.6375 270.229032 
L 98.071875 271.140507 
L 98.50625 267.691682 
L 98.940625 269.810246 
L 99.375 269.687074 
L 99.809375 269.120481 
L 100.24375 268.01193 
L 100.678125 264.021146 
L 101.1125 262.247464 
L 101.546875 262.001119 
L 101.98125 263.282112 
L 102.415625 262.863326 
L 102.85 263.503822 
L 103.71875 261.804043 
L 104.153125 260.917202 
L 104.5875 261.28672 
L 105.021875 262.050388 
L 105.45625 261.680871 
L 106.325 259.882555 
L 106.759375 260.523051 
L 107.19375 260.054996 
L 107.628125 260.596954 
L 108.0625 262.616981 
L 108.496875 262.937229 
L 108.93125 263.897973 
L 109.365625 265.622386 
L 109.8 265.671655 
L 110.234375 263.257477 
L 110.66875 262.099657 
L 111.103125 263.134305 
L 111.5375 261.976485 
L 111.971875 262.986498 
L 112.840625 262.690884 
L 113.275 262.838691 
L 113.709375 264.366028 
L 114.578125 263.011132 
L 115.0125 265.326773 
L 115.446875 266.36142 
L 115.88125 265.449945 
L 116.315625 267.396068 
L 116.75 270.968066 
L 117.184375 270.475377 
L 118.053125 278.678655 
L 118.921875 273.160534 
L 119.35625 267.568509 
L 119.790625 264.193587 
L 120.225 267.001917 
L 120.659375 263.011132 
L 121.09375 264.193587 
L 121.528125 264.119684 
L 121.9625 265.622386 
L 122.396875 265.647021 
L 122.83125 269.908784 
L 123.265625 272.717114 
L 123.7 268.578523 
L 124.134375 270.844894 
L 124.56875 266.977282 
L 125.003125 266.238248 
L 125.4375 266.36142 
L 125.871875 264.686276 
L 126.30625 265.499214 
L 126.740625 265.671655 
L 127.175 267.494606 
L 128.04375 269.416095 
L 128.478125 267.07582 
L 128.9125 269.120481 
L 129.78125 269.243653 
L 130.215625 268.135102 
L 130.65 266.090441 
L 131.084375 263.429918 
L 131.51875 261.902581 
L 131.953125 262.370636 
L 132.3875 260.818665 
L 132.821875 261.705506 
L 133.25625 258.946445 
L 133.690625 258.995714 
L 134.125 259.63621 
L 134.559375 259.981093 
L 134.99375 259.242059 
L 135.428125 259.044983 
L 135.8625 258.355218 
L 136.296875 259.611576 
L 136.73125 259.488403 
L 137.165625 259.118886 
L 137.6 259.069617 
L 138.034375 258.47839 
L 138.903125 261.557699 
L 139.3375 263.799435 
L 139.771875 264.637007 
L 140.20625 263.922608 
L 140.640625 258.946445 
L 141.075 261.01574 
L 141.509375 256.064212 
L 141.94375 256.359826 
L 142.378125 255.990309 
L 142.8125 257.640818 
L 143.246875 257.887163 
L 143.68125 258.897176 
L 144.115625 258.03497 
L 144.55 259.685479 
L 145.853125 258.232045 
L 146.721875 259.956458 
L 147.15625 260.153534 
L 147.590625 259.685479 
L 148.459375 256.581536 
L 148.89375 256.507632 
L 149.7625 256.753977 
L 150.196875 257.714721 
L 150.63125 256.039577 
L 151.065625 256.138115 
L 151.5 255.251274 
L 151.934375 256.680074 
L 152.36875 256.82788 
L 152.803125 257.246666 
L 153.2375 259.463769 
L 153.671875 257.074225 
L 154.10625 255.94104 
L 154.540625 255.275909 
L 154.975 255.103468 
L 155.409375 253.452958 
L 155.84375 254.660047 
L 156.278125 255.078833 
L 156.7125 254.167358 
L 157.146875 254.561509 
L 157.58125 254.044185 
L 158.015625 255.374447 
L 158.884375 255.694695 
L 159.31875 258.108873 
L 159.753125 257.665452 
L 160.1875 255.325178 
L 160.621875 255.00493 
L 161.05625 251.309759 
L 161.490625 253.84711 
L 161.925 254.684682 
L 162.359375 251.851718 
L 162.79375 247.639223 
L 163.228125 249.511443 
L 163.6625 249.314367 
L 164.096875 250.841704 
L 164.53125 248.94485 
L 164.965625 249.265098 
L 165.4 249.314367 
L 166.26875 252.369041 
L 166.703125 251.654642 
L 167.1375 249.363636 
L 167.571875 248.550699 
L 168.00625 248.599968 
L 168.440625 248.181182 
L 168.875 247.491416 
L 169.309375 248.205816 
L 169.74375 249.141926 
L 170.178125 248.673871 
L 170.6125 248.797043 
L 171.046875 248.00874 
L 171.48125 246.136521 
L 171.915625 243.426729 
L 172.35 238.598373 
L 172.784375 242.589157 
L 173.21875 241.28353 
L 173.653125 242.44135 
L 174.0875 242.392081 
L 174.521875 241.554509 
L 174.95625 244.141128 
L 175.390625 243.870149 
L 175.825 241.874757 
L 176.259375 243.106481 
L 176.69375 243.870149 
L 177.128125 243.426729 
L 177.5625 244.904797 
L 177.996875 244.288935 
L 178.43125 245.397486 
L 178.865625 245.6931 
L 179.3 244.830894 
L 179.734375 245.298949 
L 180.16875 246.555307 
L 180.603125 246.333596 
L 181.0375 248.994119 
L 181.471875 249.043388 
L 182.340625 248.23045 
L 182.775 249.215829 
L 183.209375 251.777814 
L 183.64375 251.75318 
L 184.078125 252.098062 
L 184.5125 253.35442 
L 184.946875 253.994916 
L 185.38125 255.546888 
L 185.815625 255.202005 
L 186.25 254.536875 
L 186.684375 254.413702 
L 187.11875 253.945648 
L 187.553125 254.807854 
L 187.9875 258.182776 
L 188.421875 258.305949 
L 188.85625 259.242059 
L 189.290625 257.591549 
L 189.725 258.47839 
L 190.59375 259.63621 
L 191.028125 260.523051 
L 191.4625 258.749369 
L 191.896875 259.340596 
L 192.33125 258.823273 
L 192.765625 258.108873 
L 193.634375 255.67006 
L 194.06875 256.926418 
L 194.503125 258.92181 
L 194.9375 257.985701 
L 195.371875 258.946445 
L 195.80625 258.429121 
L 196.240625 257.32057 
L 196.675 255.891771 
L 197.109375 256.975687 
L 197.54375 256.38446 
L 197.978125 257.369839 
L 198.4125 255.44835 
L 198.846875 256.261288 
L 199.28125 255.965674 
L 199.715625 257.32057 
L 200.15 255.275909 
L 200.584375 255.300543 
L 201.01875 256.581536 
L 201.453125 254.783219 
L 201.8875 256.261288 
L 202.321875 255.325178 
L 202.75625 255.793233 
L 203.190625 257.936432 
L 203.625 263.158939 
L 204.059375 260.153534 
L 204.49375 259.513038 
L 204.928125 260.646223 
L 205.3625 265.844096 
L 206.23125 265.770193 
L 206.665625 265.474579 
L 207.1 264.858718 
L 207.534375 266.410689 
L 207.96875 265.548483 
L 208.403125 265.844096 
L 208.8375 264.883352 
L 209.271875 263.035767 
L 209.70625 266.435324 
L 210.140625 266.36142 
L 210.575 265.154331 
L 211.009375 267.469971 
L 211.44375 266.336786 
L 211.878125 267.864123 
L 212.3125 266.065807 
L 212.746875 267.174358 
L 213.18125 269.16975 
L 213.615625 269.416095 
L 214.05 266.188979 
L 214.484375 265.597752 
L 214.91875 266.115076 
L 215.353125 265.967269 
L 215.7875 266.533862 
L 216.65625 264.686276 
L 217.090625 264.390663 
L 217.959375 263.158939 
L 218.39375 264.021146 
L 218.828125 260.695492 
L 219.696875 262.616981 
L 220.13125 264.563104 
L 220.565625 265.277504 
L 221 263.503822 
L 221.434375 262.863326 
L 221.86875 264.070415 
L 222.303125 265.918 
L 222.7375 265.499214 
L 223.60625 260.276706 
L 224.040625 260.892568 
L 224.475 259.85792 
L 224.909375 259.340596 
L 225.34375 260.449148 
L 225.778125 259.882555 
L 226.2125 262.715519 
L 226.646875 263.553091 
L 227.515625 260.621589 
L 227.95 262.370636 
L 228.384375 261.927216 
L 228.81875 260.818665 
L 229.253125 260.867934 
L 229.6875 260.449148 
L 230.121875 260.744761 
L 230.55625 260.178168 
L 230.990625 260.547685 
L 231.425 260.720127 
L 231.859375 261.606968 
L 232.728125 258.995714 
L 234.03125 251.876352 
L 234.465625 251.161952 
L 234.9 253.526862 
L 235.334375 254.29053 
L 235.76875 254.29053 
L 236.203125 254.118089 
L 236.6375 255.054199 
L 237.071875 257.54228 
L 237.50625 255.620791 
L 238.375 254.191992 
L 238.809375 254.167358 
L 239.678125 255.67006 
L 240.1125 255.645426 
L 240.546875 254.142723 
L 240.98125 254.044185 
L 241.415625 254.389068 
L 241.85 253.871744 
L 242.284375 249.363636 
L 242.71875 250.619994 
L 243.153125 245.742369 
L 243.5875 246.185789 
L 244.021875 247.368244 
L 244.45625 244.732356 
L 244.890625 246.136521 
L 245.325 250.10267 
L 245.759375 257.172763 
L 246.19375 261.409892 
L 246.628125 263.626994 
L 247.0625 260.695492 
L 247.496875 258.601562 
L 247.93125 257.739356 
L 248.365625 260.695492 
L 248.8 259.217424 
L 249.234375 260.35061 
L 249.66875 259.365231 
L 250.103125 259.020348 
L 250.971875 259.463769 
L 251.40625 261.237451 
L 251.840625 259.660845 
L 252.275 260.744761 
L 252.709375 257.813259 
L 253.14375 255.990309 
L 253.578125 256.187384 
L 254.0125 255.546888 
L 254.446875 254.487606 
L 254.88125 254.881757 
L 255.315625 253.108076 
L 255.75 252.393676 
L 256.184375 251.383663 
L 256.61875 249.240464 
L 257.053125 246.333596 
L 257.4875 249.363636 
L 257.921875 250.767801 
L 258.35625 249.585346 
L 258.790625 251.630007 
L 259.225 252.1966 
L 259.659375 253.428324 
L 260.09375 250.619994 
L 260.528125 250.398284 
L 260.9625 251.75318 
L 261.396875 250.004132 
L 261.83125 251.03878 
L 262.265625 251.75318 
L 263.134375 250.004132 
L 263.56875 250.299746 
L 264.003125 251.285125 
L 264.4375 251.26049 
L 264.871875 252.098062 
L 265.30625 251.605373 
L 265.740625 252.122697 
L 266.175 253.13271 
L 266.609375 253.822475 
L 267.04375 253.84711 
L 267.478125 251.383663 
L 267.9125 252.073428 
L 268.346875 252.048793 
L 268.78125 252.738558 
L 269.215625 252.122697 
L 269.65 254.191992 
L 270.084375 255.620791 
L 270.51875 256.507632 
L 270.953125 255.793233 
L 271.3875 256.458363 
L 271.821875 257.54228 
L 272.25625 257.640818 
L 272.690625 257.616184 
L 273.125 256.877149 
L 273.559375 257.172763 
L 274.428125 256.630805 
L 274.8625 256.16275 
L 275.73125 256.630805 
L 276.165625 256.680074 
L 276.6 257.419108 
L 277.46875 257.419108 
L 277.903125 258.010335 
L 278.3375 259.931824 
L 278.771875 260.596954 
L 279.20625 259.611576 
L 279.640625 260.547685 
L 280.075 260.720127 
L 280.509375 261.138913 
L 280.94375 259.833286 
L 281.378125 259.562307 
L 281.8125 260.424513 
L 282.246875 260.449148 
L 282.68125 260.917202 
L 283.115625 260.57232 
L 283.55 260.523051 
L 284.41875 262.050388 
L 284.853125 261.163547 
L 285.2875 260.596954 
L 285.721875 260.399879 
L 286.15625 261.483795 
L 286.590625 260.695492 
L 287.025 260.178168 
L 287.459375 258.626197 
L 287.89375 258.798638 
L 288.328125 259.734748 
L 288.7625 259.956458 
L 289.196875 258.182776 
L 289.63125 258.971079 
L 290.065625 261.656237 
L 290.5 260.276706 
L 290.934375 260.178168 
L 291.36875 259.463769 
L 292.2375 259.685479 
L 292.671875 260.449148 
L 293.10625 262.395271 
L 293.540625 262.025754 
L 293.975 260.867934 
L 294.409375 260.720127 
L 294.84375 262.148926 
L 295.278125 260.843299 
L 296.146875 262.370636 
L 296.58125 264.095049 
L 297.015625 264.242856 
L 298.31875 261.114278 
L 298.753125 260.153534 
L 299.1875 260.57232 
L 299.621875 259.439134 
L 300.490625 258.552293 
L 300.925 257.443742 
L 301.359375 257.640818 
L 301.79375 258.25668 
L 302.228125 257.54228 
L 302.6625 255.94104 
L 303.096875 252.664655 
L 303.53125 255.00493 
L 303.965625 256.60617 
L 304.4 255.645426 
L 304.834375 256.310557 
L 305.26875 254.709316 
L 305.703125 255.128102 
L 306.1375 253.921013 
L 307.00625 254.438337 
L 307.440625 254.29053 
L 307.875 254.487606 
L 308.309375 254.389068 
L 308.74375 253.526862 
L 309.178125 253.157344 
L 309.6125 254.315165 
L 310.046875 253.699303 
L 310.48125 254.758585 
L 310.915625 255.078833 
L 311.35 255.990309 
L 311.784375 254.438337 
L 312.21875 253.822475 
L 312.653125 253.403689 
L 313.0875 253.748572 
L 313.521875 253.255882 
L 313.95625 254.191992 
L 314.390625 252.763193 
L 314.825 253.871744 
L 315.69375 254.561509 
L 316.128125 254.536875 
L 316.5625 254.265896 
L 317.43125 252.664655 
L 317.865625 253.206613 
L 318.734375 251.802449 
L 319.603125 252.812462 
L 320.0375 252.1966 
L 320.471875 252.073428 
L 320.90625 253.699303 
L 321.340625 252.787827 
L 321.775 252.270504 
L 322.209375 252.861731 
L 323.078125 251.334394 
L 323.5125 251.26049 
L 323.946875 250.743166 
L 324.38125 249.314367 
L 324.815625 248.476795 
L 325.25 249.265098 
L 325.684375 249.708519 
L 326.11875 249.757788 
L 326.553125 250.10267 
L 326.9875 249.856326 
L 327.421875 248.50143 
L 327.85625 248.821678 
L 328.290625 248.673871 
L 328.725 241.455971 
L 329.159375 242.071833 
L 329.59375 236.800056 
L 330.028125 239.756193 
L 330.4625 239.928634 
L 330.896875 235.075644 
L 331.33125 235.666871 
L 331.765625 237.514456 
L 332.2 237.440553 
L 332.634375 239.706924 
L 333.06875 239.238869 
L 333.503125 239.731558 
L 333.9375 241.332799 
L 334.371875 241.603778 
L 334.80625 240.618399 
L 335.240625 243.057212 
L 335.675 242.712329 
L 336.109375 243.180384 
L 336.54375 244.683087 
L 336.978125 243.59917 
L 337.4125 241.899392 
L 337.846875 241.924026 
L 338.28125 240.101075 
L 338.715625 240.914013 
L 339.15 240.987916 
L 340.01875 239.238869 
L 340.453125 236.997132 
L 340.8875 236.307367 
L 341.321875 236.504443 
L 341.75625 236.405905 
L 342.190625 237.144939 
L 342.625 233.819286 
L 343.059375 233.84392 
L 343.49375 228.177992 
L 343.928125 227.217248 
L 344.3625 228.030185 
L 344.796875 225.02478 
L 345.23125 224.359649 
L 345.665625 224.950876 
L 346.1 227.709937 
L 346.96875 226.1826 
L 347.403125 228.744585 
L 347.8375 227.291151 
L 348.271875 226.773827 
L 348.70625 227.586765 
L 349.140625 226.946269 
L 349.575 225.345028 
L 350.009375 226.823096 
L 350.44375 223.86696 
L 350.878125 216.353446 
L 351.3125 212.165587 
L 351.746875 214.579765 
L 352.18125 215.515874 
L 353.05 219.482024 
L 353.484375 216.476619 
L 353.91875 218.003956 
L 354.353125 218.472011 
L 354.7875 217.067846 
L 355.221875 216.42735 
L 355.65625 218.644452 
L 356.090625 215.885392 
L 356.525 217.092481 
L 356.959375 215.811488 
L 357.39375 216.353446 
L 357.828125 217.856149 
L 358.2625 216.993943 
L 358.696875 215.589778 
L 359.13125 216.107102 
L 359.565625 215.49124 
L 360 213.372676 
L 360.434375 212.4612 
L 360.86875 212.042414 
L 361.303125 214.653668 
L 361.7375 212.707545 
L 362.171875 212.387297 
L 362.60625 213.126331 
L 363.040625 212.68291 
L 363.475 213.61902 
L 364.34375 211.032401 
L 364.778125 211.943876 
L 365.2125 213.914634 
L 365.646875 212.978524 
L 366.08125 214.604399 
L 366.515625 213.594386 
L 366.95 213.889999 
L 367.384375 213.298772 
L 367.81875 208.815299 
L 368.253125 209.357257 
L 368.6875 198.641263 
L 369.55625 205.760624 
L 369.990625 206.6721 
L 370.425 202.163992 
L 370.859375 200.39031 
L 371.29375 202.632047 
L 371.728125 201.32642 
L 372.1625 203.789867 
L 372.596875 200.562751 
L 373.03125 202.755219 
L 373.465625 201.277151 
L 373.9 198.123939 
L 374.334375 199.306393 
L 374.76875 203.174005 
L 375.203125 203.789867 
L 375.6375 203.814501 
L 376.071875 198.616628 
L 376.50625 201.646668 
L 376.940625 202.903026 
L 377.375 201.153979 
L 377.809375 199.94689 
L 378.24375 201.153979 
L 378.678125 199.774448 
L 379.1125 202.163992 
L 379.546875 200.242503 
L 379.98125 203.346446 
L 380.415625 202.976929 
L 380.85 200.464213 
L 381.284375 199.996158 
L 381.71875 201.671302 
L 382.153125 198.51809 
L 383.021875 190.782867 
L 383.890625 192.679721 
L 384.325 190.216274 
L 384.759375 191.521901 
L 385.19375 188.76284 
L 385.628125 189.625047 
L 386.0625 188.122344 
L 386.496875 191.817514 
L 386.93125 190.437984 
L 387.365625 192.901431 
L 387.8 191.472632 
L 388.234375 194.059251 
L 388.66875 202.188626 
L 389.103125 200.439579 
L 389.971875 202.853757 
L 390.40625 201.153979 
L 391.275 205.51428 
L 391.709375 207.312596 
L 392.14375 207.558941 
L 392.578125 210.36727 
L 393.0125 208.224071 
L 393.446875 207.731382 
L 394.315625 205.785259 
L 394.75 208.27334 
L 395.184375 204.898418 
L 395.61875 204.898418 
L 396.053125 205.465011 
L 396.4875 206.992348 
L 397.35625 206.647465 
L 398.225 200.045427 
L 398.659375 198.764435 
L 399.09375 196.054643 
L 399.528125 194.551941 
L 399.9625 193.468024 
L 400.396875 194.034617 
L 400.83125 197.384905 
L 401.265625 196.473429 
L 401.7 196.153181 
L 402.56875 193.837541 
L 403.003125 193.270948 
L 403.4375 195.364878 
L 403.871875 195.143168 
L 404.30625 196.325622 
L 404.740625 195.192437 
L 405.175 191.768246 
L 405.609375 194.896823 
L 406.04375 193.246314 
L 406.478125 194.872189 
L 406.9125 193.911444 
L 407.346875 192.556549 
L 407.78125 193.197045 
L 408.215625 193.221679 
L 408.65 181.569575 
L 409.084375 176.91366 
L 409.51875 184.57498 
L 409.953125 182.801298 
L 410.3875 179.574183 
L 411.25625 178.145384 
L 411.690625 179.9437 
L 412.125 183.146181 
L 412.559375 188.738206 
L 412.99375 199.281759 
L 413.428125 196.030009 
L 413.8625 200.119331 
L 414.296875 198.715166 
L 414.73125 202.434971 
L 415.165625 201.351054 
L 415.6 199.133952 
L 416.034375 200.488848 
L 416.46875 198.271746 
L 416.903125 197.212463 
L 417.3375 193.246314 
L 417.771875 199.035414 
L 418.20625 198.936876 
L 418.640625 197.163194 
L 419.075 198.29638 
L 419.509375 195.48805 
L 419.94375 197.040022 
L 420.378125 195.857568 
L 420.8125 193.911444 
L 421.246875 191.201653 
L 421.68125 192.926066 
L 422.55 195.241706 
L 422.984375 196.128547 
L 423.41875 195.217071 
L 423.853125 193.098507 
L 424.2875 191.620439 
L 424.721875 194.773651 
L 425.15625 194.699747 
L 425.590625 196.399526 
L 426.025 195.635857 
L 426.459375 197.384905 
L 426.89375 194.995361 
L 427.328125 193.689734 
L 427.7625 193.492658 
L 428.196875 195.019996 
L 428.63125 194.453403 
L 429.065625 195.561954 
L 429.5 199.281759 
L 429.934375 204.159384 
L 430.36875 200.661289 
L 430.803125 203.839136 
L 431.2375 202.558143 
L 431.671875 200.685924 
L 432.10625 199.404931 
L 432.540625 200.119331 
L 432.975 195.438782 
L 433.84375 192.802893 
L 434.278125 195.143168 
L 434.7125 194.650478 
L 435.146875 197.163194 
L 435.58125 196.054643 
L 436.015625 194.502672 
L 436.45 195.98074 
L 436.884375 195.463416 
L 437.31875 197.557346 
L 437.753125 196.20245 
L 438.1875 198.7398 
L 438.621875 197.85296 
L 439.05625 196.374891 
L 439.925 200.217869 
L 440.79375 196.079278 
L 441.228125 197.13856 
L 441.6625 195.882202 
L 442.096875 192.778259 
L 442.53125 193.640465 
L 442.965625 193.6651 
L 443.4 191.768246 
L 443.834375 193.812907 
L 444.26875 195.019996 
L 444.703125 195.512685 
L 445.1375 196.670505 
L 445.571875 194.502672 
L 446.00625 194.625844 
L 446.440625 192.901431 
L 446.875 194.872189 
L 447.309375 195.512685 
L 447.74375 195.340244 
L 448.178125 196.42416 
L 448.6125 194.995361 
L 449.046875 195.611223 
L 449.48125 197.779056 
L 450.784375 194.305596 
L 451.21875 189.896026 
L 451.653125 190.930674 
L 452.0875 187.728192 
L 452.521875 188.861378 
L 452.95625 186.89062 
L 453.390625 185.979145 
L 453.825 188.270151 
L 454.259375 188.738206 
L 454.69375 187.235503 
L 455.128125 188.54113 
L 455.5625 184.796691 
L 455.996875 186.053048 
L 456.43125 185.929876 
L 456.865625 188.023806 
L 457.3 190.708963 
L 458.16875 186.373297 
L 458.603125 177.40635 
L 459.0375 178.268556 
L 459.471875 185.363283 
L 459.90625 181.963726 
L 460.340625 183.762043 
L 460.775 184.969132 
L 461.209375 188.565764 
L 461.64375 187.703558 
L 462.078125 185.979145 
L 462.5125 191.817514 
L 463.38125 197.286367 
L 463.815625 197.409539 
L 464.25 194.872189 
L 464.684375 194.009982 
L 465.11875 194.059251 
L 465.553125 193.221679 
L 465.9875 188.467227 
L 466.421875 187.678924 
L 466.85625 188.368689 
L 467.290625 187.900634 
L 467.725 186.595007 
L 468.159375 186.742814 
L 468.59375 187.654289 
L 469.028125 185.782069 
L 469.4625 185.461821 
L 469.896875 186.348662 
L 470.33125 184.525711 
L 470.765625 184.008387 
L 471.2 186.22549 
L 471.634375 185.215477 
L 472.06875 186.274759 
L 472.9375 179.992969 
L 473.80625 182.702761 
L 474.240625 183.146181 
L 474.675 180.830541 
L 475.109375 182.825933 
L 475.54375 180.510293 
L 475.978125 181.717382 
L 476.4125 180.239314 
L 476.846875 167.87281 
L 477.28125 169.597223 
L 477.715625 166.788893 
L 478.15 166.665721 
L 478.584375 167.15841 
L 479.01875 165.606438 
L 479.453125 166.246935 
L 479.8875 170.18845 
L 480.321875 170.360891 
L 480.75625 173.070683 
L 481.190625 172.405552 
L 482.059375 169.96674 
L 482.49375 170.853581 
L 482.928125 171.247732 
L 483.3625 175.213882 
L 484.23125 172.947511 
L 484.665625 173.267759 
L 485.1 173.834351 
L 485.534375 173.88362 
L 485.96875 172.898242 
L 486.403125 172.7258 
L 486.8375 174.253137 
L 487.271875 173.489469 
L 488.140625 173.144586 
L 488.575 172.011401 
L 489.009375 171.641884 
L 489.44375 169.547954 
L 490.746875 171.223098 
L 491.18125 169.892836 
L 491.615625 170.237719 
L 492.05 167.897444 
L 492.484375 161.911268 
L 492.91875 175.164613 
L 493.353125 177.652694 
L 493.7875 182.456416 
L 494.65625 172.873607 
L 495.090625 170.089912 
L 495.525 174.524117 
L 495.959375 176.223895 
L 496.39375 173.563372 
L 496.828125 173.711179 
L 497.2625 176.889026 
L 498.13125 179.697355 
L 498.565625 180.140776 
L 499 176.174626 
L 499.434375 176.91366 
L 499.86875 174.548751 
L 500.303125 173.415565 
L 500.7375 172.627262 
L 501.171875 174.474848 
L 501.60625 171.050656 
L 502.040625 172.750435 
L 502.475 172.701166 
L 503.34375 169.523319 
L 503.778125 169.572588 
L 504.2125 169.25234 
L 504.646875 167.306217 
L 505.08125 168.291596 
L 505.515625 167.232314 
L 505.95 170.508698 
L 506.384375 169.671126 
L 506.81875 171.173829 
L 507.253125 171.740421 
L 508.121875 169.96674 
L 508.55625 166.493279 
L 508.990625 165.877418 
L 509.859375 158.363904 
L 510.29375 160.088317 
L 510.728125 159.447821 
L 511.1625 156.097533 
L 511.596875 157.698774 
L 512.465625 157.84658 
L 512.9 159.94051 
L 513.334375 154.570196 
L 513.76875 137.350702 
L 514.203125 143.509319 
L 514.6375 140.848796 
L 515.071875 141.883444 
L 515.50625 147.4262 
L 515.940625 150.308433 
L 516.375 147.105952 
L 516.809375 146.736435 
L 517.24375 144.445429 
L 517.678125 143.952739 
L 518.1125 147.721813 
L 518.546875 147.549372 
L 518.98125 145.948132 
L 519.415625 145.529346 
L 519.85 145.9974 
L 520.284375 142.696381 
L 520.71875 144.322257 
L 521.153125 144.61787 
L 521.5875 141.932713 
L 522.021875 142.967361 
L 522.45625 139.075114 
L 522.890625 139.863417 
L 523.325 142.031251 
L 523.759375 143.189071 
L 524.19375 144.938118 
L 524.628125 145.529346 
L 525.0625 144.938118 
L 525.496875 147.500103 
L 525.93125 147.844986 
L 526.365625 147.524738 
L 526.8 148.781096 
L 527.234375 148.165234 
L 527.66875 148.781096 
L 528.103125 148.263772 
L 528.5375 146.810338 
L 528.971875 146.7118 
L 529.40625 148.460847 
L 529.840625 147.450834 
L 530.275 147.278393 
L 530.709375 148.830364 
L 531.14375 147.278393 
L 531.578125 147.204489 
L 532.0125 146.982779 
L 532.446875 145.677152 
L 532.88125 145.849594 
L 533.75 149.865012 
L 534.184375 148.386944 
L 535.053125 141.415389 
L 535.4875 143.533953 
L 535.921875 141.85881 
L 536.35625 144.39616 
L 536.790625 143.583222 
L 537.225 140.528548 
L 537.659375 135.57702 
L 538.09375 142.129789 
L 538.528125 138.163639 
L 538.9625 139.124383 
L 539.396875 139.05048 
L 539.83125 138.212908 
L 540.265625 132.300635 
L 540.7 128.334486 
L 541.134375 120.968779 
L 541.56875 125.32908 
L 542.003125 121.091951 
L 542.4375 122.57002 
L 542.871875 119.219732 
L 543.30625 119.860228 
L 543.740625 123.038075 
L 544.175 121.4122 
L 544.609375 121.190489 
L 545.04375 119.786324 
L 545.478125 119.737056 
L 545.9125 122.101965 
L 546.346875 119.515345 
L 546.78125 118.899484 
L 547.215625 119.269001 
L 547.65 120.155842 
L 548.084375 120.155842 
L 548.51875 118.258987 
L 548.953125 118.111181 
L 549.3875 119.613883 
L 549.821875 119.884862 
L 550.25625 119.589249 
L 550.690625 118.579235 
L 551.559375 108.208124 
L 551.99375 106.779324 
L 552.428125 103.700016 
L 552.8625 109.513751 
L 553.296875 106.75469 
L 553.73125 109.168868 
L 554.165625 109.365944 
L 555.034375 115.450658 
L 555.46875 109.07033 
L 555.903125 104.931739 
L 556.3375 94.782338 
L 556.771875 99.216542 
L 557.20625 101.039493 
L 557.640625 105.128815 
L 558.509375 102.024872 
L 558.94375 100.793148 
L 559.378125 102.911713 
L 559.8125 101.877065 
L 560.246875 98.723853 
L 560.68125 98.994832 
L 561.115625 97.541398 
L 561.55 93.895497 
L 561.984375 94.930144 
L 562.41875 89.141044 
L 562.853125 87.441266 
L 563.2875 90.643747 
L 563.721875 92.58987 
L 564.15625 93.205731 
L 564.590625 92.072546 
L 565.025 87.047114 
L 565.89375 89.830809 
L 566.328125 88.943968 
L 567.196875 91.505953 
L 567.63125 88.870065 
L 568.065625 90.766919 
L 568.5 90.643747 
L 568.934375 88.451279 
L 569.36875 83.425847 
L 569.803125 82.809985 
L 570.2375 79.114815 
L 570.671875 70.000061 
L 571.10625 64.752919 
L 571.540625 52.558856 
L 571.975 61.550438 
L 572.409375 60.097004 
L 572.84375 63.471926 
L 573.278125 64.383402 
L 573.7125 67.561248 
L 574.146875 61.328727 
L 574.58125 61.304093 
L 575.015625 58.520398 
L 575.884375 66.452697 
L 576.31875 61.033114 
L 576.753125 59.875294 
L 577.621875 37.679636 
L 578.05625 38.049153 
L 578.490625 56.623544 
L 578.925 58.742108 
L 579.359375 50.637368 
L 579.79375 54.45571 
L 580.228125 56.623544 
L 580.6625 41.054559 
L 581.53125 57.830633 
L 581.965625 56.377199 
L 582.834375 49.528816 
L 583.26875 54.628152 
L 583.703125 65.491953 
L 584.1375 91.407415 
L 584.571875 84.977819 
L 585.00625 80.248 
L 585.440625 80.789959 
L 585.875 83.401212 
L 586.309375 78.942373 
L 586.74375 82.809985 
L 587.178125 80.765324 
L 587.6125 81.972413 
L 588.046875 82.686813 
L 588.48125 81.750703 
L 588.915625 82.883889 
L 589.35 77.267229 
L 589.784375 80.02629 
L 590.21875 79.779945 
L 590.653125 77.119423 
L 591.0875 72.512777 
L 591.521875 69.605909 
L 591.95625 73.153273 
L 592.390625 75.222568 
L 592.825 75.715258 
L 593.259375 78.080167 
L 593.69375 78.769932 
L 594.128125 77.390402 
L 594.5625 72.956197 
L 594.996875 75.887699 
L 595.43125 75.690623 
L 595.865625 74.877686 
L 596.3 75.567451 
L 596.734375 79.508966 
L 597.16875 77.661381 
L 597.603125 83.05633 
L 598.0375 93.74769 
L 598.471875 88.919334 
L 599.340625 75.074762 
L 599.775 61.67361 
L 600.209375 68.201745 
L 600.64375 70.837633 
L 601.078125 67.511979 
L 601.5125 75.271837 
L 601.946875 75.099396 
L 602.38125 77.144057 
L 602.815625 82.366565 
L 603.25 83.573654 
L 604.11875 79.040911 
L 604.553125 81.602896 
L 604.9875 80.075559 
L 605.421875 77.193326 
L 605.85625 77.48894 
L 606.290625 75.1733 
L 606.725 75.61672 
L 607.159375 75.739892 
L 607.59375 76.454292 
L 608.028125 71.502764 
L 608.4625 72.759121 
L 608.896875 70.517385 
L 609.33125 72.266432 
L 609.765625 69.261027 
L 610.2 69.581275 
L 610.634375 72.044722 
L 611.06875 69.704447 
L 611.503125 70.960805 
L 611.9375 71.231784 
L 612.371875 68.940779 
L 612.80625 70.172502 
L 613.240625 70.739095 
L 613.675 76.158678 
L 614.109375 73.966211 
L 614.54375 73.990845 
L 614.978125 73.818404 
L 615.4125 76.084775 
L 615.846875 81.89851 
L 616.28125 84.017074 
L 616.715625 84.386591 
L 617.15 81.553627 
L 617.584375 81.578262 
L 618.01875 86.628328 
L 618.453125 85.59368 
L 618.8875 84.041709 
L 619.321875 87.4659 
L 619.75625 85.889294 
L 620.190625 92.269622 
L 620.625 89.091775 
L 621.059375 94.388186 
L 621.49375 107.542993 
L 621.928125 106.015656 
L 622.3625 114.120396 
L 622.796875 112.568425 
L 623.23125 111.903294 
L 623.665625 113.307459 
L 624.1 110.597667 
L 624.534375 106.04029 
L 624.96875 105.720042 
L 625.403125 107.715434 
L 625.8375 108.208124 
L 626.271875 102.591465 
L 627.140625 94.265014 
L 627.575 95.964792 
L 628.009375 100.916321 
L 628.44375 101.039493 
L 628.878125 103.256595 
L 629.3125 102.098775 
L 629.746875 99.955576 
L 630.615625 103.552209 
L 631.05 100.842417 
L 631.484375 101.384375 
L 631.91875 100.054114 
L 632.7875 101.261203 
L 633.221875 97.910915 
L 633.65625 92.885483 
L 634.090625 95.053317 
L 634.525 99.191908 
L 634.959375 98.723853 
L 635.39375 93.994035 
L 635.828125 95.792351 
L 636.2625 100.398997 
L 636.696875 101.40901 
L 637.13125 103.010251 
L 637.565625 103.552209 
L 638 99.635328 
L 638.434375 96.876268 
L 638.86875 102.492927 
L 639.303125 103.059519 
L 639.7375 110.00644 
L 640.60625 99.832404 
L 641.040625 101.014858 
L 641.475 97.763108 
L 641.909375 99.462887 
L 642.34375 101.877065 
L 642.778125 103.355133 
L 643.2125 98.723853 
L 643.646875 100.152652 
L 644.08125 99.881673 
L 644.515625 98.009453 
L 644.95 100.078749 
L 645.384375 95.34893 
L 645.81875 97.44286 
L 646.253125 97.93555 
L 646.6875 97.048709 
L 647.121875 95.102586 
L 647.55625 96.531385 
L 647.990625 94.535993 
L 648.425 97.886281 
L 649.29375 108.799351 
L 649.728125 110.745474 
L 650.1625 107.91251 
L 650.596875 113.97259 
L 651.03125 126.26519 
L 651.465625 127.324472 
L 651.9 137.597046 
L 652.334375 138.237542 
L 652.76875 140.134397 
L 653.203125 148.263772 
L 653.6375 142.450037 
L 654.071875 140.454645 
L 654.50625 140.282203 
L 654.940625 139.27219 
L 655.375 143.139802 
L 655.809375 141.760272 
L 656.24375 138.262177 
L 656.678125 137.473874 
L 657.1125 135.650923 
L 657.546875 135.527751 
L 657.98125 134.936523 
L 658.415625 134.936523 
L 658.85 136.24215 
L 659.284375 140.405376 
L 659.71875 138.286811 
L 660.153125 141.908078 
L 660.5875 140.356107 
L 661.021875 140.848796 
L 661.45625 142.055885 
L 661.890625 139.222921 
L 662.325 140.9227 
L 662.759375 136.858012 
L 663.19375 137.350702 
L 663.628125 141.686368 
L 664.0625 140.996603 
L 664.496875 139.715611 
L 664.93125 142.105154 
L 665.365625 137.720219 
L 665.8 138.902673 
L 665.8 138.902673 
" clip-path="url(#p9442bef142)" style="fill: none; stroke: #1f77b4; stroke-width: 1.5; stroke-linecap: square"/>
   </g>
   <g id="patch_3">
    <path d="M 54.2 294.712 
L 54.2 25.44 
" style="fill: none; stroke: #000000; stroke-width: 0.8; stroke-linejoin: miter; stroke-linecap: square"/>
   </g>
   <g id="patch_4">
    <path d="M 665.8 294.712 
L 665.8 25.44 
" style="fill: none; stroke: #000000; stroke-width: 0.8; stroke-linejoin: miter; stroke-linecap: square"/>
   </g>
   <g id="patch_5">
    <path d="M 54.2 294.712 
L 665.8 294.712 
" style="fill: none; stroke: #000000; stroke-width: 0.8; stroke-linejoin: miter; stroke-linecap: square"/>
   </g>
   <g id="patch_6">
    <path d="M 54.2 25.44 
L 665.8 25.44 
" style="fill: none; stroke: #000000; stroke-width: 0.8; stroke-linejoin: miter; stroke-linecap: square"/>
   </g>
   <g id="text_23">
    <!-- MA+Breakout Backtest -->
    <g transform="translate(290.795625 19.44) scale(0.12 -0.12)">
     <defs>
      <path id="DejaVuSans-4d" d="M 628 4666 
L 1569 4666 
L 2759 1491 
L 3956 4666 
L 4897 4666 
L 4897 0 
L 4281 0 
L 4281 4097 
L 3078 897 
L 2444 897 
L 1241 4097 
L 1241 0 
L 628 0 
L 628 4666 
z
" transform="scale(0.015625)"/>
      <path id="DejaVuSans-41" d="M 2188 4044 
L 1331 1722 
L 3047 1722 
L 2188 4044 
z
M 1831 4666 
L 2547 4666 
L 4325 0 
L 3669 0 
L 3244 1197 
L 1141 1197 
L 716 0 
L 50 0 
L 1831 4666 
z
" transform="scale(0.015625)"/>
      <path id="DejaVuSans-2b" d="M 2944 4013 
L 2944 2272 
L 4684 2272 
L 4684 1741 
L 2944 1741 
L 2944 0 
L 2419 0 
L 2419 1741 
L 678 1741 
L 678 2272 
L 2419 2272 
L 2419 4013 
L 2944 4013 
z
" transform="scale(0.015625)"/>
      <path id="DejaVuSans-42" d="M 1259 2228 
L 1259 519 
L 2272 519 
Q 2781 519 3026 730 
Q 3272 941 3272 1375 
Q 3272 1813 3026 2020 
Q 2781 2228 2272 2228 
L 1259 2228 
z
M 1259 4147 
L 1259 2741 
L 2194 2741 
Q 2656 2741 2882 2914 
Q 3109 3088 3109 3444 
Q 3109 3797 2882 3972 
Q 2656 4147 2194 4147 
L 1259 4147 
z
M 628 4666 
L 2241 4666 
Q 2963 4666 3353 4366 
Q 3744 4066 3744 3513 
Q 3744 3084 3544 2831 
Q 3344 2578 2956 2516 
Q 3422 2416 3680 2098 
Q 3938 1781 3938 1306 
Q 3938 681 3513 340 
Q 3088 0 2303 0 
L 628 0 
L 628 4666 
z
" transform="scale(0.015625)"/>
      <path id="DejaVuSans-61" d="M 2194 1759 
Q 1497 1759 1228 1600 
Q 959 1441 959 1056 
Q 959 750 1161 570 
Q 1363 391 1709 391 
Q 2188 391 2477 730 
Q 2766 1069 2766 1631 
L 2766 1759 
L 2194 1759 
z
M 3341 1997 
L 3341 0 
L 2766 0 
L 2766 531 
Q 2569 213 2275 61 
Q 1981 -91 1556 -91 
Q 1019 -91 701 211 
Q 384 513 384 1019 
Q 384 1609 779 1909 
Q 1175 2209 1959 2209 
L 2766 2209 
L 2766 2266 
Q 2766 2663 2505 2880 
Q 2244 3097 1772 3097 
Q 1472 3097 1187 3025 
Q 903 2953 641 2809 
L 641 3341 
Q 956 3463 1253 3523 
Q 1550 3584 1831 3584 
Q 2591 3584 2966 3190 
Q 3341 2797 3341 1997 
z
" transform="scale(0.015625)"/>
      <path id="DejaVuSans-6b" d="M 581 4863 
L 1159 4863 
L 1159 1991 
L 2875 3500 
L 3609 3500 
L 1753 1863 
L 3688 0 
L 2938 0 
L 1159 1709 
L 1159 0 
L 581 0 
L 581 4863 
z
" transform="scale(0.015625)"/>
      <path id="DejaVuSans-6f" d="M 1959 3097 
Q 1497 3097 1228 2736 
Q 959 2375 959 1747 
Q 959 1119 1226 758 
Q 1494 397 1959 397 
Q 2419 397 2687 759 
Q 2956 1122 2956 1747 
Q 2956 2369 2687 2733 
Q 2419 3097 1959 3097 
z
M 1959 3584 
Q 2709 3584 3137 3096 
Q 3566 2609 3566 1747 
Q 3566 888 3137 398 
Q 2709 -91 1959 -91 
Q 1206 -91 779 398 
Q 353 888 353 1747 
Q 353 2609 779 3096 
Q 1206 3584 1959 3584 
z
" transform="scale(0.015625)"/>
      <path id="DejaVuSans-75" d="M 544 1381 
L 544 3500 
L 1119 3500 
L 1119 1403 
Q 1119 906 1312 657 
Q 1506 409 1894 409 
Q 2359 409 2629 706 
Q 2900 1003 2900 1516 
L 2900 3500 
L 3475 3500 
L 3475 0 
L 2900 0 
L 2900 538 
Q 2691 219 2414 64 
Q 2138 -91 1772 -91 
Q 1169 -91 856 284 
Q 544 659 544 1381 
z
M 1991 3584 
L 1991 3584 
z
" transform="scale(0.015625)"/>
      <path id="DejaVuSans-74" d="M 1172 4494 
L 1172 3500 
L 2356 3500 
L 2356 3053 
L 1172 3053 
L 1172 1153 
Q 1172 725 1289 603 
Q 1406 481 1766 481 
L 2356 481 
L 2356 0 
L 1766 0 
Q 1100 0 847 248 
Q 594 497 594 1153 
L 594 3053 
L 172 3053 
L 172 3500 
L 594 3500 
L 594 4494 
L 1172 4494 
z
" transform="scale(0.015625)"/>
      <path id="DejaVuSans-73" d="M 2834 3397 
L 2834 2853 
Q 2591 2978 2328 3040 
Q 2066 3103 1784 3103 
Q 1356 3103 1142 2972 
Q 928 2841 928 2578 
Q 928 2378 1081 2264 
Q 1234 2150 1697 2047 
L 1894 2003 
Q 2506 1872 2764 1633 
Q 3022 1394 3022 966 
Q 3022 478 2636 193 
Q 2250 -91 1575 -91 
Q 1294 -91 989 -36 
Q 684 19 347 128 
L 347 722 
Q 666 556 975 473 
Q 1284 391 1588 391 
Q 1994 391 2212 530 
Q 2431 669 2431 922 
Q 2431 1156 2273 1281 
Q 2116 1406 1581 1522 
L 1381 1569 
Q 847 1681 609 1914 
Q 372 2147 372 2553 
Q 372 3047 722 3315 
Q 1072 3584 1716 3584 
Q 2034 3584 2315 3537 
Q 2597 3491 2834 3397 
z
" transform="scale(0.015625)"/>
     </defs>
     <use xlink:href="#DejaVuSans-4d"/>
     <use xlink:href="#DejaVuSans-41" transform="translate(86.279297 0)"/>
     <use xlink:href="#DejaVuSans-2b" transform="translate(154.6875 0)"/>
     <use xlink:href="#DejaVuSans-42" transform="translate(238.476562 0)"/>
     <use xlink:href="#DejaVuSans-72" transform="translate(307.080078 0)"/>
     <use xlink:href="#DejaVuSans-65" transform="translate(345.943359 0)"/>
     <use xlink:href="#DejaVuSans-61" transform="translate(407.466797 0)"/>
     <use xlink:href="#DejaVuSans-6b" transform="translate(468.746094 0)"/>
     <use xlink:href="#DejaVuSans-6f" transform="translate(523.03125 0)"/>
     <use xlink:href="#DejaVuSans-75" transform="translate(584.212891 0)"/>
     <use xlink:href="#DejaVuSans-74" transform="translate(647.591797 0)"/>
     <use xlink:href="#DejaVuSans-20" transform="translate(686.800781 0)"/>
     <use xlink:href="#DejaVuSans-42" transform="translate(718.587891 0)"/>
     <use xlink:href="#DejaVuSans-61" transform="translate(787.191406 0)"/>
     <use xlink:href="#DejaVuSans-63" transform="translate(848.470703 0)"/>
     <use xlink:href="#DejaVuSans-6b" transform="translate(903.451172 0)"/>
     <use xlink:href="#DejaVuSans-74" transform="translate(961.361328 0)"/>
     <use xlink:href="#DejaVuSans-65" transform="translate(1000.570312 0)"/>
     <use xlink:href="#DejaVuSans-73" transform="translate(1062.09375 0)"/>
     <use xlink:href="#DejaVuSans-74" transform="translate(1114.193359 0)"/>
    </g>
   </g>
   <g id="legend_1">
    <g id="patch_7">
     <path d="M 601.042187 48.118125 
L 658.8 48.118125 
Q 660.8 48.118125 660.8 46.118125 
L 660.8 32.44 
Q 660.8 30.44 658.8 30.44 
L 601.042187 30.44 
Q 599.042187 30.44 599.042187 32.44 
L 599.042187 46.118125 
Q 599.042187 48.118125 601.042187 48.118125 
z
" style="fill: #ffffff; opacity: 0.8; stroke: #cccccc; stroke-linejoin: miter"/>
    </g>
    <g id="line2d_23">
     <path d="M 603.042187 38.538437 
L 613.042187 38.538437 
L 623.042187 38.538437 
" style="fill: none; stroke: #1f77b4; stroke-width: 1.5; stroke-linecap: square"/>
    </g>
    <g id="text_24">
     <!-- close -->
     <g transform="translate(631.042187 42.038437) scale(0.1 -0.1)">
      <defs>
       <path id="DejaVuSans-6c" d="M 603 4863 
L 1178 4863 
L 1178 0 
L 603 0 
L 603 4863 
z
" transform="scale(0.015625)"/>
      </defs>
      <use xlink:href="#DejaVuSans-63"/>
      <use xlink:href="#DejaVuSans-6c" transform="translate(54.980469 0)"/>
      <use xlink:href="#DejaVuSans-6f" transform="translate(82.763672 0)"/>
      <use xlink:href="#DejaVuSans-73" transform="translate(143.945312 0)"/>
      <use xlink:href="#DejaVuSans-65" transform="translate(196.044922 0)"/>
     </g>
    </g>
   </g>
  </g>
  <g id="axes_2">
   <g id="matplotlib.axis_3">
    <g id="ytick_6">
     <g id="line2d_24">
      <defs>
       <path id="m334ac8a39b" d="M 0 0 
L 3.5 0 
" style="stroke: #000000; stroke-width: 0.8"/>
      </defs>
      <g>
       <use xlink:href="#m334ac8a39b" x="665.8" y="270.205591" style="stroke: #000000; stroke-width: 0.8"/>
      </g>
     </g>
     <g id="text_25">
      <!-- 0.50 -->
      <g transform="translate(672.8 274.00481) scale(0.1 -0.1)">
       <use xlink:href="#DejaVuSans-30"/>
       <use xlink:href="#DejaVuSans-2e" transform="translate(63.623047 0)"/>
       <use xlink:href="#DejaVuSans-35" transform="translate(95.410156 0)"/>
       <use xlink:href="#DejaVuSans-30" transform="translate(159.033203 0)"/>
      </g>
     </g>
    </g>
    <g id="ytick_7">
     <g id="line2d_25">
      <g>
       <use xlink:href="#m334ac8a39b" x="665.8" y="236.477083" style="stroke: #000000; stroke-width: 0.8"/>
      </g>
     </g>
     <g id="text_26">
      <!-- 0.75 -->
      <g transform="translate(672.8 240.276301) scale(0.1 -0.1)">
       <use xlink:href="#DejaVuSans-30"/>
       <use xlink:href="#DejaVuSans-2e" transform="translate(63.623047 0)"/>
       <use xlink:href="#DejaVuSans-37" transform="translate(95.410156 0)"/>
       <use xlink:href="#DejaVuSans-35" transform="translate(159.033203 0)"/>
      </g>
     </g>
    </g>
    <g id="ytick_8">
     <g id="line2d_26">
      <g>
       <use xlink:href="#m334ac8a39b" x="665.8" y="202.748575" style="stroke: #000000; stroke-width: 0.8"/>
      </g>
     </g>
     <g id="text_27">
      <!-- 1.00 -->
      <g transform="translate(672.8 206.547793) scale(0.1 -0.1)">
       <use xlink:href="#DejaVuSans-31"/>
       <use xlink:href="#DejaVuSans-2e" transform="translate(63.623047 0)"/>
       <use xlink:href="#DejaVuSans-30" transform="translate(95.410156 0)"/>
       <use xlink:href="#DejaVuSans-30" transform="translate(159.033203 0)"/>
      </g>
     </g>
    </g>
    <g id="ytick_9">
     <g id="line2d_27">
      <g>
       <use xlink:href="#m334ac8a39b" x="665.8" y="169.020067" style="stroke: #000000; stroke-width: 0.8"/>
      </g>
     </g>
     <g id="text_28">
      <!-- 1.25 -->
      <g transform="translate(672.8 172.819285) scale(0.1 -0.1)">
       <use xlink:href="#DejaVuSans-31"/>
       <use xlink:href="#DejaVuSans-2e" transform="translate(63.623047 0)"/>
       <use xlink:href="#DejaVuSans-32" transform="translate(95.410156 0)"/>
       <use xlink:href="#DejaVuSans-35" transform="translate(159.033203 0)"/>
      </g>
     </g>
    </g>
    <g id="ytick_10">
     <g id="line2d_28">
      <g>
       <use xlink:href="#m334ac8a39b" x="665.8" y="135.291558" style="stroke: #000000; stroke-width: 0.8"/>
      </g>
     </g>
     <g id="text_29">
      <!-- 1.50 -->
      <g transform="translate(672.8 139.090777) scale(0.1 -0.1)">
       <use xlink:href="#DejaVuSans-31"/>
       <use xlink:href="#DejaVuSans-2e" transform="translate(63.623047 0)"/>
       <use xlink:href="#DejaVuSans-35" transform="translate(95.410156 0)"/>
       <use xlink:href="#DejaVuSans-30" transform="translate(159.033203 0)"/>
      </g>
     </g>
    </g>
    <g id="ytick_11">
     <g id="line2d_29">
      <g>
       <use xlink:href="#m334ac8a39b" x="665.8" y="101.56305" style="stroke: #000000; stroke-width: 0.8"/>
      </g>
     </g>
     <g id="text_30">
      <!-- 1.75 -->
      <g transform="translate(672.8 105.362269) scale(0.1 -0.1)">
       <use xlink:href="#DejaVuSans-31"/>
       <use xlink:href="#DejaVuSans-2e" transform="translate(63.623047 0)"/>
       <use xlink:href="#DejaVuSans-37" transform="translate(95.410156 0)"/>
       <use xlink:href="#DejaVuSans-35" transform="translate(159.033203 0)"/>
      </g>
     </g>
    </g>
    <g id="ytick_12">
     <g id="line2d_30">
      <g>
       <use xlink:href="#m334ac8a39b" x="665.8" y="67.834542" style="stroke: #000000; stroke-width: 0.8"/>
      </g>
     </g>
     <g id="text_31">
      <!-- 2.00 -->
      <g transform="translate(672.8 71.633761) scale(0.1 -0.1)">
       <use xlink:href="#DejaVuSans-32"/>
       <use xlink:href="#DejaVuSans-2e" transform="translate(63.623047 0)"/>
       <use xlink:href="#DejaVuSans-30" transform="translate(95.410156 0)"/>
       <use xlink:href="#DejaVuSans-30" transform="translate(159.033203 0)"/>
      </g>
     </g>
    </g>
    <g id="ytick_13">
     <g id="line2d_31">
      <g>
       <use xlink:href="#m334ac8a39b" x="665.8" y="34.106034" style="stroke: #000000; stroke-width: 0.8"/>
      </g>
     </g>
     <g id="text_32">
      <!-- 2.25 -->
      <g transform="translate(672.8 37.905253) scale(0.1 -0.1)">
       <use xlink:href="#DejaVuSans-32"/>
       <use xlink:href="#DejaVuSans-2e" transform="translate(63.623047 0)"/>
       <use xlink:href="#DejaVuSans-32" transform="translate(95.410156 0)"/>
       <use xlink:href="#DejaVuSans-35" transform="translate(159.033203 0)"/>
      </g>
     </g>
    </g>
    <g id="text_33">
     <!-- Equity -->
     <g transform="translate(706.664062 175.886937) rotate(-90) scale(0.1 -0.1)">
      <defs>
       <path id="DejaVuSans-45" d="M 628 4666 
L 3578 4666 
L 3578 4134 
L 1259 4134 
L 1259 2753 
L 3481 2753 
L 3481 2222 
L 1259 2222 
L 1259 531 
L 3634 531 
L 3634 0 
L 628 0 
L 628 4666 
z
" transform="scale(0.015625)"/>
       <path id="DejaVuSans-71" d="M 947 1747 
Q 947 1113 1208 752 
Q 1469 391 1925 391 
Q 2381 391 2643 752 
Q 2906 1113 2906 1747 
Q 2906 2381 2643 2742 
Q 2381 3103 1925 3103 
Q 1469 3103 1208 2742 
Q 947 2381 947 1747 
z
M 2906 525 
Q 2725 213 2448 61 
Q 2172 -91 1784 -91 
Q 1150 -91 751 415 
Q 353 922 353 1747 
Q 353 2572 751 3078 
Q 1150 3584 1784 3584 
Q 2172 3584 2448 3432 
Q 2725 3281 2906 2969 
L 2906 3500 
L 3481 3500 
L 3481 -1331 
L 2906 -1331 
L 2906 525 
z
" transform="scale(0.015625)"/>
       <path id="DejaVuSans-79" d="M 2059 -325 
Q 1816 -950 1584 -1140 
Q 1353 -1331 966 -1331 
L 506 -1331 
L 506 -850 
L 844 -850 
Q 1081 -850 1212 -737 
Q 1344 -625 1503 -206 
L 1606 56 
L 191 3500 
L 800 3500 
L 1894 763 
L 2988 3500 
L 3597 3500 
L 2059 -325 
z
" transform="scale(0.015625)"/>
      </defs>
      <use xlink:href="#DejaVuSans-45"/>
      <use xlink:href="#DejaVuSans-71" transform="translate(63.183594 0)"/>
      <use xlink:href="#DejaVuSans-75" transform="translate(126.660156 0)"/>
      <use xlink:href="#DejaVuSans-69" transform="translate(190.039062 0)"/>
      <use xlink:href="#DejaVuSans-74" transform="translate(217.822266 0)"/>
      <use xlink:href="#DejaVuSans-79" transform="translate(257.03125 0)"/>
     </g>
    </g>
   </g>
   <g id="line2d_32">
    <path d="M 54.2 202.748575 
L 100.24375 202.748575 
L 100.678125 182.050556 
L 101.1125 174.679805 
L 101.546875 174.069182 
L 101.98125 177.254824 
L 102.415625 176.231153 
L 102.85 177.805503 
L 103.71875 173.639911 
L 104.153125 171.429507 
L 104.5875 172.36135 
L 105.021875 174.277707 
L 105.45625 173.359858 
L 106.325 168.844389 
L 106.759375 170.481491 
L 107.19375 169.295311 
L 107.628125 170.677302 
L 108.0625 175.791324 
L 131.51875 175.791324 
L 131.953125 178.670113 
L 132.3875 169.286071 
L 132.821875 174.948165 
L 133.25625 157.896453 
L 133.690625 158.130709 
L 134.125 161.172347 
L 134.559375 162.784356 
L 134.99375 159.359368 
L 135.428125 158.429451 
L 135.8625 155.158986 
L 136.296875 161.216705 
L 136.73125 160.641159 
L 137.165625 158.909293 
L 137.6 158.676281 
L 138.034375 155.876756 
L 138.46875 163.332123 
L 141.94375 163.332123 
L 142.378125 160.909969 
L 142.8125 171.871627 
L 143.246875 173.411004 
L 143.68125 179.666755 
L 144.115625 179.666755 
L 144.55 189.502958 
L 151.5 189.502958 
L 151.934375 197.446074 
L 152.36875 197.446074 
L 152.803125 199.655949 
L 154.975 199.655949 
L 155.409375 191.111434 
L 155.84375 197.726826 
L 156.278125 199.923316 
L 156.7125 199.923316 
L 157.146875 201.956274 
L 157.58125 199.325457 
L 158.015625 206.214884 
L 161.05625 206.214884 
L 161.490625 218.6378 
L 162.359375 218.6378 
L 162.79375 199.943663 
L 163.228125 206.620641 
L 163.6625 205.949553 
L 164.096875 211.17521 
L 164.53125 211.17521 
L 164.965625 212.677367 
L 165.4 212.905859 
L 166.26875 226.666322 
L 168.875 226.666322 
L 169.309375 229.598986 
L 169.74375 233.345205 
L 171.48125 233.345205 
L 171.915625 222.916783 
L 172.35 208.68056 
L 172.784375 216.17219 
L 173.21875 216.17219 
L 173.653125 221.315452 
L 174.0875 221.10541 
L 174.521875 217.528584 
L 174.95625 228.896198 
L 201.453125 228.896198 
L 201.8875 234.923151 
L 202.321875 231.307574 
L 202.75625 233.175694 
L 203.190625 241.586855 
L 218.828125 241.586855 
L 219.696875 248.464681 
L 223.60625 248.464681 
L 224.040625 250.545536 
L 224.475 247.127266 
L 224.909375 245.354546 
L 225.34375 249.223823 
L 225.778125 247.325109 
L 226.2125 257.012099 
L 227.515625 257.012099 
L 227.95 262.358928 
L 232.728125 262.358928 
L 233.1625 256.120131 
L 234.03125 247.990867 
L 234.465625 247.035423 
L 234.9 250.227721 
L 235.76875 250.227721 
L 236.203125 249.663 
L 236.6375 252.747431 
L 237.071875 260.672062 
L 242.284375 260.672062 
L 242.71875 264.261857 
L 243.153125 250.943783 
L 243.5875 251.936071 
L 244.021875 254.554032 
L 244.45625 248.884011 
L 244.890625 250.718812 
L 245.325 255.807356 
L 255.315625 255.807356 
L 255.75 253.621937 
L 256.184375 250.453944 
L 257.053125 236.381473 
L 257.4875 240.911707 
L 257.921875 240.911707 
L 258.35625 236.654827 
L 258.790625 244.322679 
L 289.196875 244.322679 
L 289.63125 247.098846 
L 290.065625 256.287573 
L 300.05625 256.287573 
L 300.490625 255.075677 
L 300.925 251.619032 
L 301.359375 252.25793 
L 301.79375 254.240397 
L 302.228125 251.991507 
L 302.6625 246.821973 
L 303.096875 238.994435 
L 303.53125 242.443419 
L 303.965625 242.443419 
L 304.4 239.002081 
L 304.834375 241.466198 
L 305.26875 235.674991 
L 305.703125 237.275979 
L 306.1375 232.730239 
L 307.00625 234.148026 
L 307.440625 233.74677 
L 307.875 234.283703 
L 308.309375 234.016525 
L 308.74375 231.673106 
L 309.178125 230.647732 
L 309.6125 233.889413 
L 318.3 233.889413 
L 318.734375 231.408512 
L 319.603125 235.373656 
L 320.0375 235.373656 
L 320.471875 234.903599 
L 320.90625 241.135424 
L 323.078125 241.135424 
L 323.5125 240.869704 
L 323.946875 239.004801 
L 324.38125 233.759931 
L 324.815625 231.499319 
L 325.25 232.739635 
L 325.684375 233.43017 
L 326.11875 233.43017 
L 326.553125 234.765261 
L 326.9875 233.823236 
L 327.421875 228.59706 
L 327.85625 229.891252 
L 328.290625 229.30067 
L 328.725 200.310488 
L 329.159375 202.476242 
L 329.59375 192.037893 
L 330.028125 195.160375 
L 330.4625 195.160375 
L 330.896875 169.936474 
L 331.33125 172.446092 
L 331.765625 180.179569 
L 332.2 179.88372 
L 332.634375 188.972235 
L 333.06875 188.972235 
L 333.503125 191.640883 
L 340.453125 191.640883 
L 340.8875 187.986751 
L 341.321875 189.055578 
L 341.75625 188.524791 
L 342.190625 192.519198 
L 342.625 175.002337 
L 343.059375 175.103516 
L 343.49375 151.845706 
L 343.928125 149.295791 
L 344.3625 150.387533 
L 344.796875 146.368966 
L 345.23125 146.368966 
L 345.665625 150.380191 
L 346.1 168.725956 
L 346.534375 168.725956 
L 346.96875 163.832251 
L 347.403125 179.678643 
L 350.878125 179.678643 
L 351.3125 156.541778 
L 351.746875 167.167698 
L 352.18125 171.062549 
L 352.615625 171.062549 
L 353.05 181.277233 
L 353.484375 181.277233 
L 353.91875 189.631801 
L 360.86875 189.631801 
L 361.303125 203.048299 
L 367.81875 203.048299 
L 368.253125 205.56638 
L 368.6875 156.66267 
L 369.121875 174.131225 
L 369.55625 174.131225 
L 369.990625 179.248928 
L 370.425 179.248928 
L 370.859375 169.661012 
L 371.29375 182.473739 
L 371.728125 175.554116 
L 372.1625 189.161812 
L 372.596875 172.763259 
L 373.03125 185.066601 
L 373.465625 177.362326 
L 373.9 160.140204 
L 374.334375 167.254143 
L 374.76875 189.635044 
L 382.5875 189.635044 
L 383.021875 172.570286 
L 383.890625 182.896635 
L 384.325 170.093891 
L 384.759375 175.215446 
L 385.19375 164.700372 
L 385.628125 168.182929 
L 386.0625 162.226975 
L 386.496875 177.349494 
L 386.93125 177.349494 
L 387.365625 190.561388 
L 399.09375 190.561388 
L 399.9625 177.452499 
L 400.396875 180.504752 
L 400.83125 198.225893 
L 401.265625 198.225893 
L 401.7 196.716775 
L 402.56875 185.488249 
L 403.003125 182.587288 
L 403.4375 190.227731 
L 403.871875 189.455885 
L 404.30625 193.592402 
L 404.740625 193.592402 
L 405.175 176.956258 
L 405.609375 188.756699 
L 406.04375 188.756699 
L 406.478125 196.894308 
L 408.65 196.894308 
L 409.084375 175.288649 
L 409.51875 203.776226 
L 409.953125 203.776226 
L 410.3875 189.504019 
L 411.25625 182.471874 
L 411.690625 191.620276 
L 412.125 206.996888 
L 424.2875 206.996888 
L 424.721875 220.807964 
L 442.096875 220.807964 
L 442.53125 224.191832 
L 442.965625 224.28585 
L 443.4 217.052134 
L 443.834375 225.320631 
L 444.26875 229.883025 
L 446.440625 229.883025 
L 446.875 237.018383 
L 447.309375 239.191042 
L 451.21875 239.191042 
L 451.653125 242.596399 
L 452.0875 232.402892 
L 452.521875 236.375283 
L 452.95625 229.714929 
L 453.390625 227.42438 
L 453.825 233.294975 
L 454.259375 234.434808 
L 454.69375 234.434808 
L 455.128125 238.919662 
L 455.5625 226.589469 
L 455.996875 231.214305 
L 456.43125 230.778862 
L 456.865625 238.210148 
L 458.603125 238.210148 
L 459.0375 241.017613 
L 459.471875 263.498639 
L 459.90625 263.498639 
L 460.340625 267.898095 
L 460.775 270.68424 
L 471.634375 270.68424 
L 472.06875 273.037238 
L 472.9375 258.888831 
L 473.371875 261.211337 
L 473.80625 262.651004 
L 474.240625 262.651004 
L 474.675 256.910008 
L 475.109375 262.215354 
L 475.54375 256.44407 
L 475.978125 259.670294 
L 476.4125 255.86919 
L 476.846875 232.579176 
L 477.28125 234.915847 
L 477.715625 231.184659 
L 478.15 231.015834 
L 478.584375 231.692071 
L 479.01875 229.573753 
L 479.453125 230.463232 
L 479.8875 235.897498 
L 480.321875 235.897498 
L 480.75625 244.823194 
L 490.3125 244.823194 
L 490.746875 246.822527 
L 491.18125 246.822527 
L 491.615625 247.835802 
L 492.05 241.032911 
L 492.484375 227.979096 
L 492.91875 246.545832 
L 503.34375 246.545832 
L 503.778125 246.69094 
L 504.2125 245.749167 
L 504.646875 239.969827 
L 505.08125 243.070324 
L 505.515625 239.837942 
L 505.95 250.159783 
L 508.55625 250.159783 
L 508.990625 248.426367 
L 509.859375 229.567836 
L 510.29375 231.935184 
L 510.728125 231.07278 
L 511.1625 226.529579 
L 511.596875 228.781515 
L 512.03125 228.815544 
L 512.465625 228.985644 
L 512.9 231.873391 
L 513.334375 231.873391 
L 513.76875 174.38104 
L 514.203125 196.009375 
L 514.6375 196.009375 
L 515.071875 200.536932 
L 515.50625 224.054045 
L 515.940625 224.054045 
L 516.375 212.648003 
L 516.809375 211.207024 
L 517.24375 202.175176 
L 535.053125 202.175176 
L 535.4875 211.050123 
L 535.921875 204.470841 
L 536.35625 214.927207 
L 536.790625 214.927207 
L 537.225 203.296187 
L 537.659375 182.753363 
L 538.09375 204.526604 
L 538.528125 204.526604 
L 538.9625 208.461659 
L 539.396875 208.167474 
L 539.83125 204.826171 
L 540.265625 180.663109 
L 540.7 167.373456 
L 541.134375 140.764386 
L 541.56875 151.057057 
L 542.003125 141.515634 
L 542.4375 144.992005 
L 542.871875 137.234701 
L 543.30625 138.769699 
L 543.740625 146.334564 
L 544.175 142.593592 
L 544.609375 142.074753 
L 545.04375 138.781129 
L 545.478125 138.663864 
L 545.9125 144.295488 
L 551.125 144.295488 
L 551.559375 112.943239 
L 551.99375 106.333367 
L 552.428125 97.971263 
L 552.8625 106.113644 
L 553.296875 106.113644 
L 553.73125 122.518342 
L 554.165625 123.767048 
L 554.6 142.083878 
L 556.3375 142.083878 
L 556.771875 167.094834 
L 557.20625 176.119907 
L 557.640625 176.119907 
L 558.075 168.080928 
L 561.55 168.080928 
L 561.984375 173.134627 
L 562.41875 145.659711 
L 562.853125 136.323418 
L 563.2875 149.203917 
L 563.721875 156.564181 
L 564.15625 156.564181 
L 564.590625 150.659146 
L 565.025 150.659146 
L 565.89375 165.228506 
L 569.36875 165.228506 
L 569.803125 162.215188 
L 570.2375 143.835391 
L 570.671875 108.957669 
L 571.540625 79.272252 
L 571.975 79.272252 
L 572.409375 68.936638 
L 572.84375 68.936638 
L 573.278125 75.695432 
L 573.7125 98.696123 
L 574.146875 98.696123 
L 574.58125 98.534161 
L 575.015625 80.220698 
L 575.45 105.423464 
L 577.1875 105.423464 
L 577.621875 37.679636 
L 578.05625 39.747194 
L 578.490625 143.010972 
L 599.775 143.010972 
L 600.209375 177.988211 
L 600.64375 189.678366 
L 601.078125 189.678366 
L 601.5125 221.543179 
L 601.946875 220.981499 
L 602.38125 227.672022 
L 612.371875 227.672022 
L 612.80625 231.438823 
L 613.240625 233.115081 
L 613.675 248.908301 
L 633.65625 248.908301 
L 634.090625 254.442082 
L 634.525 264.378861 
L 635.39375 264.378861 
L 635.828125 268.175273 
L 636.2625 277.420475 
L 647.121875 277.420475 
L 647.55625 279.90398 
L 647.990625 276.571752 
L 648.425 282.472364 
L 665.8 282.472364 
L 665.8 282.472364 
" clip-path="url(#p9442bef142)" style="fill: none; stroke: #2ca02c; stroke-width: 1.5; stroke-linecap: square"/>
   </g>
   <g id="patch_8">
    <path d="M 54.2 294.712 
L 54.2 25.44 
" style="fill: none; stroke: #000000; stroke-width: 0.8; stroke-linejoin: miter; stroke-linecap: square"/>
   </g>
   <g id="patch_9">
    <path d="M 665.8 294.712 
L 665.8 25.44 
" style="fill: none; stroke: #000000; stroke-width: 0.8; stroke-linejoin: miter; stroke-linecap: square"/>
   </g>
   <g id="patch_10">
    <path d="M 54.2 294.712 
L 665.8 294.712 
" style="fill: none; stroke: #000000; stroke-width: 0.8; stroke-linejoin: miter; stroke-linecap: square"/>
   </g>
   <g id="patch_11">
    <path d="M 54.2 25.44 
L 665.8 25.44 
" style="fill: none; stroke: #000000; stroke-width: 0.8; stroke-linejoin: miter; stroke-linecap: square"/>
   </g>
   <g id="legend_2">
    <g id="patch_12">
     <path d="M 595.34375 48.118125 
L 658.8 48.118125 
Q 660.8 48.118125 660.8 46.118125 
L 660.8 32.44 
Q 660.8 30.44 658.8 30.44 
L 595.34375 30.44 
Q 593.34375 30.44 593.34375 32.44 
L 593.34375 46.118125 
Q 593.34375 48.118125 595.34375 48.118125 
z
" style="fill: #ffffff; opacity: 0.8; stroke: #cccccc; stroke-linejoin: miter"/>
    </g>
    <g id="line2d_33">
     <path d="M 597.34375 38.538437 
L 607.34375 38.538437 
L 617.34375 38.538437 
" style="fill: none; stroke: #2ca02c; stroke-width: 1.5; stroke-linecap: square"/>
    </g>
    <g id="text_34">
     <!-- equity -->
     <g transform="translate(625.34375 42.038437) scale(0.1 -0.1)">
      <use xlink:href="#DejaVuSans-65"/>
      <use xlink:href="#DejaVuSans-71" transform="translate(61.523438 0)"/>
      <use xlink:href="#DejaVuSans-75" transform="translate(125 0)"/>
      <use xlink:href="#DejaVuSans-69" transform="translate(188.378906 0)"/>
      <use xlink:href="#DejaVuSans-74" transform="translate(216.162109 0)"/>
      <use xlink:href="#DejaVuSans-79" transform="translate(255.371094 0)"/>
     </g>
    </g>
   </g>
  </g>
 </g>
 <defs>
  <clipPath id="p9442bef142">
   <rect x="54.2" y="25.44" width="611.6" height="269.272"/>
  </clipPath>
 </defs>
</svg>
